<svg width="1920" height="93" viewBox="0 0 1920 93" fill="none" xmlns="http://www.w3.org/2000/svg">
<path fill-rule="evenodd" clip-rule="evenodd" d="M0 75.8863L80 77.8517C160 80.0355 320 84.1847 480 75.8863C640 67.3695 800 46.405 960 29.8081C1120 12.9928 1280 0.326732 1440 6.65976C1600 12.9928 1760 38.1065 1840 50.7726L1920 63.2202V101H1840C1760 101 1600 101 1440 101C1280 101 1120 101 960 101C800 101 640 101 480 101C320 101 160 101 80 101H0V75.8863Z" fill="#0099FF" fill-opacity="0.1"/>
<path fill-rule="evenodd" clip-rule="evenodd" d="M1920 75.8863L1840 77.8517C1760 80.0355 1600 84.1847 1440 75.8863C1280 67.3695 1120 46.405 960 29.8081C800 12.9928 640 0.326732 480 6.65976C320 12.9928 160 38.1065 80 50.7726L0 63.2202V101H80C160 101 320 101 480 101C640 101 800 101 960 101C1120 101 1280 101 1440 101C1600 101 1760 101 1840 101H1920V75.8863Z" fill="#0099FF" fill-opacity="0.1"/>
<path fill-rule="evenodd" clip-rule="evenodd" d="M0 0L80 10.5163C160 21.0325 320 42.0651 480 56.744C640 71.6421 800 79.9675 960 73.6139C1120 67.2603 1280 46.2278 1440 42.0651C1600 37.9024 1760 50.6095 1840 56.744L1920 63.0976V101H1840C1760 101 1600 101 1440 101C1280 101 1120 101 960 101C800 101 640 101 480 101C320 101 160 101 80 101H0V0Z" fill="#0099FF" fill-opacity="0.1"/>
</svg>
