<svg width="40" height="40" viewBox="0 0 40 40" fill="none" xmlns="http://www.w3.org/2000/svg">
<g clip-path="url(#clip0)">
<path d="M23.6285 34.5822C23.6285 36.5899 22.0008 38.2174 19.9933 38.2174C17.9855 38.2174 16.358 36.5899 16.358 34.5822C16.358 32.5746 17.9855 30.9472 19.9933 30.9472C22.0008 30.9472 23.6285 32.5746 23.6285 34.5822Z" fill="#0784FF"/>
<path d="M34.5338 38.2174L19.9933 36.3998L5.45262 38.2174C3.44509 38.2174 1.81763 36.5899 1.81763 34.5822V10.9539C1.81763 8.94609 3.44509 7.31863 5.45262 7.31863L16.3581 5.50101C18.3659 5.50101 19.9933 7.12847 19.9933 9.13624C19.9933 7.12847 21.6208 5.50101 23.6286 5.50101L34.5338 7.31863C36.5416 7.31863 38.169 8.94609 38.169 10.9539V34.5822C38.169 36.5899 36.5416 38.2174 34.5338 38.2174Z" fill="#0784FF"/>
<path d="M2.72644 32.749C2.22437 32.749 1.81763 33.1558 1.81763 33.6578V34.5822C1.81763 36.5899 3.44509 38.2174 5.45287 38.2174L17.1 36.7614C17.7813 37.6755 18.8534 38.2149 19.9933 38.2174H20.0334L20.0377 38.2171H20.0482L20.0532 38.2169H20.0554L20.0627 38.2166H20.0729L20.0775 38.2164H20.0804L20.0848 38.2162H20.0923L20.0954 38.2159H20.0996L20.1027 38.2157H20.1071L20.11 38.2154H20.1144L20.1173 38.2152H20.1226L20.1246 38.2149L20.1318 38.2147H20.134L20.1391 38.2145H20.142L20.1464 38.2142L20.1498 38.214H20.1537L20.1568 38.2137L20.1612 38.2135H20.1643L20.1685 38.2132L20.1716 38.213H20.1757L20.1789 38.2128L20.1835 38.2125L20.1862 38.2123L20.1922 38.212H20.1939L20.2007 38.2116H20.2031L20.2077 38.2113L20.2107 38.2111L20.2153 38.2108L20.2182 38.2106L20.2225 38.2103L20.2257 38.2101L20.2298 38.2099H20.233L20.2371 38.2096L20.2402 38.2094L20.2444 38.2089L20.2475 38.2086L20.2521 38.2084L20.2548 38.2082L20.2618 38.2077H20.2633L20.2691 38.2072L20.2718 38.2069L20.2764 38.2067L20.2793 38.2065L20.2837 38.206L20.2868 38.2057L20.2909 38.2055L20.2941 38.2052L20.298 38.205L20.3014 38.2048L20.3052 38.2043L20.3084 38.204L20.313 38.2038L20.321 38.2031L20.3227 38.2028L20.33 38.2021H20.3319L20.3399 38.2014L20.3443 38.2009L20.3474 38.2004L20.3516 38.2002L20.3547 38.1997L20.3586 38.1994L20.362 38.1992L20.3659 38.1987L20.369 38.1982L20.3732 38.198L20.3763 38.1975L20.3807 38.197L20.3836 38.1968L20.3887 38.1963L20.3911 38.196L20.3977 38.1953L20.4001 38.1948L20.4047 38.1943L20.4078 38.1941L20.412 38.1936L20.4149 38.1931L20.419 38.1926L20.4222 38.1924L20.4263 38.1919L20.4292 38.1914L20.4336 38.1909L20.4365 38.1905L20.4408 38.19L20.4437 38.1895L20.4481 38.189L20.4508 38.1888L20.4578 38.1878L20.4595 38.1875L20.4648 38.1868L20.468 38.1866L20.4719 38.1861L20.4753 38.1856L20.4792 38.1851L20.4823 38.1846L20.4864 38.1841L20.4896 38.1837L20.4935 38.1832L20.4966 38.1827L20.5005 38.182L20.5039 38.1817L20.5078 38.181L20.5107 38.1807L20.5155 38.18L20.518 38.1795L20.525 38.1786L20.5269 38.1783L20.5318 38.1776L20.542 38.1759L20.5461 38.1754L20.5492 38.1747L20.5531 38.1742L20.5563 38.1737L20.5602 38.173L20.5633 38.1725L20.5674 38.172L20.5706 38.1715L20.5747 38.1708L20.5776 38.1703L20.583 38.1693L20.5847 38.1691L20.5914 38.1679L20.5939 38.1677L20.5985 38.1667L20.6016 38.1662L20.6055 38.1655L20.6087 38.165L20.6125 38.1643L20.6157 38.1638L20.6196 38.163L20.6227 38.1626L20.6266 38.1618L20.6298 38.1613L20.6336 38.1606L20.6366 38.1601L20.6414 38.1592L20.6436 38.1587L20.6506 38.1575L20.6516 38.1572L20.6603 38.1558L20.6645 38.155L20.6674 38.1543L20.6715 38.1536L20.6746 38.1531L20.6785 38.1524L20.6817 38.1516L20.6856 38.1509L20.6887 38.1502L20.6926 38.1495L20.6955 38.149L20.6996 38.148L20.7025 38.1475L20.7067 38.1468L20.7096 38.1461L20.7161 38.1449L20.7193 38.1441L20.7231 38.1434L20.7263 38.1427L20.7302 38.1419L20.7333 38.1412L20.737 38.1405L20.7401 38.1398L20.744 38.139L20.7472 38.1383L20.751 38.1373L20.754 38.1368L20.7581 38.1359L20.761 38.1352L20.7651 38.1344L20.768 38.1337L20.7726 38.1327L20.7748 38.1322L20.7816 38.1308L20.7838 38.1303L20.7886 38.1291L20.7913 38.1286L20.7954 38.1276L20.8022 38.1259L20.8056 38.1252L20.8093 38.1245L20.8124 38.1238L20.816 38.1228L20.8194 38.1221L20.8228 38.1211L20.826 38.1204L20.8299 38.1194L20.8393 38.1172L20.8405 38.117L20.8464 38.1155L20.849 38.1148L20.8534 38.1138L20.8563 38.1131L20.8599 38.1121L20.8633 38.1114L20.867 38.1104L20.8701 38.1097L20.8738 38.1087L20.8769 38.108L20.8806 38.107L20.884 38.106L20.8871 38.1053L20.8944 38.1034L20.8975 38.1027L20.9041 38.101L20.9065 38.1002L20.9109 38.0993L20.914 38.0983L20.9177 38.0973L20.9211 38.0963L20.9242 38.0956L20.9279 38.0946L20.931 38.0937L20.9346 38.0927L20.9378 38.092L20.9412 38.0908L20.9446 38.09L20.9548 38.0871L20.9587 38.0862L20.9618 38.0852L20.9679 38.0835L20.9849 38.0786L20.988 38.0777L20.9916 38.0767L20.9948 38.076L20.9984 38.0748L21.0016 38.074L21.0052 38.0728L21.0084 38.0718L21.0118 38.0709L21.0149 38.0699L21.0186 38.0689L21.0217 38.068L21.0275 38.0663L21.0317 38.0651L21.0348 38.0641L21.0382 38.0631L21.0416 38.0619L21.0448 38.0609L21.0484 38.06L21.0516 38.059L21.0549 38.058L21.0581 38.0571L21.0748 38.0515L21.0777 38.0507L21.0816 38.0495L21.0831 38.049L21.0921 38.0461L21.0945 38.0454L21.101 38.0432L21.1044 38.042L21.1076 38.041L21.1112 38.0398L21.1139 38.0389L21.1178 38.0376L21.1396 38.0304C21.1444 38.0287 21.1493 38.027 21.1539 38.0253L21.1568 38.0246L21.1605 38.0231L21.1631 38.0221L21.167 38.0209L21.1697 38.0199L21.1736 38.0185L21.1762 38.0178L21.1799 38.0163L21.1893 38.0132L21.193 38.0117L21.1956 38.0107L21.1995 38.0093L21.201 38.0088L21.2111 38.0051L21.2121 38.0049L21.2162 38.0035L21.2187 38.0025L21.2225 38.001L21.225 38.0003L21.2289 37.9988L21.2315 37.9979L21.2354 37.9964L21.2381 37.9954L21.2419 37.994L21.2446 37.993L21.2483 37.9916L21.2509 37.9906L21.2548 37.9891L21.2572 37.9882C21.2626 37.9862 21.2677 37.9843 21.2728 37.9823L21.2735 37.9821L21.2781 37.9804L21.28 37.9794L21.2842 37.978L21.2863 37.977L21.2905 37.9756L21.2926 37.9746L21.2968 37.9729L21.2992 37.9722L21.3031 37.9705L21.3055 37.9695L21.3096 37.968L21.3113 37.9673L21.3159 37.9656L21.3171 37.9651C21.323 37.9627 21.3285 37.9605 21.3344 37.9581L21.3392 37.9562L21.3409 37.9557L21.3453 37.9537L21.3472 37.953L21.3513 37.9513L21.3535 37.9503L21.3576 37.9486L21.3598 37.9477L21.3642 37.946L21.3659 37.9452L21.3705 37.9433L21.3717 37.9428C21.3792 37.9397 21.3867 37.9365 21.3943 37.9331L21.3948 37.9329L21.3996 37.9309L21.4013 37.9302L21.4057 37.9283L21.4074 37.9275L21.4117 37.9256L21.4137 37.9249L21.418 37.9229L21.4197 37.9222L21.4241 37.9203L21.426 37.9195L21.4304 37.9176L21.4314 37.9171C21.4389 37.914 21.4462 37.9106 21.4534 37.9074L21.4547 37.9069L21.4593 37.9047L21.461 37.904L21.4653 37.9021L21.467 37.9013L21.4714 37.8992L21.4731 37.8984L21.4777 37.8962L21.4789 37.8958L21.4838 37.8936L21.4847 37.8931C21.4942 37.8887 21.5039 37.8844 21.5131 37.88L21.5136 37.8798L21.5187 37.8773L21.5199 37.8768L21.5248 37.8744L21.526 37.8739L21.5306 37.8718L21.532 37.871L21.5366 37.8688L21.5379 37.8684L21.5427 37.8659L21.5434 37.8654C21.5529 37.8611 21.5623 37.8562 21.5718 37.8516L21.5723 37.8514L21.5774 37.849L21.5832 37.846L21.5844 37.8456L21.589 37.8431L21.5958 37.8397C21.6072 37.8342 21.6184 37.8283 21.6295 37.8228L21.6305 37.8223L21.6351 37.8198L21.6366 37.8191L21.6412 37.8167L21.6421 37.8162L21.6472 37.8135L21.648 37.8133L21.6533 37.8104C21.6628 37.8053 21.6722 37.8004 21.6819 37.7954L21.6873 37.7924L21.6877 37.7922L21.6928 37.7893L21.6936 37.789L21.6989 37.7861L21.6991 37.7859L21.7047 37.783C21.72 37.7747 21.735 37.7665 21.7501 37.758C21.7685 37.7476 21.7869 37.7369 21.8051 37.7262C22.2373 37.4713 22.3812 36.9142 22.1263 36.4817C21.8721 36.051 21.3174 35.9064 20.8852 36.1587C20.615 36.318 20.3069 36.4012 19.9933 36.4002C19.4236 36.3978 18.8886 36.1257 18.5509 35.6668C18.1592 35.1478 17.5199 34.8776 16.8747 34.9583L5.35876 36.3978C4.39319 36.3466 3.63622 35.5494 3.63525 34.5826V33.6581C3.63525 33.1558 3.22826 32.749 2.72644 32.749ZM25.1559 35.2205C24.6538 35.2213 24.2475 35.6285 24.2483 36.1305C24.2488 36.5882 24.5898 36.9741 25.0438 37.0311L30.4875 37.7114L30.4899 37.7117L30.5241 37.716L30.5321 37.717L30.8156 37.7524L30.821 37.7531L30.829 37.7541L30.8316 37.7544L30.8486 37.7565L30.8612 37.7582L30.9056 37.7636L30.9185 37.7653L31.1675 37.7963L31.1782 37.7978L31.1913 37.7995L31.1991 37.8004L31.2066 37.8014L31.2085 37.8017L31.4048 37.8262L31.4091 37.8266L31.6155 37.8526H31.616L31.6655 37.8587L31.6694 37.8591L31.7033 37.8635L31.7084 37.864L31.77 37.8718L31.778 37.8727L31.7846 37.8737L31.8586 37.8829H31.8595L31.8833 37.8858L31.8847 37.8861L31.8961 37.8875L31.8976 37.8878L31.9209 37.8907L31.9255 37.8912L31.9328 37.8921L31.9347 37.8924L31.9689 37.8965L31.9839 37.8984L32.0053 37.9011L32.0101 37.9018L32.0201 37.903L32.0259 37.9038L32.0565 37.9076L32.0613 37.9081L32.0676 37.9089L32.088 37.9115L32.0945 37.9123L32.1091 37.914L32.1549 37.9198L32.1625 37.9207L32.1656 37.921L32.1828 37.9232L32.1928 37.9244L32.2105 37.9268L32.2175 37.9275L32.219 37.9278L32.2527 37.9319L32.2595 37.9329L32.2619 37.9331L32.2706 37.9343L32.2898 37.9368L32.3073 37.9387L32.3441 37.9433L32.3541 37.9448L32.3635 37.9457L32.3783 37.9477L32.3839 37.9484L32.3989 37.9501L32.4055 37.9511L32.4254 37.9535L32.431 37.9542L32.4746 37.9596L32.4974 37.9625L32.4986 37.9627L32.5183 37.9651L32.5243 37.9659L32.542 37.968L32.5454 37.9685L32.5658 37.9712L32.5692 37.9714L32.6694 37.984L32.6711 37.9843L32.6791 37.9853L32.6844 37.986L32.698 37.9877L32.7084 37.9889L32.7203 37.9904L32.7254 37.9911L32.746 37.9935L32.7531 37.9945L32.7926 37.9993L32.794 37.9996L32.8891 38.0115L32.9223 38.0156L32.9267 38.0163L32.943 38.0182L32.9476 38.0187L32.9546 38.0197L32.9808 38.0231L32.9859 38.0236L32.989 38.0241L33.0004 38.0253L33.04 38.0304L33.048 38.0313L33.0611 38.033L33.0705 38.0343L33.0756 38.0347L33.0907 38.0367L33.1154 38.0398L33.1292 38.0415L33.1375 38.0425L33.2139 38.0522H33.2151L33.293 38.0619H33.2937L33.3303 38.0665L33.3339 38.067L33.3405 38.068L33.3638 38.0709L33.3662 38.0711L33.372 38.0718L33.4072 38.0762L33.4086 38.0765L33.5168 38.0898L33.5202 38.0903L33.5893 38.099L33.6556 38.1073L33.6607 38.108L33.6662 38.1085L33.6667 38.1087C33.821 38.1279 33.958 38.1451 34.0754 38.1596L34.0771 38.1599L34.1251 38.166L34.1268 38.1662L34.1322 38.1669H34.1324C34.1947 38.1747 34.2503 38.1817 34.2993 38.1878H34.2995L34.4271 38.2035L34.4278 38.2038L34.5338 38.2171H34.5678L34.5714 38.2169H34.5864L34.592 38.2166H34.6051L34.6073 38.2164H34.6175L34.6199 38.2162H34.6262L34.6299 38.2159H34.6359L34.6388 38.2157H34.6449L34.6497 38.2154H34.651L34.6573 38.2152H34.6587L34.6633 38.2149H34.6655L34.6696 38.2147H34.6718L34.6757 38.2145H34.6781L34.6818 38.2142H34.6844L34.6878 38.214H34.6907L34.6941 38.2137H34.6968L34.7007 38.2135L34.7031 38.2132H34.7077L34.7092 38.213L34.7152 38.2128H34.7169L34.7215 38.2125L34.7235 38.2123H34.7274L34.73 38.212L34.7337 38.2118H34.7363L34.7397 38.2116L34.7426 38.2113L34.746 38.2111H34.7487L34.7521 38.2108L34.7548 38.2106L34.7586 38.2103H34.7608L34.7657 38.2099H34.7669L34.7732 38.2096L34.7742 38.2094L34.7793 38.2091L34.7812 38.2089L34.7853 38.2086L34.7878 38.2084L34.7916 38.2082L34.7941 38.2079L34.7977 38.2077H34.8001L34.804 38.2074L34.8064 38.2072L34.8103 38.2069L34.8122 38.2067L34.8166 38.2062H34.8186L34.8236 38.2057H34.8246L34.837 38.2048H34.8387L34.8428 38.2043L34.8455 38.204L34.8491 38.2038L34.8515 38.2035L34.8554 38.2033L34.8576 38.2031L34.8615 38.2028L34.8637 38.2026L34.8675 38.2021H34.87L34.8739 38.2016L34.8804 38.2009H34.8821L34.8942 38.1997H34.8957L34.9005 38.1992L34.902 38.1989L34.9066 38.1985L34.9085 38.1982L34.9129 38.1977L34.9146 38.1975L34.9187 38.1972L34.9209 38.197L34.925 38.1965L34.927 38.1963L34.9313 38.1958L34.933 38.1955L34.9379 38.1951H34.9391L34.9447 38.1943H34.9454L34.9515 38.1936H34.9522L34.9575 38.1929L34.9592 38.1926L34.9636 38.1921L34.9655 38.1919L34.9697 38.1914L34.9718 38.1912L34.9757 38.1907L34.9779 38.1905L34.9818 38.19L34.984 38.1897L34.9881 38.1892L34.99 38.189L34.9946 38.1885L34.9961 38.1883L35.0085 38.1866L35.0143 38.1858H35.0157L35.0206 38.1851L35.0223 38.1849L35.0264 38.1844L35.0284 38.1841L35.0325 38.1834L35.0347 38.1832L35.0388 38.1827L35.0405 38.1824L35.0448 38.1817L35.0468 38.1815L35.0514 38.181L35.0526 38.1807C35.0589 38.1798 35.065 38.1791 35.071 38.1781L35.072 38.1778L35.0771 38.1771L35.0786 38.1769L35.0832 38.1761L35.0846 38.1759L35.0892 38.1754L35.0909 38.1752L35.0951 38.1744L35.097 38.1742L35.1014 38.1735L35.1031 38.1732L35.1079 38.1725L35.1089 38.1723C35.1149 38.1713 35.1212 38.1703 35.1273 38.1691H35.128L35.1331 38.1681L35.139 38.1672L35.1409 38.1669L35.145 38.1662L35.1472 38.166L35.1511 38.1652L35.153 38.165L35.1571 38.1643L35.1593 38.1638L35.1634 38.163L35.1651 38.1628L35.17 38.1621L35.1712 38.1618L35.1833 38.1596L35.1838 38.1594L35.1892 38.1584L35.1909 38.1582L35.195 38.1575L35.1969 38.157L35.201 38.1563L35.203 38.156L35.2071 38.1553L35.209 38.1548L35.2134 38.1541L35.2151 38.1538L35.2197 38.1529L35.2209 38.1526L35.2263 38.1516L35.227 38.1514L35.2391 38.1492L35.2394 38.149L35.2449 38.148L35.2464 38.1478L35.251 38.1468L35.2525 38.1466L35.2571 38.1456L35.2585 38.1453L35.2631 38.1444L35.2643 38.1441L35.269 38.1432L35.2704 38.1429L35.2755 38.1419L35.2762 38.1417L35.2818 38.1405H35.2823L35.2944 38.1378H35.2947L35.3005 38.1366L35.3012 38.1364L35.3063 38.1354L35.3078 38.1349L35.3124 38.1339L35.3136 38.1337L35.3179 38.1327L35.3199 38.1325L35.324 38.1315L35.3257 38.1313L35.3303 38.1301L35.3315 38.1298L35.3366 38.1288L35.3374 38.1286L35.3432 38.1271H35.3434L35.3555 38.1245L35.3563 38.1242L35.3614 38.123L35.3626 38.1228L35.3672 38.1218L35.3689 38.1213L35.373 38.1204L35.3747 38.1199L35.3788 38.1189L35.3808 38.1184L35.3849 38.1174L35.3866 38.117L35.391 38.116L35.3924 38.1157C35.3982 38.1143 35.4043 38.1128 35.4101 38.1114L35.4108 38.1111L35.4159 38.1099L35.4174 38.1094L35.4218 38.1085L35.4235 38.108L35.4276 38.107L35.4295 38.1065L35.4336 38.1053L35.4353 38.1051L35.4395 38.1039L35.4412 38.1034L35.4458 38.1024L35.4467 38.1019L35.4523 38.1005H35.4526L35.4647 38.0973H35.4649L35.4705 38.0959L35.4715 38.0956L35.4761 38.0944L35.4778 38.0939L35.4819 38.0927L35.4836 38.0922L35.4877 38.0913L35.4894 38.0908L35.4938 38.0896L35.4955 38.0891L35.4996 38.0879L35.5011 38.0876L35.5064 38.0862L35.5069 38.0859L35.5188 38.0825H35.5193L35.5246 38.0811L35.5258 38.0806L35.5302 38.0794L35.5319 38.0789L35.5358 38.0777L35.5379 38.0772L35.5418 38.076L35.5435 38.0755L35.5479 38.0743L35.5493 38.0738L35.5539 38.0723L35.5549 38.0721L35.5598 38.0706L35.5607 38.0704C35.5666 38.0687 35.5724 38.067 35.5782 38.0653L35.5792 38.0651L35.5838 38.0636L35.5855 38.0631L35.5898 38.0619L35.5911 38.0614L35.5954 38.0602L35.5969 38.0597L35.6015 38.0583L35.6025 38.058L35.6073 38.0566L35.6083 38.0561L35.6139 38.0546L35.6141 38.0544C35.6197 38.0527 35.6255 38.0507 35.6313 38.049L35.6386 38.0466L35.6427 38.0454L35.6444 38.0447L35.6485 38.0435L35.6502 38.043L35.6541 38.0415L35.6558 38.041L35.6599 38.0396L35.6616 38.0391L35.6658 38.0376L35.6672 38.0374L35.6723 38.0357L35.6728 38.0355L35.6786 38.0335H35.6789L35.6842 38.0316L35.6854 38.0313L35.69 38.0296L35.6917 38.0292L35.6956 38.0279L35.6975 38.0272L35.7034 38.0253L35.7067 38.0241L35.7089 38.0233L35.7123 38.0221L35.7145 38.0214L35.7179 38.0202L35.7201 38.0195L35.7232 38.0182L35.7259 38.0173L35.7305 38.0158L35.7329 38.0149L35.7368 38.0136L35.7388 38.0129L35.7424 38.0115L35.7448 38.0107L35.7477 38.0098L35.7504 38.0088L35.7536 38.0076L35.756 38.0068L35.7591 38.0056L35.7616 38.0049L35.7647 38.0037L35.7671 38.0027L35.7703 38.0015L35.7727 38.0008L35.7764 37.9996L35.7781 37.9988L35.7892 37.9947L35.7909 37.994L35.7945 37.9928L35.797 37.9918L35.8001 37.9906L35.8026 37.9899L35.8057 37.9887L35.8081 37.9877L35.811 37.9867L35.8137 37.9855L35.8164 37.9845L35.8193 37.9836L35.8246 37.9816L35.8278 37.9804L35.8302 37.9794L35.8336 37.978L35.8365 37.977L35.8411 37.9753L35.8433 37.9743L35.8465 37.9731L35.8489 37.9722L35.852 37.9712L35.8545 37.97L35.8576 37.969L35.86 37.968L35.8629 37.9668L35.8656 37.9659L35.8683 37.9646L35.8709 37.9637L35.8739 37.9625L35.8765 37.9615L35.8792 37.9603L35.8819 37.9593L35.8845 37.9581L35.8891 37.9564L35.8925 37.9549L35.8957 37.9537L35.8979 37.9528L35.9013 37.9515L35.9032 37.9506L35.9064 37.9494L35.9085 37.9484L35.9119 37.9472L35.9139 37.9462L35.917 37.945L35.9192 37.944L35.9226 37.9428L35.9245 37.9418L35.9277 37.9406L35.9299 37.9397L35.9333 37.9382L35.9347 37.9377C35.9389 37.9358 35.9427 37.9343 35.9469 37.9324L35.949 37.9317L35.9522 37.9302L35.9541 37.9295L35.9575 37.928L35.9595 37.9271L35.9629 37.9256L35.9648 37.9249L35.9682 37.9234L35.9701 37.9227L35.9752 37.9205L35.9789 37.9188L35.9803 37.9183L35.9842 37.9166L35.9849 37.9161C35.9915 37.9135 35.998 37.9106 36.0046 37.9076L36.009 37.9057L36.0099 37.9052L36.014 37.9033L36.015 37.903L36.0191 37.9011L36.0204 37.9006L36.0242 37.8987L36.0254 37.8982L36.0293 37.8962L36.0303 37.896C36.04 37.8914 36.0499 37.887 36.0596 37.8824H36.0599L36.0645 37.8802L36.0693 37.8778L36.0701 37.8776L36.0747 37.8754H36.0749C36.0866 37.8698 36.098 37.8645 36.1096 37.8589L36.1145 37.8565H36.1147L36.1193 37.8543L36.1198 37.854C36.578 37.6311 36.9845 37.3149 37.3129 36.9254C37.6352 36.5404 37.5843 35.9673 37.1994 35.645C36.8159 35.3241 36.2452 35.3733 35.9224 35.7548C35.5983 36.139 35.1295 36.3716 34.6274 36.3973L25.2694 35.2276C25.2318 35.2227 25.1937 35.2205 25.1559 35.2205Z" fill="#005EEE"/>
<path d="M3.63524 5.50101H36.3514C38.3592 5.50101 39.9867 7.12847 39.9867 9.13624V30.9472C39.9867 32.9547 38.3592 34.5822 36.3514 34.5822H3.63524C1.62747 34.5822 0 32.9547 0 30.9472V9.13624C0 7.12847 1.62747 5.50101 3.63524 5.50101Z" fill="#B8C2FF"/>
<path d="M37.2602 7.31863C38.7659 7.31863 39.9866 8.53936 39.9866 10.0451V30.0384C39.9866 31.5441 38.7659 32.7648 37.2602 32.7648C35.7545 32.7648 34.5338 31.5441 34.5338 30.0384V10.0451C34.5338 8.53936 35.7545 7.31863 37.2602 7.31863Z" fill="#7388FF"/>
<path d="M19.9933 34.5822L5.09099 33.092C3.23262 32.9062 1.81763 31.3425 1.81763 29.4749V7.70015C1.81763 5.69262 3.44509 4.06516 5.45262 4.06516C5.57341 4.06516 5.6942 4.07122 5.8145 4.0831L19.9933 5.50101V34.5822Z" fill="#DFE5FF"/>
<path d="M19.9933 34.5822L34.8957 33.092C36.7538 32.9062 38.169 31.3425 38.169 29.4749V7.70015C38.169 5.69262 36.5416 4.06516 34.5338 4.06516C34.413 4.06516 34.2924 4.07122 34.1721 4.0831L19.9933 5.50101V34.5822Z" fill="#CCD4FF"/>
<path d="M34.5337 5.50101C33.5301 5.50101 32.7163 6.31474 32.7161 7.31838C32.7161 7.31863 32.7161 7.31863 32.7161 7.31863V29.1296H25.4459C24.4422 29.1298 23.6287 29.944 23.629 30.9479C23.6295 31.9511 24.4427 32.7643 25.4459 32.7645H32.7161C34.7239 32.7645 36.3513 31.1371 36.3513 29.1296V7.31863C36.3513 6.31474 35.5376 5.50101 34.5339 5.50101C34.5339 5.50101 34.5339 5.50101 34.5337 5.50101Z" fill="#B8C2FF"/>
<path d="M19.9933 3.68338L8.6513 1.85072C7.78008 1.74182 6.90717 2.04136 6.28626 2.66227C5.75242 3.19611 5.45264 3.91986 5.45264 4.67441V27.6935C5.45264 29.5458 6.84556 31.1019 8.68647 31.3064L19.9933 32.7646V3.68338Z" fill="#EFF2FF"/>
<path d="M19.9933 3.68338L31.3354 1.83545C32.2066 1.72654 33.0795 2.02584 33.7004 2.647C34.2342 3.18059 34.534 3.90434 34.534 4.65913V27.3343C34.534 29.1866 33.1411 30.7425 31.3002 30.9472L19.9933 32.7648V3.68338Z" fill="#DFE5FF"/>
<path d="M21.8109 3.68338C22.8145 3.68338 23.6285 4.49711 23.6285 5.501V30.9472C23.6285 31.9508 22.8148 32.7646 21.8109 32.7646C20.807 32.7646 19.9933 31.9508 19.9933 30.9472V5.501C19.9933 4.49711 20.807 3.68338 21.8109 3.68338Z" fill="#CCD4FF"/>
<path d="M20.9021 5.50101C21.4039 5.50101 21.8109 5.90799 21.8109 6.40982V30.0384C21.8109 30.5402 21.4039 30.9472 20.9021 30.9472C20.4003 30.9472 19.9933 30.5402 19.9933 30.0384V6.40982C19.9933 5.90799 20.4003 5.50101 20.9021 5.50101Z" fill="#A4B1FF"/>
<path d="M25.4459 3.68338C26.4498 3.68338 27.2635 4.49711 27.2635 5.501V20.0417C27.2635 21.0454 26.4498 21.8591 25.4462 21.8591C24.4423 21.8591 23.6285 21.0454 23.6285 20.0417V5.501C23.6285 4.49711 24.4423 3.68338 25.4459 3.68338Z" fill="#A4B1FF"/>
<path d="M17.2679 21.8593C17.2078 21.8593 17.1476 21.8535 17.0887 21.8414L8.00083 20.0237C7.50871 19.9253 7.18952 19.4465 7.28824 18.9544C7.38671 18.4623 7.86549 18.1433 8.35761 18.2418L17.4455 20.0594C17.9376 20.1579 18.2565 20.6369 18.1581 21.1288C18.0732 21.5532 17.7006 21.8588 17.2679 21.8593Z" fill="#002755"/>
<path d="M17.2679 16.4082C17.2078 16.4084 17.1476 16.4024 17.0887 16.3905L8.00083 14.5729C7.50871 14.4744 7.18952 13.9956 7.28824 13.5035C7.38671 13.0114 7.86549 12.6922 8.35761 12.7909L17.4455 14.6085C17.9376 14.707 18.2565 15.1858 18.1581 15.6779C18.0732 16.1021 17.7006 16.4077 17.2679 16.4082Z" fill="#002755"/>
<path d="M17.2679 10.9538C17.2078 10.9538 17.1476 10.948 17.0887 10.9359L12.5446 10.0273C12.0525 9.92862 11.7336 9.44984 11.8321 8.95772C11.9245 8.46972 12.3952 8.14908 12.8832 8.24148C12.8893 8.2427 12.8954 8.24391 12.9017 8.24512L17.4455 9.15393C17.9376 9.25241 18.2568 9.73119 18.1581 10.2233C18.0732 10.6478 17.7006 10.9534 17.2679 10.9538Z" fill="#002755"/>
<path d="M17.2679 27.3129C17.2078 27.3131 17.1476 27.3073 17.0887 27.2952L8.00084 25.4778C7.50872 25.3786 7.19026 24.8994 7.28946 24.4075C7.38842 23.9163 7.86623 23.5979 8.35763 23.6956L17.4455 25.5132C17.9374 25.6117 18.2565 26.0905 18.1581 26.5826C18.0732 27.0071 17.7006 27.3127 17.2679 27.3129Z" fill="#002755"/>
<path d="M22.7188 21.8593C22.2169 21.8588 21.8104 21.4514 21.8109 20.9495C21.8114 20.5168 22.117 20.1443 22.5412 20.0594L31.6291 18.2418C32.1212 18.1433 32.6 18.4623 32.6984 18.9544C32.7969 19.4465 32.478 19.9253 31.9858 20.0237L22.898 21.8414C22.8391 21.8535 22.7789 21.8593 22.7188 21.8593Z" fill="#002755"/>
<path d="M22.7188 16.4082C22.2169 16.4077 21.8104 16.0005 21.8109 15.4984C21.8114 15.0657 22.117 14.6932 22.5412 14.6083L31.6291 12.7906C32.1212 12.6922 32.6 13.0113 32.6987 13.5035C32.7972 13.9954 32.478 14.4744 31.9859 14.5729L22.898 16.3905C22.8391 16.4024 22.7789 16.4084 22.7188 16.4082Z" fill="#002755"/>
<path d="M22.7188 10.9539C22.2169 10.9534 21.8104 10.5459 21.8109 10.0441C21.8114 9.61138 22.117 9.23884 22.5412 9.15395L31.6291 7.33633C32.1212 7.23786 32.6 7.5568 32.6984 8.04892C32.7969 8.54104 32.478 9.01982 31.9858 9.11853L22.898 10.9359C22.8391 10.948 22.7789 10.9539 22.7188 10.9539Z" fill="#002755"/>
<path d="M22.7188 27.3129C22.2169 27.3124 21.8104 26.9052 21.8109 26.4034C21.8114 25.9707 22.117 25.5982 22.5412 25.5133L31.6291 23.6956C32.1215 23.5977 32.5997 23.9173 32.6977 24.4094C32.7955 24.9008 32.477 25.3786 31.9859 25.4776L22.898 27.2952C22.8391 27.3074 22.7789 27.3132 22.7188 27.3129Z" fill="#002755"/>
<path d="M23.6285 1.86575C24.6322 1.86575 25.4459 2.67949 25.4459 3.68337V18.2241C25.4459 19.2277 24.6322 20.0415 23.6285 20.0415C22.6246 20.0415 21.8109 19.2277 21.8109 18.2241V3.68337C21.8109 2.67973 22.6246 1.86575 23.6285 1.86575Z" fill="#FFD700"/>
<path d="M10.9054 7.31862C10.9054 8.32251 10.0917 9.13624 9.08782 9.13624C8.08393 9.13624 7.2702 8.32251 7.2702 7.31862C7.2702 6.31474 8.08393 5.50101 9.08782 5.50101C10.0917 5.50101 10.9054 6.31474 10.9054 7.31862Z" fill="#002755"/>
</g>
<defs>
<clipPath id="clip0">
<rect width="40" height="40" fill="white"/>
</clipPath>
</defs>
</svg>
