<svg width="40" height="40" viewBox="0 0 40 40" fill="none" xmlns="http://www.w3.org/2000/svg">
<g clip-path="url(#clip0)">
<path d="M40 19.9933C40 31.0353 31.0487 39.9866 20.0069 39.9866C8.9649 39.9866 0.0136108 31.0353 0.0136108 19.9933C0.0136108 8.95132 8.9649 3.05176e-05 20.0069 3.05176e-05C31.0487 3.05176e-05 40 8.95132 40 19.9933Z" fill="#0784FF"/>
<path d="M15.3579 32.3807L17.9725 28.9184C18.7115 27.4401 20.5093 26.841 21.9873 27.58C22.0984 27.6356 22.2058 27.6979 22.3092 27.7668C23.6841 28.6836 24.056 30.5415 23.1391 31.9167C23.1083 31.9628 23.0763 32.0079 23.0431 32.0523L20.007 35.2538C19.0977 36.4661 17.378 36.7118 16.1658 35.8025C16.062 35.7246 15.9638 35.6395 15.8721 35.5478C15.037 34.7127 14.8299 33.4369 15.3579 32.3807Z" fill="#005EEE"/>
<path d="M2.58397 24.3812C3.58761 23.3775 5.21532 23.3775 6.21896 24.3812L8.03658 26.1988C9.04047 27.2027 9.04047 28.8301 8.03658 29.834C7.03269 30.8379 5.40523 30.8379 4.40134 29.834L2.58397 28.0164C1.58008 27.0125 1.58008 25.385 2.58397 24.3812Z" fill="#005EEE"/>
<path d="M10.9639 13.6319C13.0209 12.0696 15.9155 12.2666 17.7418 14.0929L20.3111 16.6624C21.28 17.6314 21.8243 18.9455 21.8243 20.3156V27.2635C21.8243 29.271 23.4518 30.8985 25.4595 30.8985C27.4671 30.8985 29.0945 29.271 29.0945 27.2635V3.63522H12.7364L6.42013 9.08783C5.16521 10.3425 5.16521 12.3769 6.42013 13.6316C6.56954 13.7813 6.73374 13.9159 6.90958 14.0333C8.18415 14.8827 9.88098 14.7148 10.9639 13.6319Z" fill="#005EEE"/>
<path d="M20.007 7.27023H19.9139L19.9054 7.27048H19.8741L19.8705 7.27072H19.8545L19.8503 7.27096H19.8402L19.8348 7.2712H19.8208L19.8142 7.27145H19.8043L19.8009 7.27169C19.7941 7.27169 19.788 7.27169 19.7812 7.27193H19.7713L19.7684 7.27217H19.7579L19.7516 7.27242H19.7482L19.7417 7.27266H19.7317L19.7283 7.2729H19.7182L19.7118 7.27314H19.7087L19.7014 7.27339H19.6985L19.6905 7.27363H19.6888L19.6791 7.27387L19.6752 7.27411L19.6689 7.27436H19.666L19.6592 7.2746H19.6556L19.6493 7.27484H19.6456L19.6396 7.27508L19.6354 7.27533H19.6296L19.6255 7.27557L19.6197 7.27581H19.6158L19.61 7.27605L19.6059 7.2763H19.6005L19.5959 7.27654L19.5901 7.27678H19.5862L19.5772 7.27702L19.5738 7.27727L19.5668 7.27751H19.5632L19.5569 7.27775L19.5525 7.27799L19.5474 7.27824H19.5428L19.5375 7.27848L19.5329 7.27872L19.5278 7.27896L19.5232 7.27921H19.5178L19.5132 7.27945L19.5035 7.27993L19.4979 7.28018H19.4938L19.4865 7.28042L19.4843 7.28066L19.4766 7.28091H19.4742L19.4645 7.28139L19.4625 7.28163L19.4548 7.28188L19.4511 7.28212L19.4451 7.28236H19.4404L19.4356 7.2826L19.4305 7.28285L19.4208 7.28333L19.4157 7.28357L19.4116 7.28382L19.4058 7.28406L19.4016 7.2843L19.3963 7.28454L19.3917 7.28479L19.3866 7.28503L19.3817 7.28527L19.3774 7.28551L19.3723 7.28576H19.3682L19.3563 7.28648H19.3531L19.3475 7.28697L19.3434 7.28721L19.3386 7.28745L19.3335 7.2877L19.3286 7.28794L19.324 7.28818L19.3189 7.28842L19.3143 7.28867L19.309 7.28891L19.3046 7.28915L19.2995 7.28939L19.2947 7.28964L19.2896 7.28988L19.2847 7.29012L19.2801 7.29036L19.275 7.29061L19.2702 7.29085C19.2673 7.29109 19.2644 7.29133 19.2614 7.29133H19.2607L19.251 7.29206L19.2479 7.2923L19.2413 7.29255L19.2372 7.29279L19.2319 7.29303L19.227 7.29352L19.2219 7.29376L19.2171 7.294L19.2125 7.29424L19.2076 7.29473L19.2025 7.29497L19.1977 7.29522L19.1933 7.29594L19.188 7.29619L19.1836 7.29643L19.1783 7.29691L19.1741 7.29716L19.1686 7.2974L19.1642 7.29788L19.1589 7.29813L19.1547 7.29837C19.1513 7.29861 19.1477 7.29885 19.1443 7.2991L19.1402 7.29934L19.1346 7.29958L19.1305 7.30007L19.1249 7.30031L19.1208 7.30055L19.1157 7.30104L19.1108 7.30128L19.1057 7.30152L19.1016 7.30201L19.0963 7.30225L19.0917 7.30273L19.0863 7.30298L19.082 7.30322L19.0769 7.3037L19.0723 7.30395L19.0672 7.30443L19.063 7.30467L19.0575 7.30516L19.0543 7.3054C19.0502 7.30564 19.0456 7.30589 19.0412 7.30637H19.0388L19.0318 7.3071H19.0293L19.0225 7.30783L19.0199 7.30807L19.0133 7.30855L19.0102 7.3088L19.0044 7.30928L19.0002 7.30953L18.9949 7.31001L18.9908 7.31025L18.9854 7.31074L18.9808 7.31098L18.976 7.31147L18.9711 7.31171L18.9663 7.31219L18.9614 7.31244L18.9566 7.31292L18.9534 7.31316C18.9461 7.31389 18.9396 7.31438 18.9323 7.31486L18.9282 7.31535L18.9224 7.31583L18.9187 7.31607L18.9129 7.31656L18.909 7.3168L18.9037 7.31729L18.8945 7.31826L18.8896 7.31874L18.8845 7.31898L18.8802 7.31947L18.8748 7.31995L18.8707 7.3202L18.8654 7.32092L18.861 7.32117L18.8559 7.32165L18.8501 7.32214L18.8465 7.32238C18.8397 7.32311 18.8341 7.32359 18.8273 7.32432L18.8241 7.32456L18.8171 7.32505L18.8147 7.32529L18.8079 7.32602L18.804 7.3265L18.7984 7.32699L18.7936 7.32747L18.789 7.32772L18.7839 7.3282L18.7793 7.32869L18.7647 7.33014L18.7596 7.33063L18.7553 7.33111L18.7499 7.3316L18.7456 7.33208L18.7402 7.33257L18.7359 7.33305L18.7332 7.33329L18.7201 7.33451L18.7172 7.33475L18.7111 7.33548L18.708 7.33572L18.7019 7.3362L18.6983 7.33669L18.6927 7.33717L18.6886 7.33766L18.6832 7.33815L18.6789 7.33863L18.6738 7.33912L18.6692 7.3396L18.6641 7.34009L18.6597 7.34057L18.6546 7.34106L18.6505 7.34154L18.6447 7.34227L18.6415 7.34251L18.6352 7.34324L18.6337 7.34348C18.6284 7.34397 18.6228 7.34445 18.6175 7.34518H18.6168L18.6109 7.34591L18.6073 7.34615L18.602 7.34688L18.5976 7.34736L18.5925 7.34785L18.5881 7.34833L18.5828 7.34906L18.5787 7.3493L18.5734 7.35003L18.569 7.35051L18.5639 7.351L18.5595 7.35149L18.5542 7.35221L18.5506 7.3527L18.5445 7.35318L18.5409 7.35367L18.5353 7.3544L18.5299 7.35488L18.5258 7.35537L18.5166 7.35658L18.5113 7.35706L18.5071 7.35755L18.502 7.35828L18.4928 7.35925L18.488 7.35973L18.4831 7.36046L18.4734 7.36143L18.4691 7.36191L18.4637 7.36264L18.4594 7.36313L18.4545 7.36361L18.4497 7.36434L18.4448 7.36482L18.4407 7.36531L18.4353 7.36604L18.432 7.36652L18.4089 7.36943H18.4075L18.4009 7.3704L18.398 7.37065L18.3917 7.37162L18.3888 7.37186L18.3827 7.37259L18.3788 7.37307L18.3735 7.3738L18.3696 7.37428L18.364 7.37501L18.3599 7.3755L18.3546 7.37622L18.3505 7.37671L18.3451 7.37744L18.3408 7.37816L18.3357 7.37889L18.3313 7.37938L18.3262 7.38011L18.3223 7.38059C18.3182 7.38108 18.3136 7.38156 18.3095 7.38229L18.3078 7.38253L18.3019 7.38326L18.2983 7.38374L18.293 7.38447L18.2886 7.38496L18.2838 7.38568L18.2791 7.38617L18.2743 7.3869L18.2697 7.38738L18.2646 7.38811L18.2602 7.38884L18.2551 7.38956L18.251 7.39005L18.2454 7.39078L18.2413 7.3915L18.2365 7.39223L18.2316 7.39272L18.2231 7.39393L18.2173 7.3949L18.2161 7.39514L18.2015 7.39708L18.1989 7.39757L18.1928 7.3983L18.1896 7.39878L18.1838 7.39975L18.1799 7.40024L18.1749 7.40096L18.1705 7.40145L18.1654 7.40242L18.161 7.4029L18.1555 7.40363L18.146 7.40509L18.1431 7.40557L18.1368 7.40654L18.1341 7.40703L18.1273 7.408L18.1249 7.40824C18.1147 7.4097 18.104 7.41139 18.0938 7.41309L18.0904 7.41358L18.0846 7.4143L18.0812 7.41479L18.0747 7.416L18.0723 7.41624L18.0655 7.41721L18.0628 7.4177L18.047 7.42012L18.0441 7.42061L18.0378 7.42158L18.0351 7.42206L18.0284 7.42304L18.0262 7.42328L18.0194 7.42449L18.0162 7.42498C18.0058 7.42667 17.9959 7.42813 17.9854 7.42983L17.9823 7.43031L17.9769 7.43128L17.9731 7.43177L17.9675 7.43274L17.9636 7.43322L17.958 7.43419L17.9544 7.43468L17.9488 7.43565L17.9447 7.43637L17.9393 7.4371L17.9359 7.43783L17.9299 7.4388L17.927 7.43929L17.9204 7.44026L17.9182 7.4405C17.9078 7.44244 17.8971 7.44414 17.8867 7.44583L17.8838 7.44632L17.8782 7.44729L17.8746 7.44777L17.8688 7.44874L17.8651 7.44947L17.8598 7.45044L17.8559 7.45117L17.8501 7.45214L17.8467 7.45263L17.8409 7.4536L17.8377 7.45408L17.8312 7.45529L17.829 7.45554L17.8222 7.45675L17.8195 7.45723L17.8127 7.45845L17.8118 7.45869C17.8001 7.46063 17.7887 7.46257 17.7771 7.46451L17.7768 7.46475L17.7693 7.46597L17.7674 7.46645L17.7599 7.46766L17.7511 7.46912L17.7489 7.4696L17.7419 7.47082L17.7397 7.4713L17.7332 7.47251L17.7305 7.473L17.7237 7.47421L17.7218 7.47445L17.7145 7.47591L17.7138 7.47615C17.7024 7.47809 17.6905 7.48028 17.6793 7.48222L17.6784 7.48246L17.6716 7.48367L17.6631 7.48537L17.6597 7.48585L17.6536 7.48707L17.6507 7.48755L17.6442 7.48901L17.6417 7.48949C17.6396 7.48973 17.6369 7.49022 17.6347 7.4907L17.6328 7.49095L17.6257 7.4924L17.6238 7.49264L17.6163 7.4941L17.616 7.49434C17.6012 7.49701 17.5869 7.49968 17.5721 7.50259H17.5717C17.5687 7.50332 17.5663 7.5038 17.5634 7.50429H17.5627L17.5549 7.50598L17.5535 7.50623L17.5459 7.50768L17.5445 7.50793L17.537 7.50938L17.5353 7.50987L17.5278 7.51132H17.5268L17.5188 7.51302L17.518 7.51326C17.4943 7.51787 17.4715 7.52248 17.448 7.52733H17.4472C17.4414 7.52854 17.4358 7.52975 17.4298 7.53097C17.4062 7.53582 17.383 7.54067 17.3592 7.54576C17.3589 7.54576 17.3594 7.54552 17.3589 7.54576L17.3505 7.54746H17.3502L17.342 7.5494L17.341 7.54964L17.3327 7.55134H17.3323C17.3293 7.55207 17.3269 7.55255 17.3238 7.55328H17.3235C17.3 7.55837 17.2767 7.56347 17.2532 7.56856L17.2445 7.5705C17.244 7.5705 17.2447 7.5705 17.2445 7.5705L17.2362 7.5722L17.235 7.57244C12.0747 8.72792 8.16511 12.9523 7.41177 18.1864C7.12896 20.174 8.51097 22.0147 10.4986 22.2975C12.486 22.5803 14.3267 21.1983 14.6095 19.2106C14.6095 19.2104 14.6097 19.2096 14.6097 19.2094C15.006 16.5317 17.3007 14.5465 20.0075 14.5397C20.5256 14.539 21.0412 14.6118 21.5389 14.7558C23.4664 15.3168 25.4839 14.2089 26.0449 12.2812C26.6056 10.3542 25.4987 8.33742 23.5722 7.77569C23.4618 7.74343 23.351 7.71287 23.2394 7.68353L23.2384 7.68328C23.2299 7.6811 23.2212 7.67892 23.2127 7.67673L23.2113 7.67625L23.1991 7.6731H23.1984L23.1853 7.66946H23.1851L23.1732 7.66655L23.1708 7.66582C23.1628 7.66388 23.1545 7.6617 23.1465 7.65976L23.1429 7.65879C23.1397 7.65806 23.1366 7.65733 23.1334 7.65636L23.1307 7.65563L23.1191 7.65272L23.1159 7.652C23.1128 7.65127 23.1099 7.65054 23.1067 7.64981L23.1031 7.6486L23.0917 7.64593L23.0885 7.6452L23.0798 7.64302L23.0754 7.64181C23.0725 7.64132 23.0699 7.6406 23.0672 7.63987L23.0631 7.6389C23.0594 7.63793 23.0558 7.63696 23.0522 7.63623L23.0475 7.63502L23.0405 7.63332L23.0352 7.63211C23.032 7.63114 23.0286 7.63041 23.0255 7.62968L23.0197 7.62823L23.0129 7.62677L23.007 7.62532L23.001 7.62386L22.9922 7.62168L22.9857 7.61998L22.9789 7.61852L22.9653 7.61513C22.9602 7.61392 22.9554 7.61295 22.9503 7.61149L22.9466 7.61076L22.9391 7.60882L22.936 7.6081C22.9306 7.60688 22.9258 7.60591 22.9205 7.6047L22.9185 7.60421L22.9105 7.60227L22.9078 7.60155C22.8991 7.59961 22.8911 7.59767 22.8821 7.59573L22.8795 7.595L22.871 7.59306H22.8707C22.861 7.59087 22.8521 7.58893 22.8424 7.58651L22.8414 7.58627C22.3621 7.47736 21.8768 7.39636 21.3883 7.34348H21.3881C21.3648 7.34106 21.342 7.33863 21.3185 7.3362H21.3175C21.3083 7.33523 21.2983 7.33426 21.2891 7.33329L21.2874 7.33305C21.2743 7.33184 21.2615 7.33038 21.2484 7.32917H21.2469C21.2379 7.3282 21.2282 7.32723 21.219 7.3265L21.2168 7.32626L21.1889 7.32359L21.1868 7.32432C21.1834 7.32408 21.1809 7.32384 21.1778 7.32335H21.1761C21.1671 7.32238 21.1576 7.32165 21.1484 7.32068L21.1455 7.32044C21.1363 7.31971 21.1276 7.31898 21.1184 7.31801L21.1162 7.31777C21.1135 7.31753 21.1099 7.31729 21.1074 7.31704L21.105 7.3168L21.0873 7.31535H21.0863L21.0781 7.31462L21.0747 7.31438C21.0655 7.31365 21.0572 7.31292 21.048 7.31219L21.0451 7.31195L21.0366 7.31122H21.0344C21.0289 7.31074 21.0238 7.31025 21.0182 7.30977L21.0155 7.30953L21.0075 7.30904L21.0034 7.30855C20.9949 7.30807 20.9867 7.30734 20.9782 7.30661L20.9738 7.30637L20.9663 7.30589L20.9619 7.30564L20.9486 7.30443L20.9445 7.30419L20.9367 7.3037L20.9326 7.30346L20.9178 7.30225L20.9149 7.30201L20.9078 7.30152L20.9027 7.30128L20.8955 7.30079L20.8901 7.30031L20.8785 7.29958L20.8731 7.2991L20.8661 7.29861L20.8605 7.29837L20.8508 7.29764L20.8436 7.29716L20.837 7.29667L20.8309 7.29643L20.8249 7.29594C20.8222 7.2957 20.8198 7.2957 20.8174 7.29546L20.8077 7.29497L20.8018 7.29449L20.7953 7.294L20.7887 7.29376L20.7803 7.29327L20.7722 7.29279L20.7662 7.2923L20.7596 7.29206L20.7536 7.29158L20.7424 7.29085L20.7376 7.29061L20.73 7.29036L20.7242 7.28988L20.7167 7.28964L20.7092 7.28915L20.7007 7.28867L20.6949 7.28842C20.6925 7.28818 20.6903 7.28818 20.6876 7.28794L20.6825 7.2877L20.6711 7.28721L20.6665 7.28697L20.6583 7.28648L20.6532 7.28624L20.6439 7.28576L20.6381 7.28551C20.635 7.28527 20.6321 7.28503 20.6289 7.28503L20.6241 7.28479L20.6156 7.2843L20.6112 7.28406C20.6073 7.28382 20.6034 7.28382 20.5996 7.28357L20.5947 7.28333C20.5923 7.28309 20.5894 7.28309 20.5869 7.28285L20.5819 7.2826L20.5709 7.28212H20.5663L20.5576 7.28163L20.552 7.28139L20.544 7.28115L20.5396 7.28091L20.5282 7.28042L20.5227 7.28018C20.5202 7.28018 20.5178 7.27993 20.5152 7.27993L20.5101 7.27969L20.4984 7.27921H20.4945L20.4858 7.27872L20.4807 7.27848C20.4778 7.27848 20.4749 7.27848 20.4722 7.27824H20.4679L20.4562 7.27775L20.4516 7.27751L20.4429 7.27727L20.4388 7.27702C20.4346 7.27702 20.4307 7.27678 20.4266 7.27678L20.4232 7.27654L20.4138 7.2763H20.4092L20.3992 7.27581H20.3961C20.3919 7.27557 20.3883 7.27557 20.3842 7.27533H20.3801C20.3769 7.27508 20.374 7.27508 20.3708 7.27508L20.3667 7.27484L20.3548 7.2746H20.3507C20.3476 7.27436 20.3446 7.27436 20.3417 7.27436L20.3376 7.27411L20.3257 7.27387H20.3235C20.3199 7.27363 20.316 7.27363 20.3124 7.27363L20.3078 7.27339C20.3049 7.27339 20.302 7.27339 20.2988 7.27314H20.2949L20.283 7.2729H20.2784C20.2758 7.27266 20.2729 7.27266 20.2699 7.27266H20.2653L20.253 7.27242H20.251L20.2406 7.27217H20.236L20.2263 7.27193H20.2229C20.2188 7.27169 20.2146 7.27169 20.2105 7.27169H20.2071L20.1972 7.27145H20.1938C20.1894 7.27145 20.1853 7.2712 20.1809 7.2712H20.1678L20.1642 7.27096H20.1513L20.1385 7.27072H20.1351C20.1317 7.27072 20.1283 7.27072 20.1251 7.27072H20.1213C20.1171 7.27072 20.113 7.27048 20.1089 7.27048H20.0791L20.0662 7.27023H20.0337C20.0303 7.27023 20.0267 7.27023 20.0233 7.27023H20.007Z" fill="#5CBEFF"/>
<path d="M36.134 19.0893C34.3601 19.092 32.8471 20.3741 32.5534 22.1233C31.3751 29.0525 24.8027 33.7144 17.8734 32.5361C15.6932 32.1653 13.6471 31.2327 11.9372 29.8306C10.3861 28.5558 8.09557 28.7796 6.82077 30.3305C5.54766 31.8793 5.76886 34.1665 7.31531 35.4425C9.54743 37.2805 12.1526 38.6109 14.9501 39.3414C14.9802 39.3492 15.0097 39.3569 15.0398 39.3645L15.0401 39.3647C15.0701 39.3722 15.0997 39.3797 15.1298 39.3873L15.13 39.3875C15.1351 39.3887 15.1397 39.3897 15.1446 39.3911H15.1451L15.1596 39.3948L15.1601 39.395C15.1902 39.4023 15.2193 39.4096 15.2496 39.4168L15.2508 39.4173L15.2649 39.4207H15.2654C15.2904 39.4268 15.3151 39.4328 15.3401 39.4389L15.3411 39.4392L15.3551 39.4423L15.3558 39.4426L15.3702 39.4459L15.3709 39.4462C15.3959 39.4523 15.4209 39.4581 15.4458 39.4639H15.4461C15.4512 39.4651 15.4555 39.4661 15.4606 39.4673L15.4616 39.4675L15.4759 39.4709H15.4764C15.5016 39.4767 15.5261 39.4823 15.5516 39.4881L15.5523 39.4884C15.5574 39.4896 15.5618 39.4906 15.5669 39.4915L15.5673 39.4918C15.5974 39.4986 15.6273 39.5054 15.6576 39.5119L15.6585 39.5122C15.6634 39.5134 15.6673 39.5141 15.6724 39.5153L15.6736 39.5156C15.6988 39.5211 15.7233 39.5265 15.7488 39.532H15.7495L15.7631 39.5352L15.7653 39.5357C15.7691 39.5364 15.7745 39.5376 15.7784 39.5384L15.7801 39.5388C15.7852 39.5398 15.7888 39.5408 15.7939 39.5418L15.7949 39.542C15.8152 39.5464 15.8341 39.5505 15.8545 39.5548L15.8569 39.5553L15.8696 39.5578L15.8717 39.5582C15.8756 39.5592 15.8807 39.5602 15.8844 39.5609L15.8868 39.5614L15.9008 39.5643L15.9011 39.5646C15.9164 39.5677 15.9314 39.5706 15.9467 39.5738L15.9472 39.574L15.961 39.5769L15.9634 39.5774C15.9673 39.5781 15.9719 39.5791 15.9755 39.5798L15.9787 39.5806L15.9913 39.583L15.993 39.5835C16.0185 39.5886 16.0427 39.5934 16.0682 39.5985L16.0699 39.5987C16.0738 39.5995 16.0791 39.6007 16.0828 39.6014L16.0852 39.6019L16.098 39.6046L16.1 39.6048C16.1203 39.6089 16.14 39.6128 16.1604 39.6167L16.1611 39.6169L16.1752 39.6196L16.1766 39.6199C16.1812 39.6208 16.1856 39.6215 16.19 39.6225L16.1921 39.6228C16.1972 39.6237 16.2004 39.6245 16.2057 39.6254L16.2069 39.6257C16.2273 39.6296 16.2472 39.6334 16.2676 39.6373H16.2683C16.2729 39.6383 16.2778 39.6393 16.2821 39.64L16.2843 39.6405L16.2974 39.6429L16.2993 39.6431C16.3044 39.6441 16.3081 39.6448 16.3132 39.6458L16.3141 39.646C16.3345 39.6499 16.3542 39.6536 16.3748 39.6572L16.3762 39.6574C16.3801 39.6582 16.3857 39.6594 16.3896 39.6599L16.3918 39.6604C16.3956 39.6611 16.4005 39.6621 16.4044 39.6625L16.407 39.663C16.4269 39.6669 16.4475 39.6705 16.4674 39.6739L16.4682 39.6742L16.4825 39.6766L16.4837 39.6768L16.4973 39.6793L16.4992 39.6798C16.5043 39.6805 16.5079 39.6812 16.513 39.6819L16.514 39.6822L16.529 39.6849C16.5446 39.6875 16.5598 39.6902 16.5751 39.6929H16.5754L16.5899 39.6955L16.5918 39.6958L16.6049 39.6979L16.6071 39.6984L16.6202 39.7006L16.6222 39.7009C16.6428 39.7045 16.6622 39.7077 16.6828 39.7113H16.684L16.6978 39.7137L16.6998 39.714L16.7124 39.7161L16.7158 39.7166L16.7279 39.7186L16.7306 39.719C16.7357 39.72 16.7393 39.7205 16.7444 39.7212L16.7454 39.7215C16.7607 39.7239 16.7755 39.7263 16.791 39.729L16.7924 39.7292L16.8058 39.7314L16.8087 39.7317C16.8126 39.7324 16.8169 39.7331 16.8208 39.7338L16.8237 39.7341C16.8276 39.7348 16.8322 39.7355 16.8361 39.7363L16.8388 39.7365C16.8586 39.7397 16.8788 39.7431 16.8987 39.746L16.9018 39.7465L16.9139 39.7484L16.9169 39.7489C16.921 39.7494 16.9251 39.7501 16.929 39.7508L16.9321 39.7513C16.936 39.7518 16.9404 39.7525 16.9445 39.7532L16.9472 39.7535L16.9605 39.7557L16.962 39.7559C16.9724 39.7574 16.9819 39.7588 16.9923 39.7605L16.995 39.761L17.0071 39.7627L17.0105 39.7632L17.0219 39.7649L17.0262 39.7656L17.0369 39.7673L17.0408 39.7678L17.0532 39.7695L17.0556 39.77L17.0862 39.7743C17.0915 39.7751 17.0959 39.7758 17.1012 39.7765L17.1031 39.777L17.116 39.7787L17.1191 39.7792L17.1313 39.7809L17.1342 39.7814L17.1465 39.7831L17.1495 39.7836L17.163 39.7855L17.164 39.7857C17.1744 39.7872 17.1846 39.7887 17.1948 39.7901H17.1951L17.2098 39.7921L17.2128 39.7925L17.2246 39.7942L17.2283 39.7947C17.2322 39.7952 17.2358 39.7957 17.2397 39.7962L17.2436 39.7967L17.255 39.7984L17.2584 39.7988C17.2625 39.7993 17.2671 39.8001 17.271 39.8005L17.2734 39.8008C17.2838 39.8022 17.2935 39.8037 17.304 39.8049L17.3049 39.8052C17.31 39.8059 17.3137 39.8064 17.319 39.8071L17.3217 39.8073C17.3255 39.8078 17.3299 39.8085 17.3338 39.809L17.3374 39.8095C17.3413 39.81 17.3454 39.8105 17.3493 39.8112L17.3522 39.8115L17.3648 39.8132L17.3675 39.8136C17.3719 39.8141 17.3765 39.8146 17.3808 39.8153L17.3825 39.8156C17.393 39.8168 17.4024 39.818 17.4129 39.8195L17.4153 39.8197L17.4279 39.8214L17.4315 39.8219L17.4427 39.8233L17.4471 39.8238L17.4577 39.8253L17.4626 39.8258L17.473 39.8272L17.4771 39.8277C17.481 39.8282 17.4861 39.8287 17.49 39.8294L17.4919 39.8296L17.5225 39.8333L17.5249 39.8335C17.5288 39.834 17.5336 39.8347 17.5375 39.8352L17.5412 39.8357C17.545 39.8362 17.5484 39.8364 17.5523 39.8369L17.5564 39.8374L17.5676 39.8389L17.5717 39.8394L17.5829 39.8406L17.5868 39.841C17.5906 39.8415 17.5957 39.8423 17.5996 39.8427L17.6016 39.843C17.612 39.8442 17.6217 39.8454 17.6321 39.8466L17.6345 39.8469L17.651 39.8488L17.6622 39.8503L17.6661 39.8505C17.67 39.851 17.6733 39.8515 17.6772 39.852L17.6814 39.8524L17.6927 39.8537L17.6964 39.8541L17.7095 39.8556L17.7114 39.8558C17.7219 39.8571 17.7313 39.8583 17.7417 39.8592L17.7449 39.8597L17.7568 39.8609L17.7607 39.8614L17.7718 39.8626L17.7759 39.8631C17.7798 39.8636 17.7835 39.8641 17.7873 39.8643L17.791 39.8648L17.8033 39.8663L17.806 39.8665L17.8366 39.8697L17.838 39.8699L17.8516 39.8714L17.855 39.8719L17.8667 39.8731L17.8708 39.8733L17.8819 39.8745L17.8858 39.875L17.897 39.8762L17.9013 39.8767L17.9127 39.8779L17.9161 39.8782C17.9215 39.8786 17.9258 39.8791 17.9312 39.8799C17.9365 39.8803 17.9414 39.8808 17.9464 39.8813L17.9494 39.8816C17.9532 39.882 17.9571 39.8825 17.961 39.8828L17.9666 39.8833L17.9763 39.8845L17.9816 39.8849L17.9913 39.8859L17.9967 39.8864L18.0068 39.8874L18.0115 39.8879C18.0148 39.8881 18.0192 39.8886 18.0226 39.8888L18.0265 39.8893L18.0566 39.8922L18.0604 39.8927C18.0636 39.893 18.0682 39.8934 18.0714 39.8937L18.0765 39.8942L18.0864 39.8951L18.092 39.8956L18.1019 39.8966L18.1065 39.8968L18.1177 39.898L18.1216 39.8983C18.1257 39.8988 18.1303 39.8993 18.1342 39.8995L18.1366 39.8997L18.1674 39.9027L18.1698 39.9029L18.1822 39.9039L18.1866 39.9044L18.1972 39.9053L18.2021 39.9058C18.206 39.906 18.2084 39.9063 18.2125 39.9068L18.2171 39.907L18.2288 39.9082L18.2319 39.9085L18.2457 39.9097H18.2472C18.2576 39.9107 18.2671 39.9116 18.2778 39.9124L18.2816 39.9126C18.285 39.9131 18.2892 39.9133 18.2923 39.9136L18.2977 39.9141L18.3076 39.915L18.3129 39.9155L18.3229 39.9162L18.328 39.9167C18.3311 39.917 18.3348 39.9172 18.3382 39.9174L18.3433 39.9179C18.3471 39.9182 18.351 39.9187 18.3551 39.9189L18.358 39.9191L18.3731 39.9204L18.376 39.9206L18.3886 39.9216L18.3925 39.9221C18.3964 39.9223 18.3993 39.9225 18.4034 39.9228L18.4087 39.9233L18.4187 39.924L18.4235 39.9245C18.4269 39.9247 18.4306 39.925 18.434 39.9252L18.4388 39.9257L18.45 39.9264L18.4538 39.9269L18.466 39.9276L18.4691 39.9279C18.4745 39.9284 18.4788 39.9286 18.4842 39.9291L18.4873 39.9293C18.4912 39.9296 18.4951 39.9301 18.4992 39.9303L18.5043 39.9305L18.5142 39.9313L18.5196 39.9318L18.5293 39.9325L18.5349 39.933L18.5448 39.9335L18.5497 39.9339L18.5608 39.9347L18.5649 39.9352C18.5756 39.9359 18.5846 39.9364 18.5953 39.9371L18.5989 39.9373C18.6023 39.9376 18.6071 39.9381 18.6105 39.9383L18.6151 39.9386L18.6253 39.9393L18.6307 39.9395L18.6409 39.9402L18.6459 39.9405L18.6564 39.9412L18.661 39.9417L18.6729 39.9424L18.676 39.9427C18.6864 39.9434 18.6957 39.9439 18.7063 39.9446L18.7107 39.9449L18.7214 39.9456L18.7272 39.9461L18.7364 39.9466L18.7422 39.947C18.7449 39.947 18.749 39.9475 18.7517 39.9475L18.7573 39.9478C18.7607 39.948 18.7645 39.9483 18.7679 39.9485L18.7723 39.9487C18.7755 39.949 18.7803 39.9492 18.7837 39.9495L18.7876 39.9497C18.7983 39.9504 18.807 39.9509 18.8177 39.9514L18.8223 39.9516L18.8329 39.9524L18.8383 39.9526C18.8417 39.9529 18.8443 39.9531 18.8475 39.9531L18.854 39.9536L18.863 39.9541L18.8688 39.9543L18.8788 39.9548L18.8836 39.9553L18.896 39.9558L18.8987 39.956C18.904 39.9563 18.9089 39.9565 18.9142 39.9567L18.9161 39.957L18.929 39.9575L18.9341 39.958L18.9443 39.9584L18.9498 39.9587C18.9532 39.9589 18.9562 39.9589 18.9593 39.9592L18.9654 39.9594L18.9743 39.9599L18.9807 39.9604C18.984 39.9604 18.987 39.9606 18.9904 39.9609L18.9954 39.9611L19.0073 39.9616L19.0107 39.9618C19.0161 39.9621 19.0207 39.9623 19.026 39.9626H19.0279L19.0408 39.9633L19.0461 39.9635C19.0495 39.9635 19.0529 39.9638 19.0563 39.964L19.0612 39.9643L19.0716 39.9647L19.0767 39.965C19.0801 39.965 19.0837 39.9652 19.0869 39.9655L19.092 39.9657C19.0954 39.966 19.0995 39.966 19.1029 39.9662L19.1073 39.9664C19.1119 39.9664 19.1157 39.9667 19.1204 39.9669H19.1225C19.1279 39.9672 19.1325 39.9674 19.1378 39.9677H19.1407L19.1529 39.9684H19.158L19.1679 39.9689L19.1737 39.9691L19.1832 39.9696L19.1888 39.9698L19.1985 39.9701L19.2043 39.9703L19.2142 39.9708L19.2193 39.9711C19.2227 39.9711 19.2276 39.9713 19.231 39.9715H19.2351C19.2404 39.9718 19.2443 39.972 19.2496 39.972L19.2538 39.9723L19.2647 39.9727H19.2702C19.2734 39.973 19.2766 39.973 19.28 39.9732L19.286 39.9735L19.295 39.9737L19.3011 39.974L19.311 39.9744H19.3161C19.32 39.9747 19.3236 39.9747 19.3277 39.9749H19.3314C19.336 39.9752 19.3406 39.9754 19.3452 39.9754L19.3483 39.9757C19.3522 39.9757 19.3576 39.9759 19.3617 39.9761H19.3673L19.3767 39.9764L19.3828 39.9766L19.392 39.9769L19.3986 39.9771C19.4012 39.9771 19.4044 39.9774 19.407 39.9774L19.4136 39.9776L19.4226 39.9778L19.4289 39.9781C19.4323 39.9781 19.4361 39.9783 19.4395 39.9783H19.4437L19.4589 39.9788L19.4609 39.9791L19.474 39.9793L19.4798 39.9795L19.4888 39.9798C19.4912 39.9798 19.4934 39.9798 19.4956 39.9798L19.5043 39.98L19.5109 39.9803L19.5196 39.9805L19.5259 39.9808L19.5353 39.981H19.5412L19.5518 39.9812L19.5562 39.9815L19.5712 39.9817H19.5754L19.5865 39.982L19.5921 39.9822H19.6016L19.6079 39.9825L19.6166 39.9827H19.6234L19.6319 39.9829H19.6384L19.6479 39.9832H19.6537L19.6656 39.9834H19.6685C19.6738 39.9837 19.6782 39.9837 19.6838 39.9837L19.6882 39.9839L19.6991 39.9841H19.7143L19.7202 39.9844C19.7228 39.9844 19.727 39.9844 19.7296 39.9844H19.7357L19.7449 39.9846H19.751C19.7544 39.9846 19.7575 39.9846 19.7609 39.9849H19.7662C19.7701 39.9849 19.775 39.9849 19.7791 39.9849H19.7813L19.7968 39.9851H19.8004L19.8118 39.9854H19.8332L19.8424 39.9856H19.8487C19.8514 39.9856 19.855 39.9856 19.8577 39.9856H19.8638L19.8737 39.9858H19.8793C19.8839 39.9858 19.8892 39.9858 19.8938 39.9858H19.9137L19.9249 39.9861H19.946C19.9489 39.9861 19.9528 39.9861 19.9554 39.9861H19.9768C19.9802 39.9861 19.9841 39.9861 19.9874 39.9861H20.027C20.0304 39.9861 20.0347 39.9861 20.0381 39.9861H20.0597C20.0624 39.9861 20.066 39.9861 20.0689 39.9861H20.0908L20.1002 39.9858H20.1216C20.1252 39.9858 20.1291 39.9858 20.1322 39.9858H20.1373C20.1427 39.9858 20.1473 39.9858 20.1526 39.9856H20.1555C20.1597 39.9856 20.1638 39.9856 20.1679 39.9856H20.1737C20.1771 39.9856 20.18 39.9856 20.1832 39.9854H20.2053L20.2142 39.9851H20.2297L20.2361 39.9849C20.2394 39.9849 20.2419 39.9849 20.2455 39.9849H20.2516C20.2542 39.9849 20.2579 39.9846 20.2606 39.9846C20.2622 39.9846 20.2654 39.9846 20.2671 39.9846L20.2773 39.9844H20.2824C20.288 39.9844 20.2923 39.9844 20.2977 39.9841H20.3015L20.3132 39.9839H20.3183L20.3285 39.9837H20.3348L20.3437 39.9834H20.35L20.3593 39.9832H20.3656L20.3745 39.9829L20.3811 39.9827C20.3845 39.9827 20.3864 39.9827 20.3898 39.9827L20.3969 39.9825L20.4056 39.9822H20.4119C20.416 39.9822 20.4197 39.982 20.4235 39.982H20.4274L20.4425 39.9815H20.4483L20.4575 39.9812L20.4638 39.981L20.4733 39.9808H20.4796L20.4883 39.9805L20.4953 39.9803L20.5036 39.98H20.5109L20.5186 39.9798L20.5261 39.9795L20.5341 39.9793H20.5414L20.5501 39.9791L20.5565 39.9788L20.5715 39.9783H20.5744L20.587 39.9778H20.5928C20.596 39.9776 20.5987 39.9776 20.6021 39.9776L20.6088 39.9774L20.6173 39.9771L20.6244 39.9769L20.6326 39.9766L20.6396 39.9764L20.6481 39.9761L20.6549 39.9759L20.6637 39.9754H20.67L20.6799 39.9749H20.6852C20.6899 39.9747 20.6949 39.9744 20.6996 39.9744H20.7003C20.7056 39.9742 20.7105 39.974 20.7158 39.974L20.7197 39.9737L20.7311 39.9735L20.7369 39.973L20.7464 39.9727L20.7524 39.9725L20.7616 39.9723L20.7684 39.972L20.7764 39.9715C20.7789 39.9715 20.7815 39.9715 20.784 39.9713L20.7922 39.9711L20.7988 39.9708L20.8082 39.9703L20.8138 39.9701L20.8242 39.9698L20.8293 39.9696L20.8412 39.9691L20.8446 39.9689L20.8599 39.9684L20.863 39.9681L20.8754 39.9677L20.8798 39.9674L20.8907 39.9669L20.8958 39.9667L20.9057 39.9662L20.9115 39.966L20.9215 39.9655L20.9266 39.9652C20.93 39.9652 20.9339 39.965 20.937 39.9647L20.9421 39.9645C20.9455 39.9643 20.9491 39.9643 20.9525 39.964L20.9576 39.9638L20.9676 39.9633L20.9731 39.963C20.9838 39.9626 20.9928 39.9621 21.0032 39.9616L21.0093 39.9613C21.0119 39.9611 21.0158 39.9611 21.0185 39.9609L21.0253 39.9606L21.0335 39.9601L21.0406 39.9597L21.0493 39.9594L21.0556 39.9589L21.0643 39.9587L21.0711 39.9582L21.0799 39.9577L21.0864 39.9575L21.0951 39.957L21.1014 39.9565C21.1048 39.9565 21.109 39.9563 21.1124 39.956L21.1165 39.9558C21.1218 39.9555 21.1264 39.9553 21.1318 39.955L21.1352 39.9548L21.147 39.9541L21.1521 39.9538L21.1621 39.9533L21.1684 39.9529L21.1774 39.9524L21.1837 39.9519L21.1926 39.9514L21.1989 39.9512L21.2082 39.9507L21.214 39.9502C21.2174 39.95 21.2201 39.95 21.2234 39.9497L21.2298 39.9492L21.239 39.9487L21.2445 39.9485L21.2562 39.9478L21.2598 39.9475L21.2751 39.9466L21.2783 39.9463L21.2901 39.9456L21.2965 39.9451C21.2991 39.9451 21.3025 39.9449 21.3052 39.9446L21.3117 39.9441L21.3205 39.9436L21.3268 39.9432C21.3294 39.9429 21.3333 39.9427 21.336 39.9427L21.342 39.9422L21.351 39.9415L21.3573 39.9412C21.3607 39.941 21.3636 39.9407 21.367 39.9405L21.3724 39.9402L21.3835 39.9395L21.3876 39.939L21.4024 39.9381H21.4029C21.408 39.9378 21.4126 39.9376 21.418 39.9371L21.4223 39.9369L21.4332 39.9361L21.4386 39.9356L21.4485 39.9349L21.4546 39.9344L21.4636 39.9339L21.4699 39.9335L21.4788 39.9327L21.4852 39.9322L21.4946 39.9318L21.4999 39.9313C21.5033 39.931 21.5067 39.9308 21.5101 39.9305L21.5155 39.9301C21.5186 39.9298 21.523 39.9296 21.5264 39.9293L21.5305 39.9291C21.5351 39.9286 21.5385 39.9284 21.5431 39.9281L21.5489 39.9276L21.5608 39.9267L21.5657 39.9264L21.5759 39.9255L21.5819 39.925L21.5911 39.9242L21.5972 39.9238C21.6004 39.9235 21.603 39.9233 21.6062 39.923C21.6081 39.923 21.6103 39.9228 21.6122 39.9225C21.6147 39.9223 21.6193 39.9221 21.6219 39.9218L21.6273 39.9213L21.6367 39.9206L21.6428 39.9201L21.6523 39.9191L21.6578 39.9189L21.669 39.9179L21.6729 39.9174C21.6782 39.9172 21.6828 39.9167 21.6882 39.9162H21.6896L21.7032 39.915L21.708 39.9148L21.7185 39.9138L21.7236 39.9133C21.727 39.9131 21.7301 39.9128 21.7335 39.9126L21.7391 39.9121L21.749 39.9111L21.7541 39.9107C21.7575 39.9104 21.7609 39.9102 21.7641 39.9099L21.7697 39.9094C21.773 39.9092 21.7764 39.9087 21.7798 39.9085L21.7847 39.908C21.7881 39.9077 21.7917 39.9075 21.7951 39.907L21.8002 39.9068C21.8041 39.9063 21.8089 39.9058 21.8131 39.9056L21.815 39.9053L21.8305 39.9041L21.832 39.9039L21.8458 39.9027L21.8492 39.9024L21.8606 39.9012L21.8759 39.8997L21.8812 39.8993L21.8912 39.8985L21.8963 39.898L21.9067 39.8968L21.9118 39.8963L21.9212 39.8956L21.9271 39.8949C21.9305 39.8947 21.9341 39.8942 21.9375 39.8939L21.9421 39.8934C21.9525 39.8925 21.9615 39.8917 21.9722 39.8905L21.9768 39.8903L21.987 39.8891L21.993 39.8886L22.0023 39.8879L22.0083 39.8871L22.0173 39.8862L22.0238 39.8857L22.0323 39.8847L22.0389 39.884L22.0471 39.8833L22.0542 39.8825L22.0631 39.8816L22.0687 39.8811L22.0796 39.8799L22.0837 39.8796C22.0942 39.8784 22.1034 39.8774 22.1138 39.8765L22.1291 39.8748L22.1337 39.8743L22.1439 39.8733L22.1495 39.8726C22.1526 39.8723 22.1558 39.8721 22.1592 39.8716L22.1648 39.8711L22.174 39.8702L22.18 39.8694L22.1895 39.8685L22.1951 39.8677L22.2055 39.8668L22.2099 39.8663L22.2227 39.8648L22.2402 39.8629L22.2416 39.8626C22.2463 39.8622 22.2506 39.8617 22.2552 39.8612L22.2596 39.8607L22.2703 39.8595L22.2754 39.859C22.2788 39.8585 22.2821 39.8583 22.2853 39.8578L22.2904 39.8573L22.3003 39.8561L22.3059 39.8556L22.3154 39.8544L22.321 39.8539C22.3243 39.8534 22.3275 39.8532 22.3309 39.8527L22.336 39.852L22.3476 39.8507L22.3508 39.8505L22.3651 39.8488L22.3661 39.8486L22.3813 39.8469L22.3833 39.8466C22.3872 39.8461 22.3923 39.8454 22.3961 39.8452L22.4008 39.8444C22.4039 39.8442 22.408 39.8437 22.4112 39.8432L22.4165 39.8425L22.4257 39.8415L22.432 39.8408L22.4408 39.8396L22.4471 39.8389C22.4502 39.8384 22.4529 39.8381 22.4563 39.8377L22.4616 39.8372L22.4721 39.8357L22.4767 39.8352L22.4883 39.8338L22.4917 39.8333C22.5021 39.8321 22.5116 39.8309 22.522 39.8296L22.5249 39.8292L22.5368 39.8277L22.5419 39.827L22.5516 39.8258L22.5577 39.825L22.5664 39.8238L22.5725 39.8231L22.5817 39.8219L22.5875 39.8212L22.5967 39.8199L22.6025 39.8192C22.6057 39.819 22.6089 39.8185 22.6122 39.818L22.6176 39.8173C22.6215 39.8168 22.6266 39.8161 22.6304 39.8156L22.6321 39.8153C22.6426 39.8141 22.6523 39.8127 22.6627 39.8115L22.6656 39.811C22.6695 39.8105 22.6731 39.81 22.677 39.8095L22.6823 39.8088L22.6923 39.8073L22.6974 39.8069C22.7008 39.8064 22.7039 39.8059 22.7073 39.8054L22.7127 39.8047C22.7158 39.8042 22.7192 39.8039 22.7226 39.8035L22.7275 39.8027L22.7379 39.8013L22.7423 39.8008L22.7544 39.7991L22.7573 39.7986L22.7723 39.7967L22.7876 39.7945L22.7883 39.7942C22.7937 39.7935 22.7973 39.793 22.8024 39.7923L22.8068 39.7918C22.8099 39.7913 22.814 39.7908 22.8174 39.7904L22.8223 39.7896C22.8254 39.7891 22.8291 39.7887 22.8325 39.7882L22.8373 39.7874L22.8478 39.786L22.8521 39.7855L22.8628 39.7838L22.8676 39.7831C22.8708 39.7828 22.8747 39.7821 22.8778 39.7816L22.8824 39.7809L22.8936 39.7794L22.8972 39.7787C22.9077 39.7773 22.9169 39.776 22.9273 39.7746L22.9312 39.7739L22.9423 39.7722L22.9462 39.7717C22.9501 39.7712 22.9535 39.7707 22.9574 39.77L22.9615 39.7695C22.9654 39.7688 22.9685 39.7683 22.9724 39.7678L22.977 39.7671L22.987 39.7656L22.9923 39.7649L23.0023 39.7632L23.0071 39.7625L23.0173 39.761L23.0221 39.7603C23.026 39.7598 23.0299 39.7591 23.0338 39.7586L23.0369 39.7581C23.042 39.7571 23.0466 39.7566 23.0517 39.7557L23.0532 39.7554L23.067 39.7535L23.0699 39.753C23.0738 39.7523 23.0779 39.7518 23.0818 39.7511L23.0859 39.7506L23.0966 39.7489L23.1015 39.7482C23.1046 39.7474 23.108 39.7469 23.1112 39.7465L23.117 39.7457L23.1264 39.744L23.1313 39.7433L23.1415 39.7418L23.1463 39.7409L23.1575 39.7392L23.1611 39.7387L23.1747 39.7365L23.1759 39.7363C23.1863 39.7346 23.1958 39.7331 23.2062 39.7314L23.2091 39.7309C23.213 39.7302 23.2174 39.7297 23.2213 39.729L23.2249 39.7283C23.2288 39.7278 23.2319 39.7273 23.2358 39.7266L23.2407 39.7258L23.2506 39.7241L23.2557 39.7234L23.2652 39.722L23.2708 39.721L23.2807 39.7193L23.2855 39.7186C23.2887 39.7181 23.2931 39.7174 23.2962 39.7169L23.3003 39.7161C23.3108 39.7144 23.32 39.7127 23.3302 39.711L23.3321 39.7108L23.3598 39.7062L23.3644 39.7055C23.3675 39.705 23.3714 39.7043 23.3746 39.7038L23.3794 39.7028C23.3833 39.7021 23.3855 39.7018 23.3894 39.7011L23.3944 39.7004L23.4049 39.6984L23.409 39.6977C23.4124 39.6972 23.417 39.6965 23.4202 39.696L23.4243 39.6953L23.4369 39.6931L23.4388 39.6929C23.449 39.6909 23.4587 39.6892 23.4692 39.6875L23.4704 39.6873L23.4837 39.6851L23.4876 39.6844C23.4907 39.6836 23.4953 39.6829 23.4985 39.6824L23.5029 39.6817C23.5067 39.681 23.5097 39.6805 23.5133 39.6798L23.5179 39.679L23.5283 39.6771L23.5329 39.6764L23.5426 39.6747L23.5482 39.6737L23.5579 39.672L23.5628 39.671L23.5759 39.6686L23.5771 39.6684C23.5875 39.6667 23.597 39.665 23.6072 39.663L23.6103 39.6625C23.6147 39.6616 23.6178 39.6611 23.6222 39.6604L23.6256 39.6596C23.6295 39.6589 23.6331 39.6582 23.637 39.6574L23.6411 39.6567L23.652 39.6548L23.6559 39.654L23.6666 39.6521L23.6712 39.6511L23.6819 39.6492L23.6857 39.6485C23.6889 39.648 23.6937 39.647 23.6969 39.6465L23.7008 39.6458C23.7059 39.6448 23.7093 39.6441 23.7144 39.6431L23.7153 39.6429C23.7204 39.6419 23.7253 39.6412 23.7304 39.6402L23.7316 39.6397L23.7452 39.6373L23.7483 39.6366L23.7597 39.6344L23.7646 39.6337L23.7743 39.6317L23.7798 39.6308C23.7823 39.6303 23.7862 39.6296 23.7886 39.6291L23.7946 39.6279L23.8034 39.6262L23.8094 39.6252L23.8182 39.6232L23.824 39.6223C23.8271 39.6215 23.8313 39.6208 23.8344 39.6203L23.8383 39.6194C23.8485 39.6174 23.8577 39.6157 23.8679 39.6138L23.8713 39.6131L23.8824 39.6109L23.8875 39.6099L23.8968 39.608L23.9026 39.6068L23.9116 39.6051L23.9176 39.6038C23.92 39.6034 23.9234 39.6026 23.9259 39.6021L23.9319 39.6009L23.9411 39.5992L23.9465 39.5983L23.9569 39.5961L23.961 39.5951L23.9717 39.5932L23.9758 39.5922C23.986 39.5903 23.9947 39.5886 24.0049 39.5864L24.0091 39.5857L24.0197 39.5835L24.0251 39.5823C24.0282 39.5815 24.0306 39.581 24.0338 39.5806L24.0403 39.5791L24.0486 39.5774L24.0546 39.5762L24.0634 39.5743L24.069 39.5733L24.0787 39.5711L24.0838 39.5701L24.0932 39.5682L24.0983 39.5672L24.1092 39.565L24.1129 39.5641C24.118 39.5631 24.1223 39.5621 24.1274 39.5612L24.1306 39.5604C24.1344 39.5597 24.1381 39.559 24.142 39.558L24.1471 39.557L24.1563 39.5551L24.1623 39.5536L24.1711 39.5519L24.1766 39.5507L24.1856 39.5488L24.1914 39.5476L24.2004 39.5456L24.206 39.5444L24.215 39.5425L24.2205 39.5413C24.2237 39.5408 24.2273 39.5398 24.2305 39.5391L24.2349 39.5384C24.2392 39.5371 24.2426 39.5367 24.247 39.5357L24.2497 39.535C24.2545 39.534 24.2591 39.533 24.2642 39.5318L24.2666 39.5313C24.2703 39.5306 24.2746 39.5296 24.2783 39.5289L24.2836 39.5277L24.2931 39.5255L24.2982 39.5245L24.3076 39.5223L24.3132 39.5211L24.3222 39.5192L24.3278 39.518L24.3367 39.516L24.3423 39.5148L24.3518 39.5126L24.3569 39.5117L24.3673 39.5093L24.3712 39.5083L24.4003 39.5017L24.4044 39.5008C24.4075 39.5 24.4114 39.4993 24.4146 39.4986L24.4202 39.4974L24.4291 39.4952L24.435 39.494L24.4439 39.492L24.4493 39.4908L24.4585 39.4886L24.4641 39.4874L24.4735 39.4852L24.4784 39.484L24.4888 39.4818L24.4927 39.4809C24.497 39.4799 24.5021 39.4787 24.5065 39.4777L24.507 39.4775L24.5218 39.4741L24.5242 39.4736C24.5286 39.4726 24.532 39.4717 24.5363 39.4707L24.5405 39.47C24.5436 39.469 24.5477 39.4683 24.5509 39.4675L24.5557 39.4663L24.5657 39.4639L24.5705 39.4629C24.5737 39.4622 24.5766 39.4615 24.5798 39.4607L24.5853 39.4595L24.5946 39.4573L24.5996 39.4561L24.6093 39.4537L24.6142 39.4527C24.6173 39.452 24.6215 39.4508 24.6246 39.4501L24.6285 39.4493C24.6331 39.4481 24.636 39.4474 24.6404 39.4464L24.6431 39.4457L24.6579 39.4423L24.6591 39.4421L24.6722 39.4389L24.6763 39.4379L24.6916 39.4343L24.7008 39.4321L24.7066 39.4307C24.7098 39.4299 24.7124 39.4292 24.7153 39.4285L24.7207 39.4273C24.7238 39.4265 24.727 39.4258 24.7301 39.4251L24.7355 39.4236L24.7447 39.4214L24.7498 39.4202L24.759 39.4181L24.7646 39.4166C24.7682 39.4156 24.7738 39.4144 24.7774 39.4134L24.7784 39.4132C24.7835 39.412 24.7881 39.411 24.7929 39.4098L24.7963 39.4088C24.7995 39.4081 24.8046 39.4069 24.8075 39.4062L24.8121 39.4052L24.8218 39.4028L24.8271 39.4013L24.8364 39.3991L24.8417 39.3977C24.8441 39.3972 24.848 39.3962 24.8507 39.3955L24.8563 39.3943L24.8652 39.3919L24.8706 39.3906L24.8798 39.3882L24.8849 39.387L24.896 39.3841L24.8992 39.3834C24.9091 39.3809 24.9183 39.3785 24.9283 39.3761L24.9302 39.3756L24.9426 39.3725L24.9467 39.3712L24.9569 39.3688L24.9618 39.3676C24.9649 39.3666 24.9678 39.3659 24.9712 39.3652L24.9768 39.3637L24.9855 39.3615L24.9909 39.3601L24.9996 39.3579L25.0057 39.3562L25.0144 39.354L25.0197 39.3526L25.0306 39.3499L25.034 39.3489C25.0433 39.3465 25.0532 39.3441 25.0624 39.3417L25.0678 39.3402C25.0709 39.3395 25.0738 39.3387 25.077 39.3378L25.0821 39.3366L25.0913 39.3341L25.0964 39.3327C25.0995 39.332 25.1029 39.331 25.1061 39.3303L25.1107 39.329L25.1201 39.3264L25.1252 39.3252L25.1354 39.3225L25.1393 39.3215L25.1512 39.3184L25.1536 39.3176C25.1636 39.315 25.1728 39.3125 25.1827 39.3099L25.1837 39.3096L25.1973 39.306L25.2002 39.305C25.2038 39.3041 25.2075 39.3031 25.2113 39.3021L25.2162 39.3009L25.2254 39.2982L25.2305 39.297L25.2397 39.2946L25.2453 39.2929L25.2543 39.2905L25.2591 39.2893L25.2695 39.2864L25.2734 39.2854C25.2771 39.2844 25.2819 39.283 25.2856 39.282L25.2875 39.2815L25.3168 39.2735L25.3178 39.2733L25.3312 39.2694L25.3345 39.2686L25.3455 39.2655L25.3491 39.2645C25.353 39.2636 25.3561 39.2626 25.3598 39.2616L25.3639 39.2604L25.3746 39.2575L25.378 39.2565C25.3818 39.2556 25.385 39.2546 25.3886 39.2536L25.3928 39.2524L25.4032 39.2495L25.4071 39.2485C25.4109 39.2475 25.4156 39.2461 25.4192 39.2451L25.4214 39.2444C25.4313 39.2417 25.4401 39.2391 25.45 39.2364L25.4539 39.2354L25.4692 39.2311L25.4784 39.2284L25.484 39.2269L25.4924 39.2245L25.4983 39.2228L25.507 39.2204L25.5123 39.2187C25.5155 39.218 25.5186 39.217 25.5218 39.216L25.5264 39.2148C25.5293 39.2138 25.5332 39.2129 25.5363 39.2119L25.5407 39.2107C25.5443 39.2095 25.549 39.2083 25.5526 39.2073L25.5548 39.2066L25.5836 39.1983L25.5865 39.1973C25.5902 39.1964 25.5938 39.1952 25.5975 39.1942L25.6021 39.193L25.612 39.1901L25.6164 39.1886C25.62 39.1876 25.6227 39.1869 25.6263 39.1857L25.6307 39.1845L25.6409 39.1816L25.6452 39.1801L25.6552 39.1775L25.6596 39.176C25.6632 39.175 25.6673 39.1738 25.671 39.1726L25.6734 39.1719C25.6833 39.169 25.6923 39.1663 25.7022 39.1634L25.7042 39.1629C25.7078 39.1617 25.7127 39.1602 25.7163 39.159L25.7207 39.1578L25.7352 39.1534L25.7447 39.1508L25.7495 39.1491L25.759 39.1464L25.7636 39.145L25.7733 39.142L25.7777 39.1408L25.7886 39.1374L25.7915 39.1367C25.7959 39.1353 25.7997 39.134 25.8041 39.1328L25.8061 39.1323C25.8158 39.1294 25.8247 39.1265 25.8344 39.1236L25.8376 39.1226L25.849 39.1192L25.8521 39.1183C25.856 39.1171 25.8592 39.1161 25.8628 39.1151L25.8674 39.1137L25.8769 39.1108L25.8817 39.1093L25.8909 39.1064L25.8958 39.1049L25.9057 39.1018L25.9099 39.1006L25.92 39.0974L25.9242 39.0962L25.9353 39.0926L25.9382 39.0918L25.9523 39.0875L25.9542 39.0867L25.9664 39.0829L25.9703 39.0819L25.9804 39.0787L25.985 39.0773L25.9948 39.0741L25.9989 39.0727L26.0088 39.0698L26.0134 39.0683C26.0171 39.0671 26.0192 39.0664 26.0229 39.0652L26.0275 39.0637L26.0372 39.0608L26.0416 39.0593L26.0525 39.0559L26.0556 39.055L26.068 39.0511L26.0697 39.0506C26.0796 39.0474 26.0886 39.0445 26.0983 39.0414L26.1007 39.0407L26.1126 39.0368L26.1158 39.0358L26.1265 39.0324L26.1306 39.031C26.1342 39.03 26.1369 39.029 26.1405 39.0278L26.1449 39.0266C26.1485 39.0254 26.1509 39.0244 26.1548 39.0232L26.159 39.022L26.1691 39.0186L26.1733 39.0174L26.1871 39.0128C26.2016 39.0082 26.2152 39.0035 26.2298 38.9989L26.2322 38.998L26.2436 38.9943L26.2477 38.9929L26.2577 38.9897L26.2618 38.9883C26.2654 38.9871 26.2681 38.9863 26.2717 38.9851L26.2761 38.9837L26.286 38.9803L26.2899 38.9791L26.3001 38.9757L26.3042 38.9744C26.3086 38.973 26.3132 38.9713 26.3176 38.9698H26.3178C26.3275 38.9667 26.337 38.9635 26.3467 38.9601L26.3479 38.9599L26.3603 38.9558L26.3644 38.9543C26.3675 38.9533 26.3714 38.9519 26.3746 38.9509L26.3785 38.9495L26.3882 38.9463L26.393 38.9446L26.4068 38.94L26.4165 38.9366L26.4209 38.9352L26.4316 38.9318L26.4347 38.9305L26.4481 38.9259L26.4488 38.9257C26.4583 38.9225 26.4675 38.9194 26.4772 38.9162L26.4801 38.915L26.491 38.9114L26.4949 38.9099L26.5048 38.9065L26.5094 38.9051L26.5189 38.9017L26.523 38.9002L26.533 38.8968L26.5376 38.8954C26.5412 38.8942 26.5439 38.8932 26.5473 38.892L26.5511 38.8905C26.5543 38.8896 26.5587 38.8881 26.5616 38.8869L26.5652 38.8857C26.5749 38.8823 26.5836 38.8794 26.5931 38.876L26.5948 38.8755L26.6072 38.8711L26.6103 38.8699L26.6208 38.8663L26.6249 38.8648C26.6285 38.8636 26.6314 38.8626 26.6351 38.8612L26.6389 38.86L26.6535 38.8549L26.6627 38.8515L26.6673 38.85L26.677 38.8466L26.6811 38.8452L26.6925 38.841L26.6947 38.8403C26.7044 38.8367 26.7134 38.8335 26.7231 38.8301L26.7243 38.8296L26.7369 38.8253L26.7401 38.8241L26.7505 38.8204L26.7549 38.8187L26.7641 38.8153L26.7692 38.8136L26.7784 38.8102L26.7825 38.8088C26.7862 38.8076 26.7891 38.8064 26.7927 38.8051L26.7966 38.8037L26.8078 38.7998L26.8102 38.7988L26.8223 38.7945L26.8242 38.7937C26.8339 38.7904 26.8427 38.7872 26.8521 38.7836L26.855 38.7826C26.8587 38.7811 26.8623 38.7799 26.866 38.7785L26.8703 38.777L26.8793 38.7736L26.8846 38.7717L26.8936 38.7685L26.8982 38.7668L26.9072 38.7634L26.912 38.7617L26.9215 38.7581L26.9259 38.7566C26.9295 38.7552 26.9327 38.754 26.9363 38.7528L26.9395 38.7515C26.9441 38.7498 26.9477 38.7486 26.9523 38.7467L26.9533 38.7465L26.9673 38.7411C26.9681 38.7409 26.9671 38.7411 26.9676 38.7411C26.9724 38.7392 26.9766 38.7377 26.9812 38.736L26.9838 38.7351L26.995 38.7309L26.9989 38.7295L27.0088 38.7258L27.0127 38.7244C27.0163 38.7229 27.0193 38.722 27.0229 38.7205L27.0268 38.719C27.0302 38.7178 27.0338 38.7164 27.0374 38.7152L27.0401 38.7142C27.0437 38.7127 27.0481 38.711 27.0518 38.7098L27.0542 38.7089C27.0585 38.7072 27.0622 38.7057 27.0663 38.7043L27.0682 38.7035C27.0777 38.6999 27.0869 38.6965 27.0964 38.6929L27.1097 38.688L27.1138 38.6863L27.1233 38.6827L27.1282 38.681L27.1371 38.6773L27.1415 38.6756L27.1512 38.672L27.1553 38.6705L27.165 38.6669L27.1694 38.6652L27.1788 38.6616L27.1832 38.6599C27.1866 38.6584 27.1907 38.657 27.1944 38.6555L27.1966 38.6545C27.206 38.6509 27.2147 38.6475 27.2242 38.6439L27.2274 38.6426L27.238 38.6385L27.2414 38.6373C27.2448 38.6361 27.2482 38.6346 27.2519 38.6332L27.2557 38.6317L27.2652 38.6281L27.2785 38.6228L27.2841 38.6208L27.2928 38.6174L27.2972 38.6155C27.3001 38.6145 27.3042 38.6128 27.3071 38.6118L27.311 38.6101L27.3217 38.606L27.3246 38.6048L27.3382 38.5995L27.3413 38.5983L27.3518 38.5939L27.3557 38.5924L27.3702 38.5866L27.3789 38.5832L27.384 38.581L27.3925 38.5779L27.3979 38.5757C27.4008 38.5745 27.4034 38.5735 27.4066 38.5723L27.4112 38.5704L27.4204 38.5667L27.4248 38.565L27.435 38.5609L27.4384 38.5595C27.4478 38.5558 27.4563 38.5522 27.4658 38.5485L27.4667 38.5481L27.4791 38.5432L27.4837 38.5413L27.4927 38.5376L27.4973 38.5357L27.506 38.5323L27.5116 38.5301L27.5196 38.5267L27.525 38.5245L27.5332 38.5214L27.5385 38.5192C27.5414 38.518 27.5444 38.5168 27.5473 38.5156L27.5519 38.5136L27.5606 38.51L27.5655 38.508L27.5926 38.4971L27.595 38.4959L27.6062 38.4915L27.6101 38.4898C27.613 38.4889 27.6164 38.4872 27.6193 38.4862L27.6242 38.484C27.6271 38.4828 27.6302 38.4816 27.6331 38.4804L27.6377 38.4787L27.6467 38.4748L27.6605 38.469L27.6649 38.4673L27.6736 38.4636L27.6787 38.4615L27.6882 38.4576L27.6921 38.4561C27.7015 38.4522 27.7095 38.4486 27.719 38.445L27.7231 38.443L27.7321 38.4394L27.7374 38.437L27.7457 38.4336L27.7508 38.4314L27.7592 38.428L27.7646 38.4256L27.7723 38.4222L27.7782 38.4197L27.7854 38.4168L27.7917 38.4142L27.7995 38.4108L27.8048 38.4086L27.8143 38.4045L27.8182 38.4028C27.823 38.4008 27.8272 38.3991 27.8318 38.3972L27.8325 38.3969C27.8371 38.3948 27.8403 38.3936 27.8449 38.3916L27.8487 38.3899C27.8517 38.3887 27.8558 38.387 27.8587 38.3855L27.8626 38.3839L27.8718 38.38L27.8766 38.3778L27.8854 38.3741L27.89 38.3722L27.9036 38.3664L27.9125 38.3625L27.9167 38.3606C27.9196 38.3594 27.9239 38.3574 27.9268 38.3562L27.93 38.3547L27.9574 38.3431L27.9584 38.3426L27.9705 38.3373L27.9741 38.3356L27.9838 38.3315L27.9885 38.3295C27.9914 38.3283 27.9943 38.3269 27.9972 38.3256L28.002 38.3237C28.0045 38.3225 28.0079 38.321 28.0103 38.3198L28.0159 38.3174L28.0239 38.314L28.0287 38.3118L28.0379 38.3079L28.0421 38.306C28.0455 38.3043 28.0501 38.3024 28.0537 38.3009L28.0552 38.3002C28.0644 38.2961 28.0731 38.2924 28.0823 38.2883L28.0845 38.2873C28.0879 38.2856 28.092 38.2839 28.0954 38.2825L28.0998 38.2805C28.1027 38.2793 28.1061 38.2779 28.109 38.2764L28.1136 38.2745C28.1165 38.2733 28.1189 38.272 28.1219 38.2708L28.1272 38.2684L28.1354 38.2648L28.1405 38.2623L28.1488 38.2587L28.1536 38.2565C28.1568 38.2553 28.1602 38.2536 28.1631 38.2524L28.167 38.2507C28.1699 38.2492 28.174 38.2475 28.1769 38.2461L28.1803 38.2446C28.1895 38.2405 28.1978 38.2369 28.207 38.2327L28.2109 38.2308L28.2201 38.2267L28.2249 38.2245L28.2332 38.2209L28.2385 38.2184L28.247 38.2146L28.2511 38.2126L28.2603 38.2085L28.2647 38.2066L28.2737 38.2024L28.2868 38.1966L28.2916 38.1942L28.3178 38.1823L28.3207 38.1808C28.3249 38.1791 28.327 38.1779 28.3312 38.1762L28.3355 38.1743L28.344 38.1702L28.3491 38.1677L28.3576 38.1639L28.3625 38.1619C28.3646 38.1607 28.3683 38.159 28.3707 38.158L28.3758 38.1556L28.3843 38.1517L28.3891 38.1496L28.3976 38.1457L28.4022 38.1435C28.4056 38.142 28.4088 38.1403 28.4122 38.1389L28.4153 38.1374L28.442 38.1251L28.4437 38.1241C28.4478 38.1224 28.4512 38.1207 28.4551 38.119L28.459 38.1171C28.4619 38.1158 28.4653 38.1141 28.4682 38.1127L28.4728 38.1107C28.4755 38.1093 28.4784 38.1081 28.4813 38.1066L28.4862 38.1044L28.4949 38.1003L28.499 38.0984L28.508 38.0943L28.5126 38.0918C28.5155 38.0906 28.5189 38.0892 28.5216 38.0877L28.5257 38.0858L28.5356 38.0812L28.5388 38.0797C28.548 38.0753 28.556 38.0715 28.565 38.0671L28.5689 38.0654C28.5718 38.0639 28.5756 38.0622 28.5783 38.0608L28.5824 38.0591L28.5914 38.0547L28.5958 38.0525L28.605 38.0482L28.6089 38.0462C28.6123 38.0445 28.6147 38.0436 28.6181 38.0419L28.6222 38.0399L28.6314 38.0356L28.6356 38.0336L28.6455 38.0288L28.6484 38.0273L28.6605 38.0215L28.6615 38.021C28.6661 38.0188 28.6702 38.0169 28.6748 38.0147L28.6773 38.0135C28.6812 38.0115 28.6841 38.0103 28.6879 38.0084L28.6916 38.0065C28.6945 38.005 28.6984 38.0033 28.7013 38.0018L28.7052 37.9999L28.7141 37.9955L28.7187 37.9934L28.7272 37.9892L28.7318 37.9871L28.7408 37.9827L28.7447 37.9807C28.7481 37.979 28.751 37.9776 28.7544 37.9761L28.758 37.9744C28.7614 37.9727 28.7646 37.971 28.768 37.9693L28.7711 37.9679L28.7823 37.9623L28.7845 37.9613L28.7978 37.9548H28.7981L28.8104 37.9487L28.8146 37.9465C28.8172 37.9453 28.8209 37.9436 28.8235 37.9422L28.8279 37.94C28.8306 37.9388 28.8337 37.9373 28.8364 37.9359L28.841 37.9334L28.85 37.9291L28.8541 37.9271L28.8628 37.9228L28.8674 37.9206L28.8764 37.916L28.89 37.9092L28.8931 37.9077C28.9024 37.9031 28.9104 37.899 28.9193 37.8946L28.9222 37.8932C28.9261 37.8912 28.9288 37.89 28.9327 37.8881L28.9358 37.8864L28.9458 37.8815L28.9496 37.8796C28.953 37.8779 28.9552 37.8767 28.9586 37.875L28.9627 37.8728L28.9717 37.8684L28.9758 37.8663L28.9853 37.8617L28.9889 37.8597L28.9982 37.8551L29.0023 37.8532L29.0137 37.8473L29.0149 37.8466C29.0239 37.8423 29.0326 37.8379 29.0416 37.8333L29.0425 37.8326C29.0459 37.8309 29.0505 37.8287 29.0539 37.8267L29.0583 37.8248L29.067 37.8202L29.0712 37.818L29.0801 37.8136L29.0845 37.8115L29.093 37.8068L29.0976 37.8047C29.1003 37.8032 29.1029 37.802 29.1056 37.8005L29.1107 37.7979C29.1136 37.7964 29.1165 37.795 29.1192 37.7935L29.1352 37.7855L29.1362 37.7848C29.1408 37.7826 29.1449 37.7804 29.1495 37.778L29.1505 37.7775C29.1544 37.7756 29.1582 37.7734 29.1621 37.7714L29.1658 37.7697C29.1684 37.7683 29.1725 37.7661 29.1752 37.7646L29.1789 37.7629L29.1881 37.7581L29.1924 37.7559L29.2009 37.7515L29.2055 37.7491L29.2135 37.7448L29.2186 37.7423L29.2274 37.7377L29.231 37.7358L29.2412 37.7307L29.2441 37.729L29.2555 37.7232L29.257 37.7222L29.2698 37.7156L29.2739 37.7132C29.2768 37.712 29.28 37.7103 29.2827 37.7089L29.2873 37.7064C29.2902 37.705 29.2924 37.7038 29.2953 37.7021L29.3006 37.6994L29.3081 37.6953L29.3135 37.6926C29.3156 37.6914 29.3186 37.6899 29.3207 37.6887C29.3229 37.6875 29.3244 37.6868 29.3263 37.6858L29.3341 37.6817L29.3389 37.679L29.3469 37.6749L29.3518 37.6722C29.3547 37.6708 29.3581 37.6688 29.361 37.6674L29.3644 37.6657L29.3901 37.6521L29.3935 37.6502C29.3964 37.6487 29.4001 37.6465 29.403 37.6451L29.4068 37.6429C29.4095 37.6414 29.4129 37.6397 29.4158 37.6383L29.4197 37.6361L29.4284 37.6315L29.4333 37.6288L29.441 37.6247L29.4459 37.622L29.4539 37.6179L29.459 37.6152L29.4672 37.6106L29.4714 37.6084L29.4801 37.6038L29.4847 37.6014C29.4891 37.599 29.4927 37.597 29.4971 37.5946L29.4995 37.5934L29.5094 37.5881L29.5145 37.5854L29.5223 37.581L29.5279 37.5781L29.541 37.5708L29.5473 37.5675L29.5533 37.5641L29.5599 37.5607L29.566 37.5573L29.573 37.5534C29.5749 37.5524 29.5764 37.5517 29.5783 37.5505C29.5805 37.5493 29.5834 37.5478 29.5858 37.5466C29.5873 37.5456 29.5897 37.5444 29.5912 37.5437L29.6004 37.5386L29.6035 37.5366L29.6164 37.5299L29.6188 37.5284C29.6222 37.5267 29.6256 37.5248 29.629 37.5228L29.6334 37.5204L29.6467 37.5131L29.6542 37.509L29.6591 37.5063C29.6613 37.5051 29.6644 37.5032 29.6668 37.502L29.6722 37.4991L29.6797 37.4949L29.6846 37.4923L29.6923 37.4879L29.6974 37.485C29.7001 37.4835 29.7035 37.4816 29.7064 37.4799L29.7095 37.4782L29.7212 37.4719L29.7224 37.4712C29.727 37.4685 29.7306 37.4666 29.735 37.4641L29.7394 37.4617L29.7471 37.4573L29.753 37.4539L29.7602 37.4501C29.7622 37.4488 29.7634 37.4481 29.7653 37.4472L29.7724 37.4433L29.7779 37.4401L29.7855 37.436L29.7905 37.4331C29.7932 37.4316 29.7954 37.4302 29.7983 37.4287L29.8027 37.4261L29.8119 37.421L29.8153 37.419L29.8252 37.4134L29.8279 37.412L29.8531 37.3977L29.8575 37.3952L29.8657 37.3904L29.8703 37.388L29.8783 37.3834L29.8834 37.3805L29.8907 37.3763L29.8958 37.3734L29.9033 37.3691L29.9087 37.3659L29.9159 37.3618L29.921 37.3589L29.9286 37.3545L29.9336 37.3516L29.9421 37.347L29.946 37.3446L29.9562 37.3387L29.9637 37.3346L29.971 37.3302L29.9761 37.3273L29.9831 37.3235L29.9887 37.3201L29.9962 37.3159L30.0013 37.313C30.0033 37.3116 30.0059 37.3101 30.0081 37.3089L30.0139 37.3055L30.0207 37.3014L30.0263 37.2982L30.0333 37.2943L30.0387 37.2912L30.0462 37.2868L30.0513 37.2839L30.0598 37.2788L30.0636 37.2766C30.068 37.2742 30.0714 37.272 30.0758 37.2696L30.0797 37.2674L30.0884 37.2623L30.093 37.2594L30.1008 37.2551L30.1059 37.2521L30.1131 37.2478L30.1185 37.2446L30.1257 37.2405L30.1308 37.2374L30.1384 37.233L30.1434 37.2301L30.1507 37.2257L30.1558 37.2226L30.1633 37.2182L30.1682 37.2153C30.1764 37.2104 30.1847 37.2056 30.1929 37.2007L30.1963 37.1988C30.199 37.1971 30.2026 37.1949 30.2053 37.1935L30.2099 37.1905L30.2174 37.1862L30.2225 37.183L30.23 37.1787L30.2351 37.1755L30.2419 37.1714L30.2475 37.168L30.2545 37.1639L30.2599 37.1607L30.2669 37.1566L30.2722 37.1534L30.2798 37.1488L30.2846 37.1459L30.2948 37.1398L30.3016 37.1357L30.3086 37.1314C30.3106 37.1301 30.3123 37.1292 30.3142 37.128L30.321 37.1238L30.3331 37.1166L30.3394 37.1129L30.3455 37.1093L30.3518 37.1054L30.3576 37.1018L30.3639 37.0981L30.37 37.0943L30.3765 37.0904L30.3819 37.0872L30.3884 37.0831L30.3942 37.0797C30.3986 37.077 30.402 37.0748 30.4064 37.0722L30.4124 37.0685L30.4187 37.0647L30.4246 37.0613L30.4309 37.0571L30.4369 37.0535C30.4389 37.0523 30.441 37.0511 30.443 37.0499L30.449 37.0462L30.4549 37.0426L30.4617 37.0385L30.4672 37.0348L30.4733 37.0312C30.4757 37.0297 30.4774 37.0288 30.4799 37.0273L30.4854 37.0237L30.492 37.0198L30.498 37.0159L30.5116 37.0074C30.5141 37.006 30.5162 37.0048 30.5184 37.0033L30.5276 36.9975L30.5332 36.9941L30.54 36.9897L30.5449 36.9868L30.5524 36.9822L30.558 36.9788L30.5643 36.9749L30.5706 36.9708L30.5759 36.9676L30.5829 36.963L30.588 36.9601C30.5902 36.9587 30.5921 36.9575 30.5946 36.956L30.6004 36.9524L30.6069 36.9482L30.6123 36.9448L30.6188 36.9407L30.6234 36.9381L30.6373 36.9291L30.6426 36.9259L30.6487 36.922L30.6547 36.9184C30.6564 36.9172 30.6591 36.9155 30.661 36.9143L30.6666 36.9106L30.6734 36.9065L30.6785 36.9031L30.6853 36.8988L30.6909 36.8954L30.6972 36.8912L30.7025 36.8878L30.7093 36.8835L30.7146 36.8803L30.7214 36.876L30.7268 36.8726L30.7331 36.8684L30.7413 36.8631C30.7447 36.8612 30.7493 36.8583 30.7525 36.8561L30.7564 36.8536C30.7588 36.852 30.7617 36.8503 30.7639 36.8488L30.7685 36.8459L30.7755 36.8413L30.7804 36.8381L30.7879 36.8335L30.7922 36.8306L30.7993 36.826L30.8046 36.8226L30.8112 36.8185L30.817 36.8148L30.8231 36.8107L30.8289 36.8071L30.8352 36.803L30.8403 36.7996L30.8471 36.7952L30.8585 36.7877L30.8636 36.7845L30.8706 36.7799L30.8764 36.7763L30.8822 36.7724L30.8885 36.7683L30.8946 36.7644L30.9002 36.7608L30.9067 36.7564L30.9121 36.753C30.914 36.7518 30.9172 36.7498 30.9191 36.7484L30.9239 36.7452L30.9307 36.7409L30.9363 36.737L30.9484 36.7292L30.9552 36.7246L30.9642 36.7188C30.9662 36.7176 30.9695 36.7154 30.9715 36.7139L30.9783 36.7096L30.9899 36.7018C30.9921 36.7006 30.9936 36.6996 30.9955 36.6982L31.0013 36.6943L31.0074 36.6904L31.0137 36.6863L31.019 36.6827L31.0256 36.6783L31.0309 36.6749L31.0375 36.6705L31.043 36.6669L31.0491 36.6628L31.0547 36.6591L31.0615 36.6548L31.0622 36.654C31.0687 36.6497 31.0753 36.6453 31.0818 36.6409L31.084 36.6395L31.0913 36.6349L31.0962 36.6315L31.1032 36.6269L31.1078 36.6237L31.1148 36.6189L31.1197 36.6157L31.1267 36.6109L31.1311 36.6082L31.1384 36.6031L31.1432 36.5999L31.1502 36.5953L31.1541 36.5924C31.157 36.5907 31.1595 36.589 31.1621 36.5871L31.1643 36.5859C31.1781 36.5764 31.191 36.5677 31.2051 36.5582L31.2077 36.5563L31.2157 36.551L31.2196 36.5483C31.222 36.5468 31.2247 36.5449 31.2271 36.5434L31.2313 36.5405L31.2388 36.5352L31.2429 36.5325C31.2453 36.5308 31.248 36.5291 31.2504 36.5274L31.2548 36.5245L31.2669 36.516L31.2785 36.5083L31.2938 36.4978L31.2965 36.4959L31.3038 36.491L31.3081 36.4879L31.3149 36.4833L31.32 36.4799C31.3222 36.4782 31.3246 36.4767 31.3268 36.475L31.3314 36.4719C31.3336 36.4704 31.3363 36.4685 31.3385 36.467L31.3433 36.4636L31.3501 36.459L31.3547 36.4556L31.3615 36.451L31.3666 36.4476L31.3768 36.4404C31.3899 36.4314 31.4032 36.4222 31.4163 36.4132L31.419 36.4113L31.4267 36.4057L31.4306 36.403L31.4381 36.3979L31.4423 36.3948L31.4491 36.3902L31.4541 36.3865L31.4609 36.3819L31.4655 36.3787C31.4677 36.3771 31.4702 36.3754 31.4726 36.3737L31.4767 36.3707C31.4794 36.3688 31.4816 36.3673 31.4845 36.3654L31.4869 36.3637C31.4966 36.3569 31.5065 36.3499 31.516 36.3431L31.5179 36.3416L31.5262 36.3358L31.5296 36.3336C31.5322 36.3317 31.5339 36.3305 31.5369 36.3285L31.5415 36.3251L31.5483 36.3203L31.5529 36.3171L31.5599 36.312L31.5643 36.3091C31.5664 36.3074 31.5694 36.3055 31.5718 36.3038L31.5754 36.3011L31.5832 36.2956L31.5866 36.2931L31.5948 36.2873L31.5958 36.2866C31.605 36.28 31.6145 36.2732 31.6234 36.2669L31.6285 36.2633L31.6348 36.2587L31.6399 36.2551L31.6465 36.2504L31.6513 36.2468L31.6581 36.242L31.6627 36.2386C31.6652 36.2371 31.6676 36.2352 31.6698 36.2335L31.6739 36.2306L31.6817 36.225L31.6848 36.2228C31.6875 36.2209 31.6901 36.2189 31.6928 36.217L31.6957 36.2148C31.7086 36.2056 31.7222 36.1959 31.7348 36.1864L31.7377 36.1845C31.7403 36.1825 31.743 36.1806 31.7457 36.1787L31.7488 36.1762L31.7568 36.1706L31.7605 36.168C31.7631 36.166 31.7656 36.1641 31.7682 36.1622L31.7714 36.16L31.7794 36.1542L31.7828 36.1517C31.785 36.15 31.7884 36.1476 31.7908 36.1459L31.7942 36.1435L31.8049 36.1355C31.818 36.126 31.8311 36.1163 31.8442 36.1066L31.8463 36.1049L31.8551 36.0986L31.8575 36.0969C31.8602 36.0947 31.8633 36.0925 31.866 36.0906L31.8687 36.0884L31.8774 36.0824L31.8801 36.0802L31.8881 36.0744L31.8915 36.0717L31.8997 36.0656L31.9016 36.0642L31.9109 36.0574C31.9113 36.0569 31.9109 36.0574 31.9113 36.0569C31.9254 36.0467 31.9387 36.0368 31.9526 36.0263L31.9548 36.0246C31.9579 36.0225 31.9603 36.0205 31.9635 36.0181L31.9657 36.0166L31.9742 36.0103L31.9773 36.0079L31.9853 36.0018L31.9882 35.9997L31.9967 35.9933L31.9989 35.9917C32.0021 35.9892 32.0047 35.9873 32.0079 35.9849L32.0091 35.9839C32.0263 35.971 32.043 35.9584 32.06 35.9456L32.0624 35.9436C32.0656 35.9414 32.068 35.9395 32.0709 35.9373L32.0736 35.9354L32.0816 35.9291L32.0848 35.9266C32.0874 35.9247 32.0903 35.9225 32.093 35.9206L32.0957 35.9186C32.0983 35.9165 32.1013 35.9143 32.1039 35.9123L32.1066 35.9102C32.1272 35.8946 32.1471 35.8794 32.1675 35.8636L32.1696 35.8619L32.1779 35.8556L32.1808 35.8534L32.1888 35.8473L32.192 35.8447L32.2002 35.8386L32.2026 35.8367C32.2058 35.8342 32.2082 35.8323 32.2111 35.8299L32.2135 35.8282C32.2165 35.826 32.2191 35.8238 32.2223 35.8214L32.2233 35.8207C32.2363 35.8105 32.2502 35.7998 32.2635 35.7894L32.2655 35.7879L32.2732 35.7819L32.2769 35.7792L32.2844 35.7734L32.2878 35.7707C32.2904 35.7688 32.2926 35.7668 32.2953 35.7649L32.2987 35.7622C32.3013 35.76 32.3038 35.7581 32.3064 35.7559L32.3096 35.7537C32.3118 35.752 32.3149 35.7494 32.3171 35.7477L32.3208 35.745C32.3372 35.7321 32.3537 35.719 32.37 35.7062L32.3714 35.7052L32.3799 35.6984L32.3826 35.6962C32.3853 35.6943 32.3879 35.6921 32.3906 35.6899L32.3935 35.6877C32.3962 35.6856 32.3986 35.6836 32.4013 35.6817L32.4049 35.6788L32.4124 35.6727L32.4153 35.6705L32.4236 35.664L32.4248 35.663C32.4386 35.6521 32.452 35.6414 32.4656 35.6305L32.466 35.63L32.4745 35.6235L32.4774 35.621L32.4883 35.6123C32.491 35.6101 32.4937 35.6079 32.4964 35.606L32.4988 35.6038L32.507 35.5973L32.5097 35.5953C32.5128 35.5927 32.515 35.591 32.5182 35.5885L32.5199 35.5868L32.5291 35.5796L32.5293 35.5793C32.5434 35.5682 32.5565 35.5577 32.5703 35.5463L32.5713 35.5456L32.5805 35.5381L32.582 35.5371C32.5849 35.5345 32.5875 35.5323 32.5907 35.5299L32.5929 35.5282L32.6014 35.5211L32.6036 35.5194C32.606 35.5175 32.6094 35.5146 32.612 35.5124L32.6142 35.5109L32.6232 35.5034L32.6234 35.5032C32.6409 35.4891 32.6576 35.4755 32.6749 35.4612L32.6756 35.4607C32.6785 35.4583 32.6819 35.4556 32.6848 35.453L32.6863 35.452L32.695 35.4447L32.6972 35.443L32.7059 35.4357L32.7076 35.4343L32.7168 35.4268L32.7173 35.4263C32.7382 35.4091 32.7578 35.3928 32.7787 35.3756L32.7794 35.3749C32.7826 35.3724 32.7857 35.3698 32.7889 35.3671L32.7901 35.3661L32.799 35.3586L32.8007 35.3572C32.8039 35.3547 32.8068 35.3523 32.8097 35.3496L32.8112 35.3484L32.8201 35.3412L32.8218 35.3395C32.842 35.3225 32.8619 35.306 32.882 35.289C32.8825 35.2885 32.882 35.289 32.8825 35.2885C32.8854 35.2861 32.889 35.2832 32.8919 35.2805L32.8932 35.2795C32.8961 35.2771 32.899 35.2747 32.9021 35.272L32.9038 35.2706L32.913 35.2628L32.9135 35.2623C32.9169 35.2594 32.9198 35.257 32.9232 35.2541L32.924 35.2534C32.9412 35.2388 32.9574 35.225 32.9744 35.2104L32.9749 35.2102L32.9834 35.2029L32.9858 35.201L32.9938 35.1939L32.996 35.192L33.0045 35.185L33.0067 35.183L33.0152 35.1757L33.0166 35.1745C33.0198 35.1719 33.0224 35.1694 33.0256 35.1668L33.027 35.1656C33.0469 35.1483 33.0671 35.1311 33.0869 35.1139C33.0903 35.111 33.0935 35.1081 33.0969 35.1052L33.0971 35.1049L33.1068 35.0967L33.1078 35.0957L33.1173 35.0875L33.1175 35.0872C33.1408 35.0671 33.1646 35.0465 33.1876 35.0261L33.1886 35.0251C33.1922 35.0222 33.1944 35.02 33.1978 35.0171L33.1988 35.0161L33.2082 35.0079L33.2089 35.0074C33.2354 34.9839 33.2618 34.9606 33.2883 34.9371L33.2897 34.9359L33.2984 34.9281L33.2999 34.9269L33.3084 34.9191L33.3101 34.9177C33.3365 34.8941 33.3625 34.8706 33.3887 34.8471L33.3896 34.8464L33.3991 34.8376C33.4624 34.7804 33.5252 34.7232 33.5878 34.6652C36.8311 31.6683 38.989 27.6804 39.7232 23.3258C40.054 21.344 38.7154 19.4689 36.7333 19.1381C36.5354 19.1058 36.3348 19.0893 36.134 19.0893Z" fill="#005EEE"/>
<path d="M2.96015 12.0347C4.46586 10.529 6.9073 10.529 8.41301 12.0347L15.2423 18.864C16.748 20.3697 16.748 22.8109 15.2423 24.3166C13.7366 25.8223 11.2954 25.8223 9.78968 24.3166L2.96015 17.4873C1.45444 15.9816 1.45444 13.5404 2.96015 12.0347Z" fill="#005EEE"/>
<path d="M3.06969 15.7791L9.63411 22.3435C11.0603 23.7697 13.386 24.043 14.947 22.766C16.5999 21.4231 16.8512 18.9943 15.5083 17.3411C15.4246 17.2385 15.3361 17.14 15.2422 17.0464L9.8541 11.6583C8.85046 10.6544 8.85046 9.02696 9.8541 8.02308H9.85434C10.858 7.01943 12.4854 7.01943 13.4893 8.02308L22.8435 17.3772C23.3548 17.8885 23.6419 18.5819 23.6419 19.305V26.3547C23.6419 27.8604 24.8627 29.0811 26.3684 29.0811C27.8741 29.0811 29.0948 27.8604 29.0948 26.3547V24.7576C29.0948 24.0345 29.382 23.3411 29.8932 22.8298L35.3002 17.4228C35.982 16.741 36.365 15.8162 36.365 14.8521V9.74756C36.3762 8.94886 36.1166 8.16957 35.6286 7.53702C31.8442 2.77251 26.0914 -0.00315037 20.0069 2.68342e-06C12.32 2.68342e-06 5.65593 4.34225 2.31247 10.7046C1.42671 12.3794 1.73352 14.4359 3.06969 15.7791Z" fill="#4CC66E"/>
<path d="M11.6716 3.63525C10.025 3.63064 8.44483 4.28526 7.28354 5.45286C7.01117 5.72524 6.76474 6.02235 6.54718 6.34033C5.97988 7.16837 6.19162 8.29959 7.01966 8.8669C7.84794 9.43396 8.97915 9.22247 9.54622 8.39418C9.5467 8.39345 9.54743 8.39273 9.54792 8.392C9.59788 8.31875 9.65173 8.24841 9.70896 8.18074V8.1805L9.71163 8.17759L9.71406 8.17468L9.7143 8.17444L9.71673 8.17153L9.71697 8.17128L9.71915 8.16862L9.71964 8.16813L9.72182 8.16546L9.7223 8.16498C9.72497 8.16207 9.7274 8.15892 9.73007 8.156L9.73079 8.15503L9.73273 8.15309L9.7337 8.15188L9.73661 8.14849L9.73783 8.14703L9.73928 8.14558L9.74025 8.14436L9.74195 8.14242L9.74292 8.14145L9.74462 8.13951L9.74535 8.13854L9.74729 8.1366L9.74777 8.13587L9.74971 8.13369L9.7502 8.13296C9.75602 8.12666 9.7616 8.12035 9.76742 8.1138L9.76984 8.11113L9.77009 8.11089L9.77518 8.10556C9.78706 8.09246 9.79919 8.0796 9.81132 8.06675C9.81835 8.05947 9.82514 8.0522 9.83218 8.04516L9.83266 8.04468L9.83484 8.04225L9.84091 8.03619L9.84285 8.03401L9.84382 8.03328L9.84988 8.02721L9.85109 8.02576L9.85401 8.02309C10.8579 7.01921 12.4853 7.01921 13.4892 8.02309L14.1499 8.68378C14.8598 9.3937 16.0107 9.3937 16.7204 8.68378C17.4303 7.9741 17.4303 6.82323 16.7204 6.11331L16.0595 5.45262C14.8984 4.28502 13.3185 3.63064 11.6716 3.63525Z" fill="#14A142"/>
<path d="M3.79754 11.8215C2.79317 11.8227 1.97968 12.6377 1.9809 13.6423C1.98114 13.8659 2.02261 14.0876 2.10314 14.2962C2.29596 14.7941 2.58022 15.2518 2.94137 15.6452L2.94161 15.6455C2.95277 15.6576 2.96392 15.6697 2.97532 15.6816L2.97557 15.6818C2.98017 15.6869 2.98502 15.692 2.98963 15.6969L2.99036 15.6979L2.99448 15.7022L2.99497 15.7027C2.99836 15.7061 3.00152 15.7093 3.00467 15.7126L3.00491 15.7129L3.00928 15.7175L3.01001 15.7182L3.01437 15.7228L3.01461 15.7231L3.02407 15.733L3.02504 15.734L3.02868 15.7379L3.0299 15.7388C3.03305 15.7422 3.0362 15.7454 3.03911 15.7485L3.03984 15.7493L3.04372 15.7534L3.04493 15.7544L3.04881 15.7582L3.04954 15.7592L3.05439 15.7638L3.059 15.7684L3.06021 15.7699L9.63385 22.3435C10.4226 23.1323 11.4903 23.5783 12.6055 23.5851C13.6094 23.5846 14.4226 22.7704 14.4219 21.7665C14.4214 20.7636 13.6084 19.9506 12.6055 19.9501C12.4544 19.9428 12.3115 19.8798 12.2043 19.7731L5.64014 13.2086C5.57587 13.1446 5.52566 13.068 5.49292 12.9831C5.22176 12.2831 4.54821 11.8215 3.79754 11.8215Z" fill="#14A142"/>
<path d="M2.58397 22.5638C3.58761 21.5599 5.21531 21.5599 6.21895 22.5638L8.34848 24.6931C9.35212 25.6969 9.35212 27.3244 8.34848 28.3283C7.34459 29.3319 5.71713 29.3319 4.71325 28.3283L2.58397 26.1988C1.58008 25.1949 1.58008 23.5674 2.58397 22.5638Z" fill="#4CC66E"/>
<path d="M6.33428 23.0554C5.83246 23.0554 5.42548 23.4621 5.42548 23.9642C5.42548 24.205 5.52128 24.4362 5.69179 24.6067L7.06337 25.9783C7.35733 26.2722 7.35733 26.7491 7.06337 27.043C6.92196 27.1842 6.7306 27.2635 6.53098 27.2635L6.47666 27.2616C6.46574 27.2613 6.45507 27.2611 6.44415 27.2611C5.95107 27.2642 5.54287 27.6446 5.50454 28.1362C5.46865 28.5939 5.79438 29.0006 6.24867 29.0656C6.33186 29.0748 6.41529 29.0799 6.49897 29.0809H6.53098C7.95034 29.0814 9.10121 27.9312 9.10194 26.5119C9.10218 25.8296 8.83102 25.1752 8.34836 24.6928L8.28942 24.6341L8.13419 24.4786L7.03572 23.3802L6.97702 23.3212C6.80676 23.1507 6.57537 23.0549 6.33428 23.0554Z" fill="#14A142"/>
<path d="M14.4147 36.0307C15.5835 36.615 16.9948 36.386 17.9189 35.4622L21.0232 31.5209C21.5403 30.9169 21.8243 30.1481 21.8243 29.353C21.8243 27.9179 20.9061 26.6438 19.5444 26.19L17.9189 25.6479C16.9281 25.3178 15.8469 25.3947 14.9128 25.8616C13.5791 26.5286 12.7365 27.8919 12.7365 29.3833V33.3157C12.7365 34.4653 13.3863 35.5165 14.4147 36.0307Z" fill="#4CC66E"/>
<path d="M19.0013 26.0578C18.4994 26.0581 18.0925 26.4651 18.0927 26.9671C18.0929 27.3581 18.3433 27.7052 18.7141 27.8289L18.9697 27.9143C19.5894 28.1202 20.0073 28.7001 20.0068 29.353C20.0015 29.7394 19.8553 30.1105 19.5955 30.3962L16.5722 34.2342C16.115 34.6322 15.4347 34.6337 14.9758 34.2376C14.596 33.9094 14.0221 33.9514 13.6942 34.3312C13.366 34.711 13.408 35.2849 13.7878 35.613C13.968 35.7685 14.1657 35.9024 14.377 36.0115L14.3772 36.0118L14.383 36.0147L14.3869 36.0169L14.3886 36.0176L14.3922 36.0196L14.3944 36.0205L14.4002 36.0234L14.4034 36.0251L14.4061 36.0266L14.409 36.028L14.4145 36.0307C14.7883 36.218 15.197 36.3256 15.6144 36.3472C15.6668 36.3499 15.7189 36.3513 15.7711 36.3513C16.5766 36.3516 17.3491 36.0317 17.9186 35.4619L21.0231 31.5209C22.2203 30.1219 22.0568 28.0171 20.6578 26.8197C20.3309 26.5398 19.9528 26.3258 19.5443 26.1898L19.5334 26.1861H19.5332L19.5276 26.1842H19.5273L19.5244 26.1832L19.5242 26.183L19.521 26.182L19.5189 26.1813L19.5172 26.1808L19.5167 26.1806L19.5152 26.1801H19.5147L19.5142 26.1798L19.5113 26.1789L19.5104 26.1786H19.5101L19.2872 26.1042C19.1953 26.0736 19.0988 26.0578 19.0013 26.0578Z" fill="#14A142"/>
<path d="M20.0069 7.27023H19.9344L19.9261 7.27048H19.9234C19.9203 7.27048 19.9176 7.27048 19.9145 7.27048H19.9137C19.8977 7.27048 19.882 7.27072 19.8662 7.27096C17.8589 7.3088 16.2623 8.96682 16.3001 10.9741C16.3377 12.9598 17.962 14.548 19.9484 14.5407C19.953 14.5407 19.9581 14.5407 19.9627 14.5407L20.0069 14.5405C22.0144 14.5405 23.6421 12.9128 23.6419 10.9052C23.6419 8.91298 22.0387 7.29206 20.0467 7.27023C20.0333 7.27023 20.02 7.27023 20.0069 7.27023Z" fill="#84D89C"/>
<path d="M8.49855 14.5679L8.4937 14.5783L8.49176 14.5822L8.48885 14.5885L8.48666 14.5933L8.48399 14.5989L8.48157 14.6038L8.47672 14.6144L8.47623 14.6154L8.46871 14.6314L8.46774 14.6336L8.46435 14.6409L8.46314 14.6435C8.46192 14.6462 8.46071 14.6489 8.4595 14.6515L8.45925 14.6523C8.45246 14.6668 8.44591 14.6811 8.43937 14.6954C7.61715 16.5271 8.43573 18.6785 10.2674 19.5004C12.0799 20.3139 14.21 19.5215 15.0501 17.7212C15.0521 17.717 15.054 17.7124 15.0562 17.7081L15.0749 17.6683C15.9308 15.8521 15.1527 13.686 13.3368 12.8298C11.5349 11.9804 9.3848 12.7396 8.51552 14.532C8.50995 14.5438 8.50437 14.556 8.49855 14.5679Z" fill="#84D89C"/>
<path d="M18.1893 29.0811C18.1893 30.085 17.3756 30.8988 16.3717 30.8988C15.3678 30.8988 14.5541 30.085 14.5541 29.0811C14.5541 28.0773 15.3678 27.2635 16.3717 27.2635C17.3756 27.2635 18.1893 28.0773 18.1893 29.0811Z" fill="#84D89C"/>
<path d="M5.4663 24.5371C5.4663 25.0392 5.05931 25.4459 4.55749 25.4459C4.05567 25.4459 3.64868 25.0392 3.64868 24.5371C3.64868 24.0353 4.05567 23.6283 4.55749 23.6283C5.05931 23.6283 5.4663 24.0353 5.4663 24.5371Z" fill="#84D89C"/>
<path d="M34.5475 7.27023C33.5436 7.27023 32.7298 8.08397 32.7298 9.08785V14.8524L27.3228 20.2596C26.1259 21.45 25.455 23.0697 25.4596 24.7576V25.5073C25.4596 26.5112 26.2733 27.3249 27.2772 27.3249C28.2811 27.3249 29.0949 26.5112 29.0949 25.5073V24.7576C29.0949 24.0346 29.382 23.3411 29.8933 22.8299L35.3003 17.4228C35.9821 16.7411 36.3651 15.8165 36.3651 14.8524V9.08785C36.3651 8.08421 35.5513 7.27048 34.5477 7.27048C34.5475 7.27023 34.5475 7.27023 34.5475 7.27023Z" fill="#14A142"/>
<path d="M23.6608 13.8065C22.6569 13.8065 21.8431 14.6203 21.8431 15.6241C21.8431 16.1061 22.0345 16.5684 22.3753 16.9091L22.8526 17.3864L22.8543 17.3884L22.8558 17.3896L22.8575 17.3915L22.8676 17.4017L22.8698 17.4042L22.8705 17.4049L22.873 17.4071L22.8735 17.4078C22.9855 17.5232 23.0869 17.6484 23.1769 17.7818V17.782L23.1791 17.7852L23.1793 17.7857L23.1817 17.7893L23.1837 17.792L23.1842 17.793L23.1859 17.7956L23.1863 17.7966L23.1883 17.7993L23.1907 17.8029L23.1909 17.8036L23.1929 17.8065L23.1931 17.8068C23.1968 17.8124 23.2004 17.8179 23.204 17.8233L23.2045 17.824L23.2062 17.8267L23.2067 17.8276L23.2084 17.8303L23.2091 17.8313L23.2106 17.8337L23.213 17.8373L23.2152 17.841L23.2162 17.8424L23.2174 17.8446L23.2186 17.8461L23.2198 17.8483L23.2222 17.8519L23.2232 17.8536L23.2256 17.8575L23.2266 17.8592L23.229 17.8628L23.2312 17.8664L23.2322 17.8679L23.2358 17.874L23.2382 17.8776L23.239 17.8791L23.2404 17.8812L23.2414 17.8829L23.2429 17.8851L23.2436 17.8866L23.2458 17.8902L23.2475 17.8929L23.2482 17.8938L23.2499 17.8968L23.2504 17.8975L23.2523 17.9009L23.2526 17.9011C23.2572 17.9089 23.2618 17.9166 23.2664 17.9244L23.2686 17.928V17.9283L23.2707 17.9319L23.271 17.9322L23.2729 17.9358L23.2732 17.9361C23.3486 18.0661 23.4131 18.2019 23.466 18.3423C23.8216 19.2812 24.8708 19.7537 25.8097 19.3981C26.7478 19.0428 27.2208 17.9943 26.8659 17.0559C26.548 16.2111 26.0527 15.4442 25.4136 14.807L24.946 14.3391C24.6055 13.9974 24.1429 13.8058 23.6608 13.8065Z" fill="#14A142"/>
</g>
<defs>
<clipPath id="clip0">
<rect width="40" height="40" fill="white"/>
</clipPath>
</defs>
</svg>
