<svg width="40" height="40" viewBox="0 0 40 40" fill="none" xmlns="http://www.w3.org/2000/svg">
<path d="M23.0106 0C22.3201 0.00727634 21.6637 0.300997 21.198 0.810823C20.1908 1.88214 17.7716 3.63524 12.7231 3.63524C7.67431 3.63524 5.25519 1.88214 4.24815 0.810823C3.78222 0.300997 3.1259 0.00727634 2.43538 0C1.09023 0 0 1.09023 0 2.43538V19.9934C0 27.0201 5.69637 32.7165 12.7231 32.7165C19.7498 32.7165 25.4459 27.0201 25.4459 19.9934V2.43538C25.4459 1.09023 24.3557 0 23.0106 0Z" fill="#435E88"/>
<path d="M16.3581 30.8989C16.3581 31.9027 15.5444 32.7165 14.5407 32.7165C13.5368 32.7165 12.7231 31.9027 12.7231 30.8989C12.7231 29.895 13.5368 29.0812 14.5407 29.0812C15.5444 29.0812 16.3581 29.895 16.3581 30.8989Z" fill="#33527D"/>
<path d="M16.3581 29.0812H9.08789C8.08424 29.0812 7.27051 28.2675 7.27051 27.2636C7.27051 24.2522 9.71171 21.811 12.7231 21.811C15.7346 21.811 18.1758 24.2522 18.1758 27.2636C18.1758 28.2675 17.362 29.0812 16.3581 29.0812Z" fill="#163969"/>
<path d="M16.3581 29.0812H9.08789C8.084 29.0812 7.27026 28.2675 7.27026 27.2638C7.27026 27.2636 7.27026 27.2636 7.27026 27.2636C7.27026 24.2522 9.71147 21.811 12.7231 21.811H12.7399C12.7411 21.811 12.7423 21.811 12.7433 21.811H12.7605C12.7622 21.811 12.7641 21.8112 12.7656 21.8112H12.7859C12.7879 21.8115 12.7896 21.8115 12.7918 21.8115H12.7944C12.7964 21.8115 12.7988 21.8115 12.8007 21.8115H12.8027C12.8051 21.8117 12.8078 21.8117 12.8102 21.8117H12.8114C12.8289 21.812 12.8461 21.8122 12.8636 21.8127H12.864C12.867 21.8129 12.8699 21.8129 12.8725 21.8129C12.997 21.8163 13.1202 21.8239 13.2427 21.8355C13.7421 21.8845 14.1071 22.3293 14.0581 22.829C14.0122 23.2937 13.6215 23.6483 13.1546 23.6487C13.1262 23.6487 13.0976 23.6475 13.0688 23.6446C12.9548 23.634 12.8396 23.6286 12.7231 23.6286C10.7163 23.6308 9.09007 25.257 9.08789 27.2638H16.3581C16.8602 27.2638 17.2669 27.6706 17.2669 28.1727C17.2669 28.6745 16.8602 29.0812 16.3581 29.0812Z" fill="#002755"/>
<path d="M21.811 14.5408C21.811 16.5483 20.1835 18.1757 18.1757 18.1757C16.1682 18.1757 14.5407 16.5483 14.5407 14.5408C14.5407 12.533 16.1682 10.9055 18.1757 10.9055C20.1835 10.9055 21.811 12.533 21.811 14.5408Z" fill="#FFBE00"/>
<path d="M37.5513 7.27023C36.8608 7.27775 36.2042 7.57147 35.7385 8.0813C34.7315 9.15261 32.3121 10.9055 27.2636 10.9055C22.215 10.9055 19.7959 9.15261 18.7886 8.0813C18.3229 7.57123 17.6666 7.27775 16.9761 7.27023C15.6309 7.27023 14.5407 8.36071 14.5407 9.70561V27.2636C14.5407 34.2903 20.2368 39.9867 27.2636 39.9867C34.2903 39.9867 39.9867 34.2903 39.9867 27.2636V9.70561C39.9867 8.36071 38.8965 7.27023 37.5513 7.27023Z" fill="#FFD700"/>
<path d="M16.9761 3.63525C13.6249 3.63889 10.9094 6.35465 10.9055 9.70564V12.5288C10.9055 12.5456 10.9058 12.5623 10.9062 12.5788C10.9058 12.5955 10.9055 12.612 10.9055 12.6288V18.0816C10.9048 19.0853 11.718 19.8995 12.7219 19.9002C13.7258 19.901 14.54 19.0877 14.5408 18.0838C14.5408 18.0831 14.5408 18.0824 14.5408 18.0814V12.6288C14.5408 12.612 14.5405 12.5953 14.54 12.5788C14.5405 12.5621 14.5408 12.5456 14.5408 12.5288V9.70564C14.5408 8.36073 15.631 7.27026 16.9759 7.27026C17.6664 7.27753 18.323 7.57125 18.7887 8.08108L18.7918 8.08448L18.7926 8.08544L18.796 8.08884L18.7981 8.09127L18.8025 8.09563L18.8047 8.09806L18.8057 8.09903L18.8081 8.1017L18.8091 8.10242L18.812 8.10582C19.2929 8.61152 20.0846 9.26202 21.3111 9.80872H21.3114L21.3199 9.8126C21.3371 9.82012 21.3543 9.82764 21.3718 9.8354L21.3723 9.83564L21.3803 9.83904L21.3812 9.83952L21.3888 9.84267L21.3897 9.84316C21.4043 9.84947 21.4186 9.85577 21.4331 9.86184L21.4339 9.86232L21.4414 9.86547L21.4433 9.8662L21.4518 9.86984L21.4588 9.87299L21.4605 9.87372L21.4676 9.87663L21.469 9.87736L21.477 9.88075L21.4778 9.881C21.4865 9.88463 21.495 9.88827 21.504 9.89215L21.5054 9.89264L21.5124 9.89555L21.5146 9.89652L21.5209 9.89943L21.5234 9.9004L21.5297 9.90282L21.5321 9.90404L21.5384 9.90646L21.5408 9.90768L21.5476 9.91059L21.5493 9.91107C21.5551 9.91374 21.5612 9.91592 21.567 9.91859L21.5675 9.91883L21.5755 9.92199L21.5777 9.92296L21.5842 9.92562L21.5869 9.92659L21.593 9.92902L21.5961 9.93023L21.6017 9.93266L21.6049 9.93387L21.6104 9.9363L21.6136 9.93751L21.6192 9.93969L21.6223 9.94115L21.6289 9.94381L21.6311 9.94454L21.6395 9.94818L21.6417 9.94915L21.6485 9.95182L21.6514 9.95279L21.657 9.95521L21.6609 9.95667L21.6657 9.95861L21.6696 9.96031L21.6745 9.96201L21.6786 9.9637L21.6832 9.96564L21.6873 9.96734L21.6919 9.96904L21.6961 9.97074L21.7011 9.97268L21.7048 9.97413L21.7118 9.97704L21.7164 9.97874L21.722 9.98092L21.7261 9.98262L21.7307 9.98456L21.7395 9.98796L21.7441 9.98966L21.7482 9.99135L21.7531 9.99329L21.7572 9.99475L21.7657 9.99814L21.7708 10.0001L21.7744 10.0015L21.7797 10.0035L21.7822 10.0047L21.7945 10.0093L21.7967 10.0103L21.8025 10.0125L21.8054 10.0137L21.811 10.0156L21.8144 10.0171L21.8198 10.019L21.8231 10.0205L21.8287 10.0224L21.8321 10.0239L21.8377 10.0258L21.8406 10.027L21.8467 10.0292L21.8491 10.0304L21.8554 10.0326L21.8569 10.0333C21.8649 10.0362 21.8724 10.0391 21.8804 10.042L21.8811 10.0423L21.8879 10.045L21.8901 10.0457L21.8966 10.0481L21.8991 10.0491L21.9056 10.0515L21.9078 10.0522L21.9143 10.0549L21.9165 10.0556L21.9233 10.0581L21.9248 10.0585L21.9323 10.0614H21.9325C21.9437 10.0656 21.9551 10.0699 21.9665 10.0741H21.9667L21.9747 10.077L21.9757 10.0772L21.9832 10.0801L21.9847 10.0806L21.9922 10.0833L21.9934 10.0838L22.0012 10.0867H22.0014C22.0106 10.0901 22.0194 10.0932 22.0286 10.0966C22.9733 10.4359 24.0143 9.94551 24.3538 9.0008C24.6932 8.05658 24.2032 7.01607 23.259 6.67602C22.2039 6.29596 21.6645 5.83318 21.4368 5.59113C20.2823 4.35415 18.6686 3.64665 16.9761 3.63525Z" fill="#33527D"/>
<path d="M27.2636 36.1661C27.2636 37.2796 26.2624 38.1807 25.1695 37.9675C20.1544 36.9883 16.3581 32.5612 16.3581 27.2636V9.70562C16.3583 9.3646 16.6348 9.0881 16.9759 9.08786C17.1643 9.09853 17.3406 9.18463 17.4648 9.32652C18.5337 10.4648 20.9453 12.2953 25.5838 12.6591C26.5285 12.7309 27.2595 13.5162 27.2636 14.4638V36.1661Z" fill="#FFEA21"/>
<path d="M30.8989 29.0812H23.6287C22.6248 29.0812 21.811 29.895 21.811 30.8989C21.811 33.9103 24.2522 36.3515 27.2636 36.3515C30.2751 36.3515 32.7163 33.9103 32.7163 30.8989C32.7165 29.895 31.9028 29.0812 30.8989 29.0812Z" fill="#FFA300"/>
<path d="M33.6253 29.9901C33.1233 29.9901 32.7165 30.3968 32.7165 30.8989C32.7165 33.9103 30.2751 36.3515 27.2637 36.3515H27.2137L27.2089 36.3513H27.1955L27.1904 36.351H27.1771L27.1722 36.3508H27.163L27.1589 36.3505H27.1499L27.1436 36.3503H27.1407L27.1317 36.35H27.1308L27.1225 36.3498H27.1196L27.1135 36.3496H27.1094L27.1046 36.3493H27.1004L27.0953 36.3491H27.0912L27.0864 36.3488H27.0822L27.0774 36.3486L27.073 36.3483H27.0682L27.0638 36.3481L27.059 36.3479H27.0551L27.0497 36.3476L27.0459 36.3474L27.041 36.3471H27.0366L27.032 36.3469L27.0277 36.3466L27.0226 36.3464H27.0187L27.0126 36.3462L27.0095 36.3459L27.0007 36.3454H26.9978L26.9915 36.3449H26.9881L26.9826 36.3445H26.9787L26.9736 36.3442L26.9695 36.344L26.9646 36.3437L26.9602 36.3435L26.9556 36.3433L26.9513 36.343L26.9464 36.3428L26.9421 36.3423L26.9374 36.342L26.9331 36.3418L26.9282 36.3416L26.9241 36.3413L26.9193 36.3411L26.9151 36.3408L26.91 36.3406L26.9062 36.3403L26.9008 36.3399L26.8972 36.3396L26.8918 36.3394L26.8882 36.3391L26.8804 36.3384H26.8792L26.8703 36.3379L26.8681 36.3377L26.8613 36.3372L26.8584 36.3369L26.8523 36.3365L26.8489 36.3362L26.8431 36.336L26.8399 36.3357L26.8341 36.3352L26.8305 36.335L26.8251 36.3345L26.8215 36.334L26.8164 36.3338L26.8123 36.3333L26.8072 36.3331L26.8036 36.3326L26.7982 36.3323L26.7946 36.3319L26.789 36.3314L26.7856 36.3311L26.78 36.3306L26.7766 36.3304L26.7708 36.3299L26.7677 36.3297L26.7614 36.3289L26.7587 36.3287L26.7502 36.328H26.7497L26.7407 36.327L26.7381 36.3268L26.7318 36.326L26.7284 36.3258L26.7228 36.3253L26.7194 36.3248L26.7138 36.3243L26.7104 36.3241L26.7048 36.3234L26.7012 36.3231L26.6961 36.3226L26.6922 36.3221L26.6871 36.3217L26.6833 36.3212L26.6782 36.3207L26.6743 36.3205L26.6694 36.32L26.6651 36.3195L26.6605 36.319L26.6563 36.3185L26.6512 36.318L26.6474 36.3175L26.6418 36.3168L26.6386 36.3166L26.6323 36.3158L26.6297 36.3154C26.6236 36.3149 26.618 36.3141 26.612 36.3134L26.609 36.3129L26.603 36.3122L26.5993 36.3117L26.5942 36.3112L26.5901 36.3108L26.5853 36.31L26.5814 36.3095L26.5763 36.3091L26.5727 36.3086L26.5673 36.3078L26.5637 36.3074L26.5586 36.3066L26.5545 36.3061L26.5499 36.3054L26.5457 36.3049L26.5409 36.3044L26.5368 36.3037L26.5322 36.3032L26.528 36.3025L26.5234 36.302L26.5191 36.3015L26.5142 36.3008L26.5103 36.3001L26.5047 36.2993L26.5016 36.2989L26.4929 36.2977L26.4895 36.2972L26.4841 36.2964L26.4798 36.296L26.4752 36.2952L26.4713 36.2945L26.4662 36.2938L26.4623 36.2933L26.4575 36.2926L26.4533 36.2918L26.4487 36.2913L26.4446 36.2906L26.44 36.2899L26.4359 36.2894L26.431 36.2887L26.4271 36.288L26.4225 36.2872L26.4182 36.2865L26.4138 36.286L26.4094 36.2853L26.4048 36.2846L26.4007 36.2838L26.3961 36.2831L26.3917 36.2824L26.3876 36.2819L26.383 36.2812L26.3796 36.2804L26.3667 36.2785L26.3658 36.2782L26.3612 36.2775L26.3573 36.2768L26.3524 36.2761L26.3483 36.2753L26.3437 36.2746L26.3398 36.2739L26.335 36.2729L26.3308 36.2722L26.3265 36.2715L26.3224 36.2707L26.3177 36.27L26.3136 36.2693L26.309 36.2683L26.3049 36.2676L26.3005 36.2668L26.2962 36.2659L26.2831 36.2637L26.2789 36.263L26.2743 36.262L26.2702 36.2613L26.2656 36.2605L26.2615 36.2598L26.2569 36.2588L26.2537 36.2584C26.2472 36.2571 26.2406 36.2557 26.2341 36.2545L26.2261 36.253L26.2227 36.2523L26.2178 36.2516L26.2093 36.2499L26.2054 36.2491L26.2008 36.2482L26.1967 36.2472L26.1921 36.2465L26.1882 36.2457L26.1749 36.2431L26.1713 36.2421L26.1664 36.2411L26.1625 36.2404L26.1574 36.2394L26.1543 36.2387L26.1489 36.2377L26.146 36.237L26.1402 36.2358L26.1383 36.2353L26.1317 36.2341V36.2339C26.1237 36.2322 26.1157 36.2307 26.1079 36.2288L26.1067 36.2285L26.1004 36.2273L26.0982 36.2268L26.0919 36.2254L26.0898 36.2249L26.0837 36.2237L26.0813 36.2229L26.0728 36.2213L26.067 36.2198L26.0643 36.2193L26.0582 36.2181L26.056 36.2174L26.0497 36.2162L26.0476 36.2154L26.0415 36.2142L26.0391 36.2135L26.033 36.2123L26.0308 36.2118L26.0243 36.2101L26.0233 36.2099C26.0073 36.2062 25.9915 36.2023 25.9755 36.1987L25.9748 36.1985L25.968 36.1968L25.9663 36.1963L25.9598 36.1948L25.9578 36.1943L25.9513 36.1926L25.9496 36.1921L25.9428 36.1907L25.9413 36.1902L25.9348 36.1885L25.9328 36.188L25.9263 36.1863L25.9248 36.1861L25.918 36.1844L25.9166 36.1839L25.9095 36.1822L25.9088 36.182L25.9013 36.18H25.9011C25.8795 36.1744 25.8579 36.1686 25.8363 36.1628H25.8358L25.8281 36.1606H25.8276L25.82 36.1584L25.8196 36.1582L25.8118 36.156H25.8116L25.8036 36.1538H25.8033C25.5285 36.0777 25.26 35.9797 25.0005 35.8611C24.544 35.6527 24.0049 35.8536 23.7963 36.3103C23.5877 36.7667 23.7887 37.3059 24.2455 37.5145C27.9003 39.18 32.2137 37.5674 33.8795 33.9122C34.3105 32.9661 34.5339 31.9387 34.5341 30.8989C34.5339 30.3968 34.1272 29.9901 33.6253 29.9901ZM30.8989 27.2636H27.2637C26.7618 27.2636 26.3549 27.6706 26.3549 28.1725C26.3549 28.6743 26.7618 29.0813 27.2637 29.0813H30.9246L30.9283 29.0815H30.9416L30.9447 29.0817H30.954L30.9576 29.082H30.9624L30.9656 29.0822H30.97L30.9709 29.0825H30.9748L30.9785 29.0827H30.9831L30.9869 29.083H30.9872L30.9908 29.0832H30.9916L30.9991 29.0837H31L31.0034 29.0839H31.0037L31.0076 29.0842H31.0083L31.0114 29.0844H31.0122L31.0161 29.0847L31.0165 29.0849H31.0197L31.0207 29.0851L31.0243 29.0854H31.0245L31.0282 29.0856H31.0291L31.0321 29.0859H31.0328L31.0364 29.0861L31.0372 29.0864L31.0405 29.0866H31.0413L31.0449 29.0868H31.0454L31.0488 29.0871H31.0495L31.0532 29.0876H31.0534L31.057 29.0878H31.0578L31.0616 29.0881L31.0653 29.0885H31.0663L31.0697 29.0888L31.0701 29.089L31.0738 29.0893H31.0743L31.0779 29.0898H31.0784L31.0823 29.09L31.0861 29.0905H31.0866L31.0944 29.0914H31.0949L31.0983 29.0917L31.0988 29.0919L31.1026 29.0922L31.1031 29.0924L31.1065 29.0927H31.107L31.1148 29.0936H31.1153L31.123 29.0946H31.1235L31.1313 29.0956H31.1317L31.1351 29.0961L31.1356 29.0963L31.1395 29.0968H31.1397L31.1434 29.0973H31.1439L31.1516 29.0982L31.1521 29.0985L31.1599 29.0995H31.1601L31.1638 29.0999L31.1642 29.1002L31.1679 29.1007H31.1681L31.172 29.1012H31.1722L31.18 29.1024L31.1805 29.1026L31.1883 29.1036L31.1885 29.1038L31.1921 29.1043H31.1924L31.1963 29.105H31.1965L31.2004 29.1058L31.2084 29.107H31.2086L31.2164 29.1084H31.2166C31.3888 29.1387 31.556 29.194 31.7124 29.2724L31.7126 29.2726L31.7158 29.2741L31.716 29.2743L31.7233 29.278L31.7299 29.2814L31.7337 29.2833L31.7369 29.285L31.7376 29.2855L31.7398 29.2865L31.741 29.2872L31.7439 29.2886L31.7447 29.2891L31.748 29.2908L31.7507 29.2923L31.7541 29.294L31.7553 29.2947L31.7573 29.2957L31.7582 29.2964L31.7611 29.2979L31.7624 29.2986L31.7641 29.2996L31.7699 29.3025L31.7711 29.3032L31.7728 29.3042L31.7735 29.3046L31.7772 29.3066L31.7779 29.3071L31.7798 29.308L31.7805 29.3083L31.7844 29.3107L31.7849 29.311L31.7871 29.3122L31.7876 29.3124L31.7944 29.3163H31.7946C31.8225 29.3321 31.8499 29.3485 31.8768 29.3658C32.2998 29.6362 32.8618 29.5123 33.132 29.0895C33.4022 28.6665 33.2785 28.1045 32.8555 27.8343C32.2712 27.4613 31.5921 27.2632 30.8989 27.2636Z" fill="#FFFC74"/>
<path d="M25.4459 21.8109C25.4459 23.8185 23.8185 25.4459 21.8109 25.4459C19.8032 25.4459 18.1757 23.8185 18.1757 21.8109C18.1757 19.8032 19.8032 18.1757 21.8109 18.1757C23.8185 18.1757 25.4459 19.8032 25.4459 21.8109Z" fill="#FFA300"/>
<path d="M21.8234 16.3581C21.8193 16.3581 21.8152 16.3581 21.811 16.3581C21.8025 16.3581 21.7943 16.3584 21.786 16.3586L21.6619 16.3601C21.168 16.3654 20.7722 16.77 20.7773 17.2638C20.7776 17.2694 20.7776 17.2752 20.7778 17.281C20.7926 17.7792 21.2001 18.1757 21.6985 18.1772C21.7026 18.1772 21.7067 18.1772 21.7111 18.1772C21.7184 18.177 21.7259 18.1767 21.7334 18.1767H21.7351L21.738 18.1765H21.7434L21.7477 18.1762H21.7676L21.7727 18.176H21.811C23.8188 18.176 25.4463 19.8035 25.4463 21.8112C25.4463 23.8188 23.8188 25.4462 21.811 25.4462H21.7574L21.7533 25.446H21.7397L21.7358 25.4457H21.7283L21.7237 25.4455H21.7184L21.7164 25.4453H21.7111L21.706 25.445H21.7004L21.699 25.4448H21.6934L21.6827 25.4443H21.6813L21.6774 25.4441H21.6757L21.6718 25.4438H21.6704L21.665 25.4436H21.6597L21.6582 25.4433H21.6541L21.6526 25.4431L21.642 25.4426H21.6405L21.6364 25.4424H21.6349L21.6301 25.4421H21.6299L21.6243 25.4419H21.6231L21.6189 25.4416H21.6175L21.6131 25.4414L21.6119 25.4411L21.6012 25.4407H21.5998L21.5954 25.4404L21.5944 25.4402L21.5893 25.4399H21.5891L21.5835 25.4397H21.5828L21.5782 25.4394L21.5767 25.4392L21.5726 25.439H21.5714L21.5605 25.4382L21.5595 25.438L21.5551 25.4377H21.5539L21.5488 25.4373H21.5486L21.543 25.4368H21.5425L21.5377 25.4365L21.5367 25.4363L21.5321 25.436H21.5311L21.52 25.4351H21.5195L21.5144 25.4346H21.5137C21.5081 25.4341 21.5028 25.4336 21.4972 25.4331H21.4962L21.4916 25.4327H21.4906L21.48 25.4317H21.479L21.4744 25.4312H21.4734L21.4623 25.4302L21.4569 25.4297L21.4562 25.4295L21.4511 25.429H21.4509L21.4399 25.428L21.4387 25.4278L21.4344 25.4273H21.4334L21.4281 25.4268L21.4225 25.4261H21.4217L21.4171 25.4256L21.4159 25.4254L21.4113 25.4249H21.4106L21.3997 25.4237H21.3992L21.3941 25.4232L21.3934 25.423C21.388 25.4225 21.3822 25.4217 21.3766 25.421H21.3764C21.3708 25.4205 21.3652 25.4198 21.3597 25.4191H21.3594L21.3541 25.4183H21.3538C21.348 25.4176 21.3424 25.4169 21.3369 25.4162H21.3366C21.3102 25.4128 21.284 25.4091 21.2575 25.405C20.7751 25.3313 20.3128 25.1608 19.8983 24.9034H19.8981C19.892 24.8995 19.8857 24.8959 19.8797 24.892L19.8794 24.8918L19.8702 24.886L19.8658 24.8833L19.8653 24.8828L19.8612 24.8804L19.861 24.8801L19.852 24.8743L19.8513 24.8738L19.8476 24.8716L19.8382 24.8653L19.8377 24.8651L19.8338 24.8627L19.8328 24.8622C19.8285 24.8593 19.8244 24.8564 19.82 24.8535L19.819 24.853L19.8156 24.8508L19.8147 24.8501L19.8062 24.8445L19.7974 24.8387L19.7967 24.8379L19.7923 24.8353L19.7919 24.8348L19.7885 24.8326L19.7797 24.8268L19.7785 24.8258L19.7746 24.8231L19.7732 24.8224L19.7703 24.8202L19.7659 24.8173L19.7647 24.8166L19.7608 24.8137L19.7596 24.813L19.7567 24.811L19.755 24.8098L19.7526 24.8081L19.7509 24.8071L19.747 24.8042L19.7431 24.8016L19.7416 24.8006L19.739 24.7986L19.7375 24.7977L19.7349 24.7957L19.7332 24.7948L19.7293 24.7921L19.7283 24.7914L19.7254 24.7894L19.7237 24.788L19.7213 24.7865L19.7196 24.7853L19.7157 24.7824C19.3058 24.4926 18.7387 24.5898 18.4489 24.9997C18.1593 25.4096 18.2566 25.9767 18.6662 26.2665C18.6665 26.2665 18.6665 26.2668 18.6667 26.2668C21.1271 28.0034 24.5292 27.4169 26.2661 24.9565C28.0027 22.4962 27.4162 19.0938 24.9559 17.3572C24.0441 16.7137 22.9573 16.3652 21.8413 16.3591C21.8353 16.3581 21.8295 16.3581 21.8234 16.3581Z" fill="#FFFC74"/>
<path d="M32.7288 16.3581C32.7247 16.3581 32.7206 16.3581 32.7164 16.3581C32.708 16.3581 32.6997 16.3584 32.6915 16.3586L32.5673 16.3601C32.0735 16.3654 31.6774 16.77 31.6827 17.2638C31.6827 17.2694 31.683 17.2752 31.6832 17.281C31.698 17.7792 32.1055 18.1757 32.6039 18.1772C32.608 18.1772 32.6122 18.1772 32.6163 18.1772C32.6238 18.177 32.6313 18.1767 32.6388 18.1767H32.6405L32.6434 18.1765H32.6488L32.6531 18.1762H32.673L32.6781 18.176H32.7164C34.7242 18.176 36.3517 19.8035 36.3517 21.8112C36.3517 23.8188 34.7242 25.4462 32.7164 25.4462H32.6628L32.6587 25.446H32.6449L32.641 25.4457H32.6337L32.6289 25.4455H32.6236L32.6216 25.4453H32.6163L32.6112 25.445H32.6056L32.6041 25.4448H32.5986L32.5935 25.4445H32.5932L32.5881 25.4443H32.5864L32.5826 25.4441H32.5811L32.577 25.4438H32.5755L32.5702 25.4436H32.5649L32.5634 25.4433H32.5593L32.5578 25.4431L32.5472 25.4426H32.5459L32.5418 25.4424H32.5404L32.5353 25.4421H32.535L32.5294 25.4419H32.5282L32.5241 25.4416H32.5227L32.5185 25.4414L32.5173 25.4411L32.5064 25.4407H32.5052L32.5008 25.4404L32.4999 25.4402L32.4948 25.4399H32.4943L32.4887 25.4397H32.488L32.4836 25.4394L32.4819 25.4392L32.4778 25.439H32.4766L32.4659 25.4382L32.4649 25.438L32.4606 25.4377H32.4591L32.4543 25.4373H32.4538L32.4484 25.4368H32.4477L32.4429 25.4365L32.4419 25.4363L32.4373 25.436H32.4363L32.4252 25.4351H32.4247L32.4198 25.4346H32.4191C32.4135 25.4341 32.4079 25.4336 32.4026 25.4331H32.4014L32.397 25.4327H32.396L32.3851 25.4317H32.3842L32.3796 25.4312H32.3786L32.3677 25.4302H32.3674L32.3621 25.4297L32.3614 25.4295L32.3563 25.429H32.356L32.3451 25.428L32.3439 25.4278L32.3395 25.4273H32.3386L32.3332 25.4268L32.3276 25.4261H32.3269L32.3223 25.4256L32.3213 25.4254L32.3165 25.4249H32.316L32.3049 25.4237H32.3044L32.2993 25.4232L32.2988 25.4229C32.2932 25.4225 32.2876 25.4217 32.2821 25.421H32.2818C32.2762 25.4205 32.2704 25.4198 32.2648 25.4191L32.2593 25.4183H32.259C32.2534 25.4176 32.2479 25.4169 32.2423 25.4162H32.242C32.2156 25.4128 32.1892 25.4091 32.1627 25.405C31.6805 25.3313 31.218 25.1608 30.8035 24.9034H30.8033C30.7972 24.8995 30.7911 24.8959 30.7851 24.892L30.7848 24.8918L30.7756 24.886L30.7712 24.8833L30.7708 24.8828L30.7666 24.8804L30.7662 24.8801L30.7567 24.8738L30.7531 24.8716L30.7523 24.8712L30.7434 24.8653L30.7431 24.8651L30.7392 24.8627L30.7383 24.8622C30.7339 24.8593 30.7295 24.8564 30.7252 24.8535L30.7244 24.853L30.721 24.8508L30.7201 24.8501L30.7113 24.8445L30.7109 24.844L30.7072 24.8416L30.7062 24.8411L30.7029 24.8387L30.7019 24.8379L30.6978 24.8353L30.6973 24.8348L30.6936 24.8326L30.6922 24.8316L30.6895 24.8297L30.6851 24.8268L30.6839 24.8258L30.6798 24.8231L30.6786 24.8224L30.6757 24.8202L30.6713 24.8173L30.6701 24.8166L30.6662 24.8137L30.6648 24.813L30.6619 24.811L30.6604 24.8098L30.658 24.8081L30.6563 24.8071L30.6534 24.8049L30.6522 24.8042L30.6483 24.8016L30.6468 24.8006L30.6442 24.7986L30.6427 24.7977L30.64 24.7957L30.6386 24.7948L30.6347 24.7921L30.6337 24.7914L30.6308 24.7894L30.6289 24.788L30.6267 24.7865L30.625 24.7853L30.6211 24.7824C30.2115 24.4923 29.6442 24.5893 29.3541 24.9987C29.064 25.4084 29.161 25.9757 29.5707 26.2658C29.5711 26.266 29.5716 26.2663 29.5719 26.2668C32.0322 28.0034 35.4346 27.4167 37.1712 24.9565C38.9081 22.4962 38.3214 19.0938 35.861 17.3569C34.9495 16.7135 33.8625 16.3652 32.7468 16.3591C32.7407 16.3581 32.7346 16.3581 32.7288 16.3581Z" fill="#FFFC74"/>
<path d="M21.811 18.1757C19.8032 18.1757 18.1757 19.8032 18.1757 21.811V21.8585L18.176 21.8619V21.8769L18.1762 21.8808V21.8891L18.1764 21.8922V21.8978L18.1767 21.9002V21.9089L18.1769 21.9116V21.9172L18.1772 21.9206V21.9262L18.1774 21.9284V21.9349L18.1777 21.9395V21.9412L18.1779 21.9451V21.9473L18.1781 21.9507V21.9531L18.1784 21.9562V21.9587L18.1786 21.9618V21.9642L18.1789 21.9676V21.9698L18.1791 21.9732V21.9754L18.1794 21.9793V21.981L18.1796 21.9849V21.9868L18.1798 21.9917V21.9921L18.1803 21.9977V21.9994L18.1806 22.0035V22.0052L18.1808 22.0091V22.0111L18.1811 22.0147L18.1813 22.0166V22.0203L18.1815 22.0225L18.1818 22.0261V22.028L18.182 22.0317L18.1823 22.0336L18.1825 22.0373V22.0392L18.1828 22.0428L18.183 22.0448L18.1832 22.0491V22.0504L18.184 22.0615V22.063L18.1845 22.0671V22.0688L18.1847 22.0727L18.1849 22.0746L18.1852 22.0782L18.1854 22.0804L18.1857 22.0838V22.086L18.1859 22.0894L18.1861 22.0916L18.1864 22.095V22.0972L18.1869 22.1008V22.1027L18.1874 22.1069V22.1081L18.1878 22.1132V22.1137L18.1888 22.1248V22.1265L18.1893 22.1304V22.1326L18.1898 22.136L18.19 22.1382L18.1903 22.1415L18.1905 22.1437L18.1908 22.1471L18.191 22.1493L18.1912 22.1529L18.1915 22.1549L18.1917 22.1585L18.192 22.1605L18.1925 22.1641V22.166L18.1929 22.1702L18.1932 22.1714L18.1934 22.1762L18.1937 22.1787L18.1942 22.1825L18.1944 22.1847L18.1946 22.1879L18.1949 22.1903L18.1954 22.1937L18.1956 22.1961L18.1959 22.199L18.1966 22.207L18.1971 22.2099L18.1973 22.2126L18.1975 22.2158L18.1978 22.2179L18.1983 22.2213L18.1985 22.2235L18.1988 22.2269L18.199 22.2289L18.2005 22.2398V22.2412L18.2009 22.2454L18.2012 22.2471L18.2017 22.2507L18.2019 22.2529L18.2022 22.2565L18.2024 22.2585L18.2029 22.2619L18.2031 22.264L18.2036 22.2674L18.2039 22.2696L18.2043 22.2728L18.2046 22.2749L18.2051 22.2786L18.2058 22.2844L18.206 22.2859L18.2065 22.2902V22.2914L18.2082 22.3026V22.3028L18.2089 22.3079V22.3091L18.2097 22.3135V22.315L18.2104 22.3191L18.2106 22.3208L18.2111 22.3244L18.2114 22.3261L18.2119 22.33L18.2121 22.3317L18.2126 22.3356L18.2128 22.3373L18.2136 22.3412L18.2138 22.3429L18.2143 22.3472L18.2145 22.3482C18.2153 22.3538 18.2162 22.3591 18.217 22.3647L18.2172 22.3661L18.2179 22.3703V22.3715L18.2187 22.3756L18.2189 22.3773L18.2196 22.3812L18.2199 22.3829L18.2203 22.3865L18.2206 22.3885L18.2213 22.3921L18.2216 22.3938L18.2223 22.3979V22.3991L18.223 22.4037L18.2233 22.4047L18.224 22.4093L18.2242 22.4103C18.2252 22.4156 18.2259 22.4212 18.2269 22.4268L18.2271 22.4278L18.2281 22.4336L18.2288 22.4377L18.2291 22.4389L18.2298 22.443L18.2301 22.4445L18.2308 22.4486L18.231 22.4501L18.2317 22.4539L18.232 22.4556L18.2327 22.4595L18.2339 22.4656V22.4663C18.2354 22.4736 18.2366 22.4809 18.2381 22.4881L18.2383 22.4891L18.2393 22.4949L18.24 22.4988L18.2402 22.5005L18.241 22.5044L18.2414 22.5061L18.2422 22.5097L18.2424 22.5114L18.2431 22.5153L18.2434 22.5168L18.2444 22.5214L18.2446 22.5221L18.2478 22.5383L18.248 22.5388L18.249 22.5437L18.2492 22.5454L18.2502 22.549L18.2504 22.5507L18.2512 22.5546L18.2516 22.5563L18.2524 22.5599L18.2528 22.5614L18.2536 22.5655L18.2538 22.5667L18.2548 22.5711L18.255 22.5721L18.256 22.5764L18.2572 22.5825V22.5827C18.2584 22.5883 18.2596 22.5936 18.2609 22.5992V22.5995L18.2621 22.6048L18.2623 22.6053L18.2633 22.6099L18.2635 22.6111L18.2645 22.6152L18.2647 22.6164L18.2657 22.6206L18.2659 22.622L18.2669 22.6262L18.2672 22.6274L18.2681 22.6315L18.2684 22.6327L18.2696 22.6375V22.638C18.2713 22.6453 18.273 22.6526 18.2747 22.6599L18.2759 22.6652L18.2761 22.6657L18.2773 22.6705V22.6715L18.2786 22.6756L18.2788 22.6768L18.2798 22.6815L18.28 22.6822L18.2812 22.6868L18.2815 22.6875L18.2827 22.6924V22.6929L18.2839 22.6982C18.2854 22.7038 18.2868 22.7091 18.288 22.7144L18.2883 22.7149L18.2897 22.7207L18.2909 22.7251L18.2912 22.7261L18.2924 22.7304L18.2926 22.7317L18.2936 22.7358L18.2938 22.737L18.2951 22.7411L18.2965 22.7469L18.2968 22.7474L18.298 22.7525L18.2982 22.7528C18.3001 22.76 18.3018 22.7671 18.304 22.7743V22.7746L18.3055 22.7794L18.3057 22.7802L18.3069 22.7848L18.3072 22.7855L18.3084 22.7901L18.3086 22.7908L18.3098 22.7954L18.3101 22.7962L18.3115 22.801V22.8015L18.313 22.8064V22.8068C18.3157 22.8158 18.3181 22.8246 18.3208 22.8335V22.8338L18.3222 22.8389L18.3225 22.8393L18.3239 22.844V22.8447L18.3254 22.8493L18.3256 22.85L18.3268 22.8546L18.3271 22.8554C18.3307 22.8677 18.3346 22.8801 18.3385 22.8922V22.8929L18.3399 22.8976L18.3402 22.8983L18.3416 22.9029L18.3419 22.9036L18.3433 22.9082L18.3436 22.9087L18.345 22.9136L18.3453 22.914C18.3496 22.9281 18.3542 22.9424 18.3588 22.9563L18.3625 22.9669C18.3678 22.9827 18.3732 22.9985 18.3787 23.0142L18.3804 23.0193L18.3807 23.0198C18.3855 23.0339 18.3906 23.0474 18.3957 23.0613V23.0615C18.7314 23.9752 19.4185 24.7169 20.3041 25.121C20.321 25.1287 20.3378 25.1362 20.3545 25.1435L20.3547 25.1438L20.3596 25.1457L20.3598 25.1459L20.3644 25.1479L20.3649 25.1481C20.3751 25.1525 20.3851 25.1568 20.3953 25.161L20.3955 25.1612L20.4003 25.1632L20.4006 25.1634L20.4052 25.1653L20.4059 25.1656L20.4103 25.1673L20.411 25.1675L20.4151 25.1695L20.4161 25.1697L20.4205 25.1716L20.421 25.1719L20.4258 25.1738H20.4261C20.4345 25.1775 20.4428 25.1809 20.4515 25.1843L20.452 25.1845L20.4564 25.1862L20.4573 25.1864L20.4615 25.1881L20.4622 25.1886L20.4666 25.1903L20.4675 25.1906L20.4714 25.1923L20.4726 25.1927L20.4765 25.1942L20.4777 25.1947L20.4818 25.1964L20.4826 25.1966C20.4911 25.1998 20.4995 25.2032 20.508 25.2066L20.5088 25.2068L20.5131 25.2085L20.5141 25.2088L20.518 25.2102L20.5194 25.2109L20.5233 25.2121L20.5243 25.2126L20.5282 25.2141L20.5296 25.2146L20.5335 25.216L20.5345 25.2165L20.5388 25.218L20.5396 25.2185L20.5444 25.2202H20.5447L20.5548 25.224L20.5558 25.2243L20.5599 25.2257L20.5616 25.2265L20.565 25.2277L20.5665 25.2282L20.5701 25.2296L20.5716 25.2301L20.5752 25.2316L20.5854 25.2349L20.5869 25.2357L20.5963 25.2388L20.597 25.2393L20.6021 25.241L20.6075 25.243H20.6077L20.6126 25.2446L20.6135 25.2451L20.6177 25.2463L20.6189 25.2468L20.6225 25.248L20.6245 25.2488L20.6276 25.25L20.6296 25.2505L20.6327 25.2517L20.6346 25.2522L20.6378 25.2534L20.6397 25.2541L20.6426 25.2548L20.6448 25.2558L20.6482 25.2568L20.6499 25.2575L20.6548 25.259L20.6652 25.2626L20.6669 25.2631L20.6703 25.2643L20.6722 25.2648L20.6754 25.266L20.6776 25.2667L20.6802 25.2674L20.6829 25.2684L20.6853 25.2691L20.688 25.2699L20.6904 25.2708L20.6929 25.2716L20.6955 25.2725L20.6982 25.2733L20.7006 25.274L20.7033 25.275L20.7055 25.2755L20.7098 25.2769L20.7212 25.2805L20.7232 25.2813L20.7263 25.2822L20.7283 25.2827L20.7314 25.2837L20.7336 25.2844L20.7363 25.2854L20.7387 25.2859L20.7414 25.2869L20.7438 25.2876L20.7467 25.2883L20.7486 25.289L20.7518 25.29L20.7537 25.2907L20.7569 25.2915L20.7588 25.2922L20.762 25.2932L20.7634 25.2934L20.7768 25.2975L20.7804 25.2985L20.7819 25.299L20.7855 25.2999L20.787 25.3004L20.7921 25.3019L20.7957 25.3029L20.7971 25.3033L20.8107 25.3072L20.8124 25.308L20.8161 25.3089H20.8166C20.8246 25.3113 20.8323 25.3135 20.8403 25.3157H20.8408L20.8449 25.3169L20.8459 25.3172L20.8498 25.3184L20.8512 25.3186L20.8549 25.3196L20.8563 25.3201L20.8612 25.3213L20.8653 25.3225L20.8663 25.3227L20.8704 25.3237L20.8711 25.324C20.8808 25.3266 20.8905 25.3291 20.9002 25.3317H20.9005L20.9051 25.3329H20.9053L20.9097 25.3341L20.9107 25.3344L20.9148 25.3354L20.9158 25.3356L20.9199 25.3366L20.9208 25.3368L20.925 25.3378L20.9257 25.338L20.9301 25.3392H20.9305C20.9388 25.3414 20.9468 25.3434 20.955 25.3453L20.9594 25.3463L20.9604 25.3465L20.9645 25.3475L20.9655 25.3477L20.9696 25.3487L20.9708 25.3489L20.9747 25.3499L20.9754 25.3502L20.98 25.3511L20.9805 25.3514C20.9936 25.3543 21.007 25.3574 21.02 25.3603H21.0205L21.0251 25.3613L21.0254 25.3616L21.0302 25.3625H21.0305C21.1178 25.3817 21.2061 25.3975 21.2958 25.4103C21.7928 25.4811 22.2529 25.1357 22.3237 24.6388C22.3946 24.1418 22.0492 23.6817 21.5522 23.6109C21.5517 23.6109 21.5512 23.6109 21.5507 23.6106C20.557 23.4673 19.8677 22.5456 20.0111 21.5519C20.1401 20.6577 20.9065 19.9938 21.81 19.9936C22.3121 19.9936 22.7188 19.5868 22.7188 19.085C22.7188 18.583 22.3128 18.1757 21.811 18.1757Z" fill="#F98B00"/>
<path d="M36.3515 21.8109C36.3515 23.8185 34.724 25.4459 32.7165 25.4459C30.7087 25.4459 29.0812 23.8185 29.0812 21.8109C29.0812 19.8032 30.7087 18.1757 32.7165 18.1757C34.724 18.1757 36.3515 19.8032 36.3515 21.8109Z" fill="#FFA300"/>
<path d="M32.7165 18.1757C30.7087 18.1757 29.0812 19.8032 29.0812 21.811V21.8585L29.0815 21.8619V21.8769L29.0817 21.8808V21.8891L29.082 21.8922V21.9002L29.0822 21.9034V21.9116L29.0825 21.9148V21.9206L29.0827 21.9228V21.9284L29.0829 21.9327V21.9349L29.0832 21.9395V21.9412L29.0834 21.9451V21.9473L29.0837 21.9507V21.9531L29.0839 21.9562V21.9587L29.0841 21.9618V21.9642L29.0844 21.9676V21.9698L29.0846 21.9732V21.9754L29.0849 21.9793V21.981L29.0851 21.9849V21.9868L29.0854 21.9917V21.9921L29.0858 21.9977V21.9994L29.0861 22.0035V22.0052L29.0863 22.0091V22.0111L29.0866 22.0147L29.0868 22.0166V22.0203L29.0871 22.0225L29.0873 22.0261V22.028L29.0875 22.0317V22.0336L29.0878 22.0373L29.088 22.0392L29.0883 22.0428L29.0885 22.0448L29.0888 22.0491V22.0504L29.0895 22.0615V22.063L29.09 22.0671V22.0688L29.0902 22.0727L29.0905 22.0746L29.0907 22.0782L29.0909 22.0804L29.0912 22.0838V22.086L29.0914 22.0894L29.0917 22.0916L29.0919 22.095V22.0972L29.0924 22.1008V22.1027L29.0929 22.1069V22.1081L29.0934 22.1132V22.1137L29.0943 22.1248V22.1265L29.0948 22.1304L29.0951 22.1326L29.0953 22.136L29.0955 22.1382L29.0958 22.1415L29.096 22.1437L29.0963 22.1471L29.0965 22.1493L29.0968 22.1529L29.097 22.1549L29.0972 22.1585L29.0975 22.1605L29.098 22.1641V22.166L29.0985 22.1702L29.0987 22.1714L29.0994 22.1787L29.0997 22.1825L29.0999 22.1847L29.1002 22.1879L29.1004 22.1903L29.1009 22.1937L29.1011 22.1961L29.1014 22.199L29.1016 22.2017L29.1021 22.2044L29.1023 22.207L29.1026 22.2099L29.1028 22.2126L29.1031 22.2158L29.1033 22.2179L29.1038 22.2213L29.104 22.2235L29.1045 22.2269L29.1048 22.2289L29.106 22.2398V22.2412L29.1065 22.2454L29.1067 22.2471L29.1072 22.2507L29.1074 22.2529L29.1079 22.2565L29.1082 22.2585L29.1084 22.2619L29.1086 22.264L29.1091 22.2674L29.1094 22.2696L29.1099 22.2728L29.1101 22.2749L29.1106 22.2786L29.1113 22.2844L29.1116 22.2859L29.112 22.2902L29.1123 22.2914L29.1137 22.3026V22.3028L29.1145 22.3079L29.1147 22.3091L29.1152 22.3135L29.1154 22.315L29.1159 22.3191L29.1162 22.3208L29.1166 22.3244L29.1169 22.3261L29.1176 22.33L29.1179 22.3317L29.1183 22.3356L29.1186 22.3373L29.1191 22.3412L29.1193 22.3429L29.12 22.3472L29.1203 22.3482C29.121 22.3538 29.1217 22.3591 29.1227 22.3647L29.123 22.3661L29.1234 22.3703L29.1237 22.3715L29.1244 22.3756L29.1247 22.3773L29.1251 22.3812L29.1254 22.3829L29.1261 22.3865L29.1264 22.3885L29.1268 22.3921L29.1271 22.3938L29.1278 22.3979L29.128 22.3991L29.1288 22.4037L29.129 22.4047L29.1297 22.4093V22.4103C29.1307 22.4156 29.1317 22.4212 29.1327 22.4268V22.4278L29.1336 22.4321L29.1339 22.4336L29.1346 22.4377L29.1348 22.4389L29.1356 22.443L29.1358 22.4445L29.1365 22.4486L29.1368 22.4501L29.1373 22.4539L29.1378 22.4556L29.1385 22.4595L29.1387 22.4607L29.1394 22.4656L29.1397 22.4663C29.1409 22.4736 29.1424 22.4809 29.1438 22.4881V22.4891L29.1448 22.4935L29.145 22.4949L29.1458 22.4988L29.146 22.5005L29.1467 22.5044L29.147 22.5061L29.1477 22.5097L29.1482 22.5114L29.1489 22.5153L29.1492 22.5168L29.1501 22.5214V22.5221L29.1535 22.5383V22.5388L29.1547 22.5437L29.155 22.5454L29.1557 22.549L29.1562 22.5507L29.1569 22.5546L29.1574 22.5563L29.1581 22.5599L29.1584 22.5614L29.1593 22.5655L29.1596 22.5667L29.1605 22.5711L29.1608 22.5721L29.1618 22.5764L29.163 22.5825V22.5827C29.1642 22.5883 29.1654 22.5936 29.1666 22.5992V22.5995L29.1678 22.6048L29.1681 22.6053L29.169 22.6099L29.1693 22.6111L29.1703 22.6152L29.1705 22.6164L29.1715 22.6206L29.1717 22.622L29.1727 22.6262L29.1729 22.6274L29.1739 22.6315L29.1741 22.6327L29.1753 22.6375V22.638C29.177 22.6453 29.1787 22.6526 29.1804 22.6599L29.1817 22.6652L29.1819 22.6657L29.1831 22.6705V22.6715L29.1843 22.6756L29.1846 22.6768L29.1855 22.6815L29.1858 22.6822L29.187 22.6868L29.1872 22.6875L29.1884 22.6924V22.6929L29.1897 22.6982C29.1911 22.7038 29.1926 22.7091 29.1938 22.7144L29.194 22.7149L29.1955 22.7207L29.1967 22.7251L29.1969 22.7261L29.1979 22.7304L29.1984 22.7317L29.1994 22.7358L29.1996 22.737L29.2008 22.7411L29.2023 22.7469L29.2025 22.7474L29.2037 22.7525L29.204 22.7528C29.2057 22.76 29.2076 22.7671 29.2098 22.7743V22.7746L29.2112 22.7794V22.7802L29.2127 22.7848L29.2129 22.7855L29.2142 22.7901L29.2144 22.7908L29.2156 22.7954L29.2158 22.7962L29.2173 22.801V22.8015L29.2188 22.8064V22.8068C29.2214 22.8158 29.2239 22.8246 29.2265 22.8335V22.8338L29.228 22.8389L29.2282 22.8393L29.2294 22.844L29.2297 22.8447L29.2311 22.8493L29.2314 22.85L29.2326 22.8546L29.2328 22.8554C29.2365 22.8677 29.2403 22.8801 29.2442 22.8922V22.8929L29.2457 22.8976L29.2459 22.8983L29.2474 22.9029L29.2476 22.9036L29.2491 22.9082L29.2493 22.9087L29.2508 22.9136L29.251 22.914C29.2554 22.9281 29.26 22.9424 29.2646 22.9563L29.2682 22.9669C29.2736 22.9827 29.2789 22.9985 29.2845 23.0142L29.2862 23.0193L29.2864 23.0198C29.2913 23.0339 29.2964 23.0474 29.3015 23.0613V23.0615C29.6371 23.9752 30.3243 24.7169 31.2098 25.121C31.2268 25.1287 31.2435 25.1362 31.2602 25.1435L31.2605 25.1438L31.2653 25.1457L31.2656 25.1459L31.2702 25.1479L31.2707 25.1481C31.2809 25.1525 31.2908 25.1568 31.301 25.161L31.3012 25.1612L31.3061 25.1632L31.3063 25.1634L31.3109 25.1653L31.3117 25.1656L31.316 25.1673L31.3168 25.1675L31.3209 25.1695L31.3219 25.1697L31.3262 25.1716L31.3267 25.1719L31.3316 25.1738H31.3318C31.3403 25.1775 31.3485 25.1809 31.3573 25.1843L31.3578 25.1845L31.3621 25.1862L31.3631 25.1864L31.3672 25.1881L31.3679 25.1886L31.3723 25.1903L31.373 25.1906L31.3772 25.1923L31.3781 25.1927L31.3822 25.1942L31.3832 25.1947L31.3876 25.1964L31.3883 25.1966C31.3968 25.1998 31.4053 25.2032 31.4138 25.2066L31.4145 25.2068L31.4189 25.2085L31.4198 25.2088L31.4237 25.2102L31.4252 25.2109L31.4291 25.2121L31.43 25.2126L31.4339 25.2141L31.4354 25.2146L31.4392 25.216L31.4402 25.2165L31.4446 25.218L31.4453 25.2185L31.4502 25.2202H31.4504L31.4606 25.224L31.4616 25.2243L31.4657 25.2257L31.4674 25.2265L31.4708 25.2277L31.4722 25.2282L31.4759 25.2296L31.4773 25.2301L31.481 25.2316L31.4912 25.2349L31.4926 25.2357L31.5021 25.2388L31.5028 25.2393L31.5079 25.241L31.5132 25.243H31.5135L31.5183 25.2446L31.5193 25.2451L31.5234 25.2463L31.5246 25.2468L31.5283 25.248L31.5302 25.2488L31.5334 25.25L31.5353 25.2505L31.5384 25.2517L31.5404 25.2522L31.5435 25.2534L31.5455 25.2541L31.5484 25.2548L31.5506 25.2558L31.5537 25.2568L31.5557 25.2575L31.5605 25.259L31.5709 25.2626L31.576 25.2643L31.578 25.2648L31.5811 25.266L31.5833 25.2667L31.586 25.2674L31.5887 25.2684L31.5911 25.2691L31.5937 25.2699L31.5962 25.2708L31.5986 25.2716L31.6013 25.2725L31.6039 25.2733L31.6064 25.274L31.609 25.275L31.6112 25.2755L31.6156 25.2769L31.627 25.2805L31.6289 25.2813L31.6321 25.2822L31.634 25.2827L31.6372 25.2837L31.6393 25.2844L31.642 25.2854L31.6444 25.2859L31.6471 25.2869L31.6495 25.2876L31.6524 25.2883L31.6544 25.289L31.6575 25.29L31.6595 25.2907L31.6626 25.2915L31.6646 25.2922L31.6677 25.2932L31.6692 25.2934L31.6823 25.2975H31.6825L31.6862 25.2985L31.6876 25.299L31.6912 25.2999L31.6927 25.3004L31.6978 25.3019L31.7014 25.3029L31.7029 25.3033L31.7165 25.3072L31.7182 25.308L31.7218 25.3089H31.7223C31.7303 25.3113 31.7381 25.3135 31.7461 25.3157H31.7465L31.7507 25.3169L31.7516 25.3172L31.7555 25.3184L31.757 25.3186L31.7606 25.3196L31.7621 25.3201L31.7669 25.3213L31.771 25.3225L31.7718 25.3227L31.7761 25.3237L31.7769 25.324C31.7866 25.3266 31.7963 25.3291 31.806 25.3317L31.8108 25.3329H31.8111L31.8154 25.3341L31.8164 25.3344L31.8205 25.3354L31.8215 25.3356L31.8256 25.3366L31.8266 25.3368L31.8307 25.3378L31.8314 25.338L31.8358 25.3392H31.8365C31.8445 25.3414 31.8525 25.3434 31.8608 25.3453L31.8652 25.3463L31.8661 25.3465L31.8705 25.3475L31.8712 25.3477L31.8753 25.3487L31.8766 25.3489L31.8807 25.3499L31.8814 25.3502L31.8858 25.3511L31.8863 25.3514C31.8994 25.3543 31.9127 25.3574 31.9258 25.3603H31.9263L31.9309 25.3613L31.9311 25.3616L31.936 25.3625H31.9362C32.0235 25.3817 32.1118 25.3975 32.2016 25.4103C32.6985 25.4811 33.1586 25.1357 33.2295 24.6388C33.3003 24.1418 32.9549 23.6817 32.4579 23.6109C32.4574 23.6109 32.457 23.6109 32.4565 23.6106C31.4628 23.4673 30.7735 22.5456 30.9168 21.5519C31.0458 20.6577 31.8123 19.9938 32.7158 19.9936C33.2178 19.9936 33.6246 19.5868 33.6246 19.085C33.6246 18.583 33.2183 18.1757 32.7165 18.1757Z" fill="#F98B00"/>
<path d="M5.45462 19.9933C4.45074 19.9943 3.63603 19.1815 3.63506 18.1777C3.63434 17.4884 4.02338 16.858 4.63992 16.5497L5.02411 16.3581L4.63992 16.1665C3.74203 15.7175 3.37797 14.6256 3.82692 13.7277C4.27586 12.8298 5.36779 12.4658 6.26569 12.9147L9.90093 14.7323C10.7988 15.1815 11.1626 16.2737 10.7134 17.1716C10.5376 17.523 10.2524 17.8083 9.90093 17.9841L6.26569 19.8017C6.01393 19.9279 5.73622 19.9933 5.45462 19.9933Z" fill="#163969"/>
<path d="M9.44521 18.3186C9.30429 18.3188 9.16531 18.3516 9.03943 18.4149C9.03943 18.4149 6.63704 19.616 6.30378 19.7826L6.30136 19.7838L6.29772 19.7857L6.29626 19.7865L6.28535 19.7918L6.28414 19.7925L6.2657 19.8018C6.01394 19.9279 5.73623 19.9934 5.45464 19.9934H5.42019L5.41753 19.9931H5.40516L5.40152 19.9929H5.39327L5.38988 19.9926H5.38624L5.38503 19.9924H5.38163L5.37799 19.9922H5.37338L5.37047 19.9919H5.36975L5.36247 19.9917H5.36174L5.35883 19.9914H5.3581L5.35083 19.9909H5.3501L5.34719 19.9907H5.34646L5.33919 19.9902H5.33555L5.33482 19.99L5.33142 19.9897H5.33118L5.32754 19.9895H5.32682L5.3239 19.9892H5.32293L5.31978 19.989H5.31954L5.31566 19.9888H5.31542L5.31202 19.9885H5.31154L5.3079 19.988L5.30402 19.9878H5.30377L5.30038 19.9875H5.29989L5.29674 19.9866H5.2965L5.28898 19.9861H5.28874C5.28486 19.9856 5.28097 19.9854 5.27734 19.9849H5.27709L5.27346 19.9846H5.27321L5.26569 19.9839H5.26545C5.26036 19.9832 5.25526 19.9827 5.25017 19.9822C5.23489 19.9805 5.21937 19.9786 5.20409 19.9764H5.20385C4.784 19.9187 4.39739 19.7159 4.11094 19.4033C3.77332 19.0319 3.19849 19.0048 2.82716 19.3426C2.45607 19.6805 2.4289 20.2553 2.76677 20.6264C2.76749 20.6274 2.76822 20.6281 2.76895 20.6288C3.86573 21.8277 5.6249 22.1537 7.07847 21.4275L9.8522 20.0407C10.3011 19.8161 10.4831 19.2701 10.2587 18.8212C10.1047 18.5129 9.78962 18.3186 9.44521 18.3186Z" fill="#5E7599"/>
<path d="M30.8989 29.0812H23.6287C22.6248 29.0812 21.811 29.895 21.811 30.8989C21.811 33.9103 24.2522 36.3515 27.2636 36.3515H27.2806C27.2818 36.3515 27.2828 36.3515 27.284 36.3515H27.3012C27.3029 36.3515 27.3046 36.3512 27.3063 36.3512H27.3265C27.3286 36.351 27.3301 36.351 27.3323 36.351H27.3352C27.3371 36.351 27.3393 36.351 27.3413 36.351H27.3434C27.3459 36.3508 27.3483 36.3508 27.3507 36.3508H27.3519C27.3694 36.3505 27.3866 36.35 27.4043 36.3498H27.4048C27.4075 36.3495 27.4104 36.3495 27.413 36.3495H27.4133C27.5377 36.3461 27.6609 36.3386 27.7832 36.327C28.2828 36.2777 28.6478 35.8329 28.5986 35.3335C28.5528 34.8688 28.1623 34.5142 27.6954 34.5137C27.6667 34.5137 27.6381 34.5152 27.6095 34.5179C27.4955 34.5285 27.3803 34.5339 27.2636 34.5339C25.2571 34.5317 23.6308 32.9054 23.6287 30.8989H30.8989C31.4007 30.8989 31.8077 30.4919 31.8077 29.99C31.8077 29.4882 31.4007 29.0812 30.8989 29.0812Z" fill="#F98B00"/>
<path d="M38.1691 12.7231C38.1691 13.727 37.3554 14.5407 36.3515 14.5407C35.3479 14.5407 34.5339 13.727 34.5339 12.7231C34.5339 11.7192 35.3479 10.9055 36.3515 10.9055C37.3554 10.9055 38.1691 11.7192 38.1691 12.7231Z" fill="#FFEA21"/>
<path d="M9.99574 16.3581C9.85506 16.3581 9.71609 16.3252 9.59021 16.2623L5.95498 14.4447C5.50603 14.2203 5.32412 13.6744 5.54848 13.2254C5.77307 12.7765 6.31903 12.5943 6.76798 12.8189L10.4032 14.6363C10.8522 14.8609 11.0341 15.4066 10.8097 15.8556C10.6557 16.1641 10.3404 16.3586 9.99574 16.3581Z" fill="#002755"/>
<path d="M7.27025 6.36145C7.27025 7.8674 6.04977 9.08788 4.54382 9.08788C3.03811 9.08788 1.81763 7.8674 1.81763 6.36145C1.81763 4.85573 3.03811 3.63525 4.54382 3.63525C6.04977 3.63525 7.27025 4.85573 7.27025 6.36145Z" fill="#5E7599"/>
</svg>
