<svg width="40" height="40" viewBox="0 0 40 40" fill="none" xmlns="http://www.w3.org/2000/svg">
<g clip-path="url(#clip0)">
<path d="M7.28379 19.9933H32.7299C34.7374 19.9933 36.3649 21.6207 36.3649 23.6285V34.5337C36.3649 36.5415 34.7374 38.1689 32.7299 38.1689H7.28379C5.27602 38.1689 3.64856 36.5415 3.64856 34.5337V23.6285C3.64856 21.6207 5.27602 19.9933 7.28379 19.9933Z" fill="#163969"/>
<path d="M10.0102 19.9933H30.0035C31.5092 19.9933 32.7299 21.2137 32.7299 22.7197C32.7299 24.2254 31.5092 25.4458 30.0035 25.4458H10.0102C8.50453 25.4458 7.28381 24.2254 7.28381 22.7197C7.28381 21.214 8.50453 19.9933 10.0102 19.9933Z" fill="#002755"/>
<path d="M9.10143 18.1757H30.9123C31.916 18.1757 32.7297 18.9894 32.7297 19.9933C32.7297 20.9972 31.916 21.8109 30.9123 21.8109H9.10143C8.09754 21.8109 7.28381 20.9972 7.28381 19.9933C7.28381 18.9894 8.09754 18.1757 9.10143 18.1757Z" fill="#33527D"/>
<path d="M20.0068 23.6285L5.37083 27.62C2.20783 28.4827 0.0135498 31.3556 0.0135498 34.6341V36.3513C0.0135498 38.3591 1.64101 39.9865 3.64853 39.9865H36.3648C38.3726 39.9865 40.0001 38.3591 40.0001 36.3513V34.6341C40.0001 31.3556 37.8058 28.4827 34.6428 27.62L20.0068 23.6285Z" fill="#B19CDC"/>
<path d="M20.0068 23.6285L5.37083 27.62C2.20783 28.4827 0.0135498 31.3556 0.0135498 34.6341V36.3513C0.0135498 38.3591 1.64101 39.9865 3.64853 39.9865H36.3648C38.3726 39.9865 40.0001 38.3591 40.0001 36.3513V34.6341C40.0001 31.3556 37.8058 28.4827 34.6428 27.62L20.0068 23.6285Z" fill="#0784FF"/>
<path d="M20.0068 34.5337C23.9821 34.5737 27.237 31.3838 27.2771 27.4085C27.2834 26.7818 27.2079 26.157 27.0525 25.5499L20.0068 23.6285L12.9612 25.5499C11.9748 29.401 14.2971 33.3227 18.1482 34.3091C18.7553 34.4646 19.3801 34.5402 20.0068 34.5337Z" fill="#FFBE00"/>
<path d="M13.6451 12.7231H14.5539V18.1757H13.6451C12.1397 18.1757 10.9189 16.9552 10.9189 15.4495C10.9189 13.9435 12.1394 12.7231 13.6451 12.7231Z" fill="#FFBE00"/>
<path d="M20.0068 23.6285L14.6245 25.0963C14.5891 25.2101 14.5654 25.3272 14.554 25.4458C14.554 26.4497 15.3677 27.2635 16.3716 27.2635H18.1892C21.2006 27.2635 23.6418 29.7046 23.642 32.716C23.6428 32.9661 23.6954 33.213 23.7968 33.4412C26.515 31.8264 27.8412 28.6115 27.0524 25.5499L20.0068 23.6285Z" fill="#FFA300"/>
<path d="M23.6419 24.6197L20.0069 23.6285L16.3717 24.6197V27.2635H18.1893C20.4935 27.2681 22.5444 28.7245 23.3082 30.8987H23.6422L23.6419 24.6197Z" fill="#FFA300"/>
<path d="M26.3682 18.1757H25.4594V12.7231H26.3682C27.8739 12.7231 29.0946 13.9435 29.0946 15.4492C29.0946 16.9552 27.8739 18.1757 26.3682 18.1757Z" fill="#FFA300"/>
<path d="M20.0069 5.45261C24.0222 5.45261 27.2771 8.70777 27.2771 12.7231V18.1757C27.2771 22.1909 24.0222 25.4459 20.0069 25.4459C15.9916 25.4459 12.7365 22.1909 12.7365 18.1757V12.7231C12.7367 8.70777 15.9916 5.45261 20.0069 5.45261Z" fill="#FFBE00"/>
<path d="M12.7366 12.7231V18.1757C12.7396 20.2011 13.5923 22.1323 15.0871 23.499C18.9889 24.2506 22.761 21.6969 23.5126 17.7951C23.6038 17.3217 23.6472 16.8402 23.6421 16.358V10.9054C23.6392 8.87996 22.7864 6.94884 21.2916 5.58211C17.3898 4.83071 13.6176 7.38444 12.8659 11.286C12.7747 11.7597 12.7313 12.2409 12.7366 12.7231Z" fill="#FFEA21"/>
<path d="M18.1893 15.4492C18.1893 15.9513 17.7823 16.358 17.2805 16.358C16.7787 16.358 16.3717 15.9513 16.3717 15.4492C16.3717 14.9474 16.7787 14.5406 17.2805 14.5406C17.7823 14.5406 18.1893 14.9474 18.1893 15.4492Z" fill="#005EEE"/>
<path d="M23.6419 15.4492C23.6419 15.9513 23.2351 16.358 22.733 16.358C22.2312 16.358 21.8245 15.9513 21.8245 15.4492C21.8245 14.9474 22.2312 14.5406 22.733 14.5406C23.2351 14.5406 23.6419 14.9474 23.6419 15.4492Z" fill="#005EEE"/>
<path d="M19.098 19.9933H20.9156C21.4175 19.9933 21.8245 20.4 21.8245 20.9021C21.8245 21.4039 21.4175 21.8109 20.9156 21.8109H19.098C18.596 21.8109 18.1892 21.4039 18.1892 20.9021C18.1892 20.4002 18.596 19.9933 19.098 19.9933Z" fill="#FFFF9D"/>
<path d="M19.098 16.358H20.9156C21.4175 16.358 21.8245 16.765 21.8245 17.2668C21.8245 17.7687 21.4175 18.1756 20.9156 18.1756H19.098C18.596 18.1756 18.1892 17.7687 18.1892 17.2668C18.1892 16.765 18.596 16.358 19.098 16.358Z" fill="#FFBE00"/>
<path d="M34.6428 27.62L27.0461 25.5482C27.0927 25.7391 27.1565 25.9232 27.1878 26.1196V26.1199C27.1926 26.1517 27.1975 26.1832 27.2021 26.215V26.2155C27.2023 26.2172 27.2026 26.2191 27.203 26.221C27.2033 26.223 27.2035 26.2249 27.2038 26.2269V26.2273C27.204 26.229 27.2043 26.2307 27.2047 26.2327V26.2332L27.2055 26.2385L27.2057 26.2395C27.2096 26.2671 27.2132 26.2945 27.2169 26.3224V26.3231C27.2171 26.3251 27.2174 26.3268 27.2178 26.3287V26.329L27.2183 26.3345L27.2186 26.335C27.2191 26.3389 27.2195 26.3425 27.22 26.3467V26.3469C27.2203 26.3489 27.2205 26.3505 27.2207 26.3525V26.353C27.221 26.3547 27.2212 26.3569 27.2215 26.3588C27.2239 26.3767 27.2261 26.3949 27.228 26.4129L27.2288 26.4187V26.4192L27.2295 26.4248V26.4255L27.2302 26.4306V26.4318L27.2309 26.4364V26.4376C27.2312 26.4391 27.2312 26.441 27.2314 26.4422L27.2317 26.4437L27.2321 26.4483L27.2324 26.4495L27.2329 26.4541V26.4558L27.2336 26.4604V26.4614C27.2338 26.4631 27.2341 26.4648 27.2343 26.4662V26.4675C27.2348 26.4713 27.2351 26.4747 27.2355 26.4786L27.2358 26.4793C27.2375 26.4953 27.2392 26.5111 27.2406 26.5274V26.5283C27.2409 26.53 27.2411 26.5317 27.2414 26.5332V26.5342C27.2416 26.5359 27.2419 26.5375 27.2419 26.539L27.2421 26.5402C27.2423 26.5419 27.2423 26.5436 27.2423 26.5451L27.2426 26.5463C27.2428 26.5477 27.2428 26.5494 27.2431 26.5509L27.2433 26.5523C27.2433 26.5543 27.2435 26.5553 27.2435 26.557L27.2438 26.5584C27.244 26.5601 27.244 26.5613 27.2443 26.563V26.5642L27.2448 26.5691L27.245 26.5703C27.2452 26.572 27.2452 26.5734 27.2452 26.5751L27.2455 26.5764C27.2457 26.5783 27.2457 26.5798 27.246 26.5817V26.5822C27.2474 26.596 27.2486 26.6106 27.2499 26.6244V26.6251C27.2501 26.627 27.2503 26.6285 27.2503 26.6304L27.2506 26.6314C27.2506 26.6331 27.2508 26.6346 27.2508 26.6363L27.2511 26.6375L27.2513 26.6421L27.2516 26.6438L27.252 26.6479V26.6498L27.2523 26.6542L27.2525 26.6557L27.253 26.66V26.662L27.2533 26.6656L27.2535 26.668L27.2537 26.6714L27.254 26.6741L27.2545 26.678V26.6799L27.2549 26.6843V26.6857L27.2554 26.6908V26.6916L27.2559 26.6971V26.6976C27.2564 26.7059 27.2571 26.7136 27.2579 26.7219V26.7224C27.2581 26.7243 27.2581 26.726 27.2581 26.7279V26.7284C27.2583 26.7301 27.2586 26.7321 27.2586 26.7338L27.2588 26.7355L27.2591 26.7398V26.7415L27.2596 26.7457V26.7476C27.2598 26.749 27.2598 26.7503 27.2598 26.752L27.26 26.7537L27.2603 26.7578L27.2605 26.7597L27.2608 26.7638V26.7655C27.261 26.767 27.261 26.7682 27.261 26.7697L27.2613 26.7718C27.2613 26.7728 27.2615 26.7743 27.2615 26.7755L27.2617 26.7777L27.262 26.7815C27.262 26.7823 27.262 26.783 27.2622 26.7837L27.2625 26.7879C27.2625 26.7883 27.2625 26.7891 27.2625 26.7896L27.263 26.7942V26.7956L27.2632 26.8005V26.8014L27.2637 26.806V26.8075C27.2637 26.8092 27.2639 26.8107 27.2639 26.8124L27.2642 26.8136L27.2649 26.8254V26.8269L27.2651 26.8315V26.833L27.2656 26.8376V26.839L27.2659 26.8436V26.8458L27.2661 26.8495L27.2663 26.8519C27.2663 26.8529 27.2663 26.8543 27.2666 26.8553V26.8579L27.2668 26.8613L27.2671 26.864L27.2673 26.8672L27.2676 26.8701L27.2678 26.8732C27.2678 26.8742 27.2678 26.8749 27.2678 26.8759L27.268 26.8793L27.2683 26.8817V26.8856L27.2685 26.8875C27.2685 26.8888 27.2688 26.8904 27.2688 26.8917V26.8938L27.269 26.8975C27.269 26.8982 27.269 26.8989 27.2693 26.8997V26.9035C27.2693 26.9043 27.2695 26.905 27.2695 26.9057C27.2695 26.9069 27.2697 26.9086 27.2697 26.9099V26.9118L27.27 26.9152L27.2702 26.9179V26.922L27.2705 26.9237C27.2707 26.9276 27.2707 26.9322 27.271 26.936V26.9368C27.2712 26.9382 27.2712 26.9402 27.2712 26.9419C27.2712 26.9426 27.2714 26.9433 27.2714 26.9441L27.2717 26.9479C27.2717 26.9487 27.2717 26.9494 27.2717 26.9504C27.2717 26.9516 27.2717 26.9525 27.2719 26.9538V26.9564L27.2722 26.9598C27.2722 26.9618 27.2722 26.9637 27.2724 26.9654C27.2724 26.9666 27.2724 26.9676 27.2724 26.9685L27.2727 26.9719V26.9744L27.2729 26.9778C27.2729 26.9785 27.2729 26.9795 27.2731 26.9802C27.2731 26.9814 27.2731 26.9829 27.2731 26.9838C27.2731 26.9848 27.2731 26.9855 27.2734 26.9863C27.2734 26.9872 27.2734 26.9887 27.2734 26.9899C27.2734 26.9906 27.2734 26.9916 27.2736 26.9926C27.2736 26.9935 27.2736 26.9947 27.2736 26.9957C27.2736 26.9967 27.2736 26.9977 27.2739 26.9986C27.2739 26.9986 53.147 26.05 27.2741 27.0044V27.0076C27.2741 27.0086 27.2741 27.0095 27.2741 27.0105C27.2744 27.0115 27.2744 27.0124 27.2744 27.0134C27.2744 27.0144 27.2744 27.0154 27.2744 27.0163C27.2746 27.0175 27.2746 27.0185 27.2746 27.0197V27.0224L27.2748 27.0258C27.2748 27.0268 27.2748 27.0275 27.2748 27.0285C27.2748 27.0299 27.2748 27.0309 27.2751 27.0323V27.0345C27.2751 27.0357 27.2751 27.0369 27.2751 27.0382C27.2753 27.0403 27.2756 27.0423 27.2756 27.0442C27.2756 27.0449 27.2756 27.0457 27.2756 27.0464V27.0491C27.2758 27.05 27.2758 27.0515 27.2758 27.0525V27.0549C27.2758 27.0561 27.2758 27.0571 27.276 27.0583C27.276 27.0595 27.276 27.0605 27.276 27.0614V27.0644L27.2763 27.0673V27.0726C27.2763 27.0741 27.2765 27.0755 27.2765 27.077C27.2765 27.0775 27.2765 27.0782 27.2765 27.0789V27.0828C27.2768 27.0835 27.2768 27.0842 27.2768 27.085C27.2768 27.0862 27.2768 27.0874 27.2768 27.0886V27.0913L27.277 27.0949V27.0971C27.277 27.0983 27.277 27.0995 27.277 27.1007L27.2773 27.1032V27.1068C27.2773 27.1078 27.2773 27.1085 27.2773 27.1092V27.1129C27.2775 27.1136 27.2775 27.1146 27.2775 27.1155C27.2775 27.1167 27.2775 27.1182 27.2775 27.1194V27.1211C27.2775 27.1226 27.2775 27.1238 27.2777 27.1252V27.1274C27.2777 27.1286 27.2777 27.1301 27.2777 27.1313V27.1332C27.2777 27.1347 27.2777 27.1359 27.278 27.1371V27.1395C27.278 27.141 27.278 27.1427 27.278 27.1441V27.1454C27.278 27.1492 27.2782 27.1536 27.2782 27.1577C27.2782 27.1582 27.2782 27.1589 27.2782 27.1597V27.1657C27.2785 27.1672 27.2785 27.1684 27.2785 27.1699V27.1713C27.2785 27.1725 27.2785 27.1742 27.2785 27.1757V27.1844C27.2787 27.1854 27.2787 27.1866 27.2787 27.1876V27.1941C27.2787 27.1948 27.2787 27.1956 27.2787 27.1963V27.2087C27.279 27.2099 27.279 27.2108 27.279 27.2118V27.2632C27.279 31.2783 24.024 34.5335 20.0088 34.5335H19.9874C19.9845 34.5335 19.9814 34.5332 19.9782 34.5332H19.9675C19.9641 34.5332 19.9615 34.5332 19.9583 34.5332H19.9481C19.9474 34.5332 19.9467 34.5332 19.9459 34.533H19.9358C19.9328 34.533 19.9299 34.533 19.927 34.533H19.9263C19.9231 34.5327 19.9205 34.5327 19.9171 34.5327H19.9156C19.913 34.5327 19.91 34.5327 19.9069 34.5327L19.905 34.5325C19.902 34.5325 19.8991 34.5325 19.8965 34.5325H19.895C19.8919 34.5325 19.8889 34.5322 19.8863 34.5322H19.8853C19.8822 34.5322 19.8795 34.5322 19.8763 34.532H19.8749C19.872 34.532 19.8691 34.532 19.8659 34.5318H19.8642C19.8613 34.5318 19.8584 34.5318 19.8552 34.5318L19.854 34.5315C19.8511 34.5315 19.8482 34.5315 19.8453 34.5315L19.8443 34.5313C19.8412 34.5313 19.8387 34.5313 19.8353 34.5313L19.8339 34.531C19.831 34.531 19.8281 34.531 19.8252 34.5308H19.8235C19.8205 34.5308 19.8174 34.5308 19.8145 34.5305H19.813L19.8045 34.5303H19.8036C19.8004 34.5301 19.7975 34.5301 19.7946 34.5301H19.7929L19.7844 34.5298H19.7822L19.7737 34.5293H19.7718L19.7638 34.5291H19.7623L19.7541 34.5289H19.7519L19.7437 34.5284C19.7429 34.5284 19.7422 34.5284 19.7412 34.5284C19.7386 34.5281 19.7359 34.5281 19.733 34.5281L19.731 34.5279L19.723 34.5276H19.7216L19.7133 34.5274C19.7126 34.5274 19.7119 34.5272 19.7112 34.5272L19.7029 34.5269L19.7005 34.5267L19.6922 34.5264H19.6903L19.6825 34.5259H19.6808L19.6726 34.5257L19.6704 34.5255L19.6624 34.5252C19.6617 34.5252 19.6607 34.525 19.66 34.525C19.6571 34.5247 19.6546 34.5247 19.6517 34.5247C19.651 34.5247 19.6505 34.5247 19.6498 34.5245L19.6418 34.5242L19.6403 34.524C19.6374 34.524 19.6348 34.5238 19.6319 34.5235C19.6314 34.5235 19.6306 34.5235 19.6299 34.5235C19.6272 34.5233 19.6243 34.5233 19.6217 34.523C19.6209 34.523 19.6202 34.523 19.6192 34.523C19.6163 34.5228 19.6139 34.5228 19.611 34.5225L19.6091 34.5223L19.6015 34.5221C19.6008 34.5221 19.6001 34.5221 19.5996 34.5221C19.5969 34.5218 19.5943 34.5216 19.5916 34.5216C19.5909 34.5213 19.5901 34.5213 19.5894 34.5213C19.5867 34.5211 19.5838 34.5211 19.5812 34.5208L19.5787 34.5206C19.5758 34.5204 19.5736 34.5204 19.5707 34.5204C19.57 34.5201 19.5693 34.5201 19.5685 34.5201C19.5661 34.5199 19.5635 34.5199 19.561 34.5196C19.5603 34.5196 19.5596 34.5196 19.5588 34.5194C19.5562 34.5194 19.5538 34.5191 19.5511 34.5191L19.5489 34.5189C19.5462 34.5187 19.5431 34.5187 19.5404 34.5184L19.5382 34.5182C19.5353 34.5179 19.5329 34.5179 19.53 34.5177L19.5278 34.5175C19.5254 34.5172 19.5229 34.5172 19.5205 34.517H19.5183C19.5159 34.5167 19.513 34.5165 19.5108 34.5162H19.5082C19.5055 34.516 19.5028 34.5158 19.5001 34.5155H19.4977C19.4951 34.5153 19.4921 34.515 19.4897 34.5148H19.4873C19.4851 34.5145 19.4824 34.5145 19.4805 34.5143L19.4776 34.5141C19.4752 34.5138 19.4725 34.5136 19.4701 34.5136L19.4676 34.5133C19.465 34.5131 19.4626 34.5128 19.4599 34.5126L19.457 34.5124L19.4492 34.5119L19.447 34.5116C19.4448 34.5116 19.4422 34.5114 19.44 34.5111C19.439 34.5111 19.4381 34.5109 19.4371 34.5109C19.4347 34.5107 19.4322 34.5104 19.4298 34.5102L19.4271 34.5099C19.4247 34.5097 19.4221 34.5097 19.4196 34.5094L19.4165 34.5092C19.414 34.509 19.4114 34.509 19.409 34.5087L19.4063 34.5082C19.4041 34.508 19.4022 34.508 19.4 34.5077C19.3985 34.5077 19.3976 34.5075 19.3961 34.5075C19.3942 34.5073 19.392 34.507 19.3898 34.507L19.3869 34.5068C19.3842 34.5065 19.3818 34.5063 19.3791 34.5061L19.3762 34.5058L19.3687 34.5051C19.3677 34.5051 19.3668 34.5051 19.3658 34.5048L19.3597 34.5044L19.3563 34.5041C19.3541 34.5039 19.3517 34.5036 19.3495 34.5034C19.3486 34.5034 19.3476 34.5034 19.3466 34.5031C19.3442 34.5029 19.3418 34.5027 19.3391 34.5024L19.3359 34.5022L19.3287 34.5014L19.3258 34.5012C19.3238 34.5012 19.3216 34.501 19.3197 34.5007L19.3158 34.5002C19.3136 34.5 19.3117 34.5 19.3095 34.4997L19.3061 34.4995L19.2991 34.4988L19.2954 34.4983L19.2884 34.4976L19.2853 34.4973C19.2833 34.4973 19.2819 34.4971 19.2797 34.4968L19.2756 34.4966L19.2692 34.4959L19.2663 34.4956C19.2639 34.4951 19.2612 34.4951 19.2588 34.4947L19.2557 34.4944L19.2489 34.4937L19.2452 34.4934C19.2435 34.4932 19.2414 34.493 19.2399 34.493C19.2382 34.4925 19.2367 34.4925 19.2351 34.4922C19.2334 34.492 19.2314 34.492 19.2295 34.4917L19.2258 34.4913L19.219 34.4905C19.2178 34.4903 19.2166 34.4903 19.2152 34.4903C19.213 34.4898 19.2115 34.4898 19.2093 34.4896C19.2076 34.4893 19.2062 34.4891 19.2047 34.4891C19.2033 34.4888 19.2016 34.4888 19.2001 34.4886L19.1945 34.4879C19.1928 34.4876 19.1916 34.4876 19.1899 34.4874L19.1856 34.4869L19.1793 34.4862C19.1778 34.4859 19.1766 34.4859 19.1751 34.4857L19.1698 34.485C19.1681 34.4847 19.1664 34.4847 19.1647 34.4845C19.1635 34.4842 19.1618 34.4842 19.1603 34.484L19.1548 34.4833C19.1531 34.483 19.1514 34.483 19.1497 34.4828C19.1485 34.4825 19.1473 34.4823 19.1458 34.4823C19.1436 34.482 19.1414 34.4816 19.1392 34.4813C19.138 34.4811 19.1366 34.4811 19.1354 34.4811C19.1332 34.4806 19.1315 34.4803 19.1293 34.4801C19.1278 34.4801 19.1264 34.4799 19.1249 34.4796C19.1235 34.4794 19.122 34.4794 19.1206 34.4791C19.1184 34.4789 19.1167 34.4786 19.1145 34.4784L19.1101 34.4779C19.1087 34.4777 19.1075 34.4774 19.106 34.4774C19.1041 34.4772 19.1017 34.4767 19.0997 34.4765C19.0983 34.4765 19.0968 34.4762 19.0953 34.476C19.0939 34.4757 19.092 34.4757 19.0905 34.4755L19.0852 34.4748C19.0837 34.4745 19.082 34.4743 19.0806 34.474C19.0786 34.4738 19.0764 34.4736 19.0745 34.4733L19.0704 34.4728C19.0689 34.4726 19.0675 34.4726 19.066 34.4723L19.0597 34.4714L19.0553 34.4706L19.0514 34.4704C19.0493 34.4699 19.0471 34.4697 19.0447 34.4694L19.0413 34.4689L19.0347 34.468L19.0308 34.4675L19.0262 34.467L19.0202 34.466C19.0189 34.4658 19.0172 34.4655 19.0158 34.4655C19.0146 34.4653 19.0129 34.4651 19.0117 34.4651C19.0097 34.4646 19.0073 34.4643 19.0051 34.4641L19.0017 34.4636C18.9993 34.4631 18.9971 34.4629 18.9949 34.4626C18.9935 34.4624 18.9925 34.4622 18.9911 34.4622L18.9864 34.4614C18.9847 34.4612 18.9826 34.4609 18.9806 34.4607C18.9792 34.4605 18.9775 34.46 18.9758 34.4597L18.9721 34.4595L18.9653 34.4583L18.9622 34.458C18.9598 34.4575 18.9573 34.4571 18.9547 34.4568L18.9515 34.4563L18.9469 34.4556C18.9452 34.4554 18.943 34.4551 18.9411 34.4549L18.9362 34.4541C18.9353 34.4539 18.9338 34.4537 18.9326 34.4537L18.9261 34.4527C18.9248 34.4524 18.9236 34.4522 18.9224 34.452L18.9154 34.451L18.912 34.4505L18.9074 34.4498C18.9057 34.4495 18.9033 34.4491 18.9013 34.4488L18.8969 34.4481C18.896 34.4481 18.8945 34.4478 18.8936 34.4476C18.8911 34.4474 18.8885 34.4469 18.8863 34.4464C18.8853 34.4464 18.8843 34.4461 18.8836 34.4461C18.8809 34.4457 18.878 34.4452 18.8756 34.4447L18.8729 34.4444C18.8678 34.4437 18.8627 34.4427 18.8577 34.442C18.8564 34.4418 18.8552 34.4415 18.8543 34.4415C18.8518 34.441 18.8494 34.4408 18.8472 34.4403L18.8438 34.4398C18.8414 34.4394 18.839 34.4391 18.8366 34.4386L18.8334 34.4381C18.8283 34.4372 18.823 34.4364 18.8179 34.4357C18.8172 34.4355 18.8162 34.4352 18.8152 34.4352L18.8074 34.4338L18.805 34.4335C18.8021 34.433 18.7992 34.4326 18.7963 34.4321C18.7958 34.4318 18.7951 34.4318 18.7946 34.4316C18.7927 34.4313 18.7912 34.4311 18.7895 34.4309L18.7871 34.4304L18.7788 34.4292L18.7762 34.4287C18.7735 34.4282 18.7711 34.4277 18.7684 34.4275C18.7674 34.4272 18.7665 34.427 18.7655 34.4267L18.7575 34.4255C18.7568 34.4253 18.756 34.425 18.7551 34.425C18.7534 34.4248 18.7519 34.4243 18.7502 34.4241C18.7492 34.4241 18.7485 34.4238 18.7475 34.4238C18.7449 34.4231 18.7422 34.4229 18.7395 34.4224L18.7371 34.4219C18.7344 34.4214 18.7318 34.4209 18.7289 34.4204L18.7267 34.4199C18.7238 34.4197 18.7211 34.4192 18.7184 34.4185C18.7177 34.4185 18.7167 34.4183 18.716 34.4183C18.7109 34.4173 18.7056 34.4163 18.7005 34.4153C18.6995 34.4153 18.6988 34.4151 18.6978 34.4149C18.6952 34.4144 18.6927 34.4139 18.6901 34.4134L18.6874 34.4129L18.6796 34.4117C18.6787 34.4115 18.6777 34.4112 18.6767 34.411C18.6753 34.4107 18.6736 34.4105 18.6719 34.4102L18.6699 34.4098C18.667 34.4093 18.6641 34.4088 18.6612 34.4083L18.659 34.4078C18.6563 34.4073 18.6534 34.4069 18.6508 34.4064C18.65 34.4061 18.6493 34.4059 18.6483 34.4059C18.6457 34.4054 18.643 34.4049 18.6406 34.4044C18.6396 34.4042 18.6386 34.4039 18.6377 34.4039C18.6362 34.4035 18.6345 34.4032 18.6331 34.403C18.6311 34.4025 18.6292 34.4022 18.6272 34.4018L18.6226 34.4008C18.6217 34.4008 18.6204 34.4005 18.6195 34.4003C18.6171 34.3998 18.6146 34.3993 18.6122 34.3988C18.6112 34.3988 18.6103 34.3986 18.6093 34.3984C18.6069 34.3979 18.6042 34.3974 18.6015 34.3967C18.6006 34.3967 18.5998 34.3964 18.5989 34.3964L18.5943 34.3952L18.5882 34.3942C18.5867 34.394 18.5853 34.3938 18.5838 34.3933L18.5804 34.3925C18.578 34.3921 18.5756 34.3916 18.5734 34.3913C18.5724 34.3911 18.5715 34.3908 18.5705 34.3906C18.5681 34.3901 18.5656 34.3896 18.5632 34.3891L18.5598 34.3887L18.5554 34.3874L18.5494 34.3865C18.5479 34.3862 18.5467 34.3857 18.545 34.3855C18.5438 34.3853 18.5424 34.385 18.5411 34.3848C18.539 34.3843 18.537 34.3838 18.5348 34.3836C18.5336 34.3831 18.5324 34.3828 18.5314 34.3826L18.5246 34.3814C18.5234 34.3811 18.522 34.3809 18.521 34.3807L18.5166 34.3794C18.5149 34.3792 18.513 34.379 18.5113 34.3785C18.5096 34.3782 18.5079 34.3777 18.506 34.3775L18.5028 34.3765C18.5004 34.3763 18.4982 34.3758 18.4958 34.3753C18.4948 34.3751 18.4936 34.3748 18.4926 34.3746C18.4902 34.3741 18.4878 34.3736 18.4854 34.3729L18.4822 34.3724L18.4778 34.3714L18.473 34.3702C18.471 34.37 18.4691 34.3695 18.4674 34.369L18.4643 34.3683C18.4618 34.368 18.4596 34.3673 18.4572 34.3671C18.456 34.3666 18.455 34.3663 18.4541 34.3661L18.4461 34.3644L18.4439 34.3639C18.4422 34.3637 18.4405 34.3632 18.439 34.3627L18.4371 34.3625C18.4342 34.3617 18.4315 34.3613 18.4286 34.3605C18.4276 34.3603 18.4269 34.3603 18.4259 34.36C18.4235 34.3593 18.4208 34.3588 18.4182 34.3583C18.4172 34.3581 18.4165 34.3579 18.4157 34.3576C18.4131 34.3571 18.4102 34.3564 18.4075 34.3559L18.4053 34.3554C18.4036 34.3549 18.4019 34.3545 18.4002 34.3542L18.3995 34.354C18.3963 34.3532 18.3932 34.3525 18.39 34.3518L18.3876 34.3513C18.3849 34.3506 18.3823 34.3501 18.3798 34.3496L18.3769 34.3489C18.3748 34.3482 18.3723 34.3477 18.3701 34.3472C18.3689 34.3469 18.3675 34.3467 18.3665 34.3465L18.3621 34.3455C18.3609 34.345 18.3595 34.3448 18.3583 34.3445C18.3561 34.344 18.3539 34.3435 18.3517 34.3431L18.3483 34.3421C18.3461 34.3419 18.3437 34.3411 18.3415 34.3406L18.3384 34.3399L18.3313 34.3382C18.3304 34.338 18.3294 34.3377 18.3282 34.3372L18.3236 34.3363C18.3221 34.336 18.3207 34.3355 18.319 34.3353L18.3134 34.3338C18.3124 34.3336 18.3112 34.3334 18.3102 34.3331L18.3032 34.3314C18.302 34.3312 18.301 34.3309 18.3001 34.3307C18.2979 34.3302 18.2957 34.3295 18.2935 34.329C18.292 34.3288 18.2911 34.3285 18.2896 34.328L18.2853 34.3271C18.2833 34.3266 18.2814 34.3261 18.2792 34.3256L18.2751 34.3246C18.2739 34.3244 18.2726 34.3239 18.2714 34.3237C18.2692 34.3232 18.2671 34.3227 18.2649 34.3222C18.2637 34.3217 18.2627 34.3215 18.2615 34.3212C18.2593 34.3207 18.2569 34.32 18.2545 34.3195C18.2535 34.3193 18.2525 34.3191 18.2515 34.3188C18.2498 34.3183 18.2484 34.3178 18.2469 34.3176C18.245 34.3171 18.2433 34.3166 18.2416 34.3164C18.2401 34.3159 18.2384 34.3154 18.237 34.3152L18.2329 34.314C18.2309 34.3137 18.2287 34.313 18.227 34.3127C18.2256 34.3123 18.2244 34.312 18.2232 34.3115C18.2212 34.3113 18.2193 34.3106 18.2173 34.3103L18.2127 34.3091L18.2089 34.3081C18.2069 34.3077 18.2047 34.3069 18.2028 34.3067L18.1989 34.3055C18.1972 34.3052 18.1958 34.3047 18.1941 34.3043L18.1892 34.303C18.1878 34.3028 18.1861 34.3023 18.1848 34.3018L18.1795 34.3006C18.1778 34.3001 18.1764 34.2996 18.1747 34.2994C18.1734 34.2992 18.1722 34.2987 18.1708 34.2982C18.1686 34.2977 18.1667 34.2972 18.1645 34.2967C18.1633 34.2965 18.1618 34.296 18.1606 34.2955L18.1565 34.2946C18.1545 34.2941 18.1526 34.2936 18.1509 34.2931C18.1494 34.2926 18.148 34.2924 18.1465 34.2919L18.1412 34.2907L18.1368 34.2895C18.1354 34.289 18.1342 34.2885 18.1327 34.2882C18.1305 34.2878 18.1286 34.287 18.1266 34.2866C18.1252 34.2863 18.124 34.2858 18.1225 34.2856C18.1213 34.2851 18.1201 34.2849 18.1189 34.2844C18.1167 34.2839 18.1147 34.2834 18.1126 34.2827C18.1116 34.2824 18.1101 34.2822 18.1089 34.2819C18.1072 34.2815 18.1053 34.281 18.1036 34.2805C18.1019 34.28 18.1004 34.2795 18.0987 34.279C18.0975 34.2788 18.0961 34.2783 18.0946 34.2781C18.0929 34.2773 18.0912 34.2771 18.0895 34.2766L18.0847 34.2754C18.0835 34.2749 18.082 34.2744 18.0806 34.2742C18.0786 34.2737 18.0767 34.2732 18.075 34.2727C18.0735 34.2722 18.0725 34.272 18.0708 34.2715C18.0694 34.271 18.0675 34.2705 18.0658 34.2701C18.0643 34.2696 18.0624 34.2691 18.0607 34.2688C18.0594 34.2684 18.0582 34.2679 18.0568 34.2676L18.0514 34.2662C18.05 34.2657 18.0483 34.2652 18.0468 34.265C18.0454 34.2645 18.0442 34.264 18.0427 34.2638L18.0371 34.2621C18.0359 34.2618 18.0345 34.2613 18.0333 34.2608L18.0286 34.2596L18.0228 34.2582L18.0194 34.2572C18.0172 34.2565 18.0151 34.2557 18.0129 34.2553C18.0119 34.255 18.0107 34.2545 18.0095 34.2543C18.0075 34.2538 18.0063 34.2533 18.0046 34.2528L18 34.2516C17.9983 34.2511 17.9969 34.2507 17.9949 34.2502L17.9915 34.2492L17.9852 34.2473C17.984 34.247 17.983 34.2468 17.9818 34.2463L17.9753 34.2443C17.9741 34.2441 17.9729 34.2436 17.9719 34.2434C17.9702 34.2429 17.9687 34.2427 17.9673 34.2419L17.9619 34.2405L17.9578 34.2393L17.9539 34.2383C17.952 34.2376 17.9498 34.2371 17.9479 34.2363C17.9467 34.2361 17.9455 34.2359 17.9442 34.2354C17.9421 34.2346 17.9396 34.2342 17.9377 34.2334C17.9367 34.2332 17.9355 34.2327 17.9345 34.2325L17.929 34.231C17.9277 34.2305 17.9263 34.23 17.9251 34.2296L17.9166 34.2271L17.91 34.2252L17.9069 34.2242L17.9003 34.2223L17.8969 34.2213L17.8916 34.2196C17.8902 34.2194 17.8892 34.2189 17.888 34.2184L17.8824 34.2167L17.8792 34.2157L17.8727 34.2138C17.8717 34.2135 17.8708 34.2133 17.8698 34.2131L17.8627 34.2106L17.8603 34.2099L17.8535 34.208L17.8513 34.2072C17.8492 34.2065 17.8467 34.2058 17.8446 34.2051L17.8421 34.2043C17.8397 34.2036 17.8373 34.2029 17.8349 34.2021L17.8324 34.2012C17.83 34.2004 17.8276 34.1997 17.8252 34.199C17.8244 34.1987 17.8237 34.1985 17.823 34.1983L17.8164 34.1961C17.8157 34.1958 17.8147 34.1956 17.814 34.1954C17.8118 34.1946 17.8096 34.1941 17.8074 34.1932C17.8065 34.1929 17.8058 34.1927 17.805 34.1924L17.7977 34.1903C17.797 34.19 17.796 34.1898 17.7953 34.1893C17.7929 34.1886 17.7905 34.1878 17.788 34.1871C17.7873 34.1869 17.7866 34.1866 17.7859 34.1864C17.7834 34.1854 17.7813 34.1849 17.7791 34.1842C17.7783 34.184 17.7776 34.1837 17.7766 34.1835C17.7745 34.1825 17.7723 34.182 17.7703 34.1813L17.7655 34.182C17.7631 34.181 17.7606 34.1803 17.7582 34.1796L17.756 34.1789C17.7536 34.1781 17.7509 34.1772 17.7485 34.1764L17.7463 34.1757L17.7393 34.1733L17.7381 34.173C17.7357 34.1721 17.733 34.1713 17.7308 34.1706L17.7284 34.1696C17.726 34.1689 17.7235 34.1682 17.7211 34.1672C17.7204 34.1672 17.7196 34.1667 17.7189 34.1667L17.7114 34.1641L17.7097 34.1636C17.707 34.1629 17.7046 34.1619 17.7019 34.1609L17.7012 34.1607L17.6935 34.158L17.6915 34.1575C17.6888 34.1565 17.6864 34.1556 17.6838 34.1548C17.6833 34.1546 17.6828 34.1546 17.6821 34.1541L17.6741 34.1515L17.6731 34.1512C17.6702 34.1502 17.6677 34.1495 17.6648 34.1483H17.6643C17.6619 34.1473 17.659 34.1466 17.6566 34.1456L17.6546 34.1449C17.6522 34.1442 17.6496 34.1432 17.6471 34.1425L17.6452 34.1418L17.6374 34.1391L17.6362 34.1386L17.628 34.1357H17.6277C17.6251 34.1347 17.6221 34.1337 17.6195 34.1328L17.618 34.1323C17.6154 34.1313 17.6124 34.1304 17.61 34.1294L17.6088 34.1291C17.6061 34.1282 17.603 34.127 17.6003 34.1262L17.5998 34.126C17.594 34.1238 17.5882 34.1219 17.5826 34.1199L17.5814 34.1194C17.5785 34.1185 17.5761 34.1177 17.5732 34.1165L17.5722 34.1163C17.5695 34.1153 17.5664 34.1141 17.5637 34.1134L17.563 34.1131C17.5571 34.1109 17.5513 34.109 17.5457 34.1068L17.5448 34.1066C17.5421 34.1056 17.5394 34.1046 17.5365 34.1037L17.5356 34.1032C17.5326 34.1022 17.5297 34.1012 17.5271 34.1H17.5268C17.5208 34.0981 17.5147 34.0957 17.5086 34.0935C17.4914 34.0872 17.4742 34.0811 17.457 34.0755C17.4432 34.0695 17.4291 34.0641 17.415 34.0586C17.3903 34.0491 17.3658 34.0396 17.3413 34.0299L17.3408 34.0297C17.3345 34.0273 17.3279 34.0248 17.3216 34.0222C16.3915 33.6453 15.3316 34.0937 14.9544 35.0239C14.5775 35.9543 15.026 37.0142 15.9561 37.3911C15.9636 37.3943 15.9712 37.3972 15.9787 37.4001L16.1186 37.4546C16.1446 37.4646 16.1708 37.4743 16.197 37.483C16.2176 37.4913 16.2384 37.4995 16.2593 37.507C16.5174 37.6014 16.7779 37.6858 17.0413 37.7602C18.1781 38.0925 19.1123 38.906 19.5974 39.9868H36.3648C38.3724 39.9868 40 38.3591 40 36.3516V34.6341C40 31.3557 37.8058 28.4827 34.6428 27.62Z" fill="#005EEE"/>
<path d="M28.1858 5.45261C29.6915 5.45261 30.9122 6.67332 30.9122 8.17903C30.9122 9.9719 30.4948 11.7403 29.6929 13.344C29.3262 14.0772 28.5767 14.5404 27.7567 14.5404H27.6243C26.4285 14.5404 25.4594 13.5712 25.4594 12.3757V8.17903C25.4594 6.67332 26.6801 5.45261 28.1858 5.45261Z" fill="#163969"/>
<path d="M29.0947 8.17903C29.0947 9.68474 27.874 10.9055 26.3683 10.9055C24.8626 10.9055 23.6418 9.68474 23.6418 8.17903C23.6418 6.67333 24.8626 5.45261 26.3683 5.45261C27.874 5.45261 29.0947 6.67333 29.0947 8.17903Z" fill="#002755"/>
<path d="M17.2804 0H20.9156C24.4288 0 27.277 2.84818 27.277 6.36141C27.277 9.87488 24.4288 12.7231 20.9156 12.7231H17.2804C13.7671 12.7231 10.9189 9.87488 10.9189 6.36141C10.9189 2.84818 13.7671 0 17.2804 0Z" fill="#163969"/>
<path d="M19.2773 2.54695C18.0713 1.34103 15.7926 1.66433 14.1877 3.269C12.5828 4.8739 12.2595 7.15259 13.4657 8.35875C14.6716 9.56467 16.9505 9.24136 18.5552 7.6367C20.1601 6.0318 20.4834 3.75311 19.2773 2.54695Z" fill="#5E7599"/>
<path d="M9.10143 25.4459C10.1051 25.4459 10.919 26.2596 10.919 27.2635V38.1689C10.919 39.1728 10.1053 39.9865 9.10143 39.9865C8.09754 39.9865 7.28381 39.1728 7.28381 38.1689V27.2635C7.28381 26.2596 8.09754 25.4459 9.10143 25.4459Z" fill="#33527D"/>
<path d="M8.19262 36.3513H10.0102C10.5121 36.3513 10.919 36.7583 10.919 37.2601C10.919 37.7622 10.5121 38.169 10.0102 38.169H8.19262C7.6908 38.169 7.28381 37.7622 7.28381 37.2601C7.28381 36.7583 7.6908 36.3513 8.19262 36.3513Z" fill="#002755"/>
<path d="M32.7299 25.4459C33.7336 25.4459 34.5473 26.2596 34.5473 27.2635V38.1689C34.5473 39.1728 33.7336 39.9865 32.7299 39.9865C31.7261 39.9865 30.9124 39.1728 30.9124 38.1689V27.2635C30.9124 26.2596 31.7261 25.4459 32.7299 25.4459Z" fill="#33527D"/>
<path d="M7.28368 32.7163H10.9189C11.9225 32.7163 12.7363 33.53 12.7363 34.5337C12.7363 35.5376 11.9225 36.3513 10.9189 36.3513H7.28368C6.27979 36.3513 5.46606 35.5376 5.46606 34.5337C5.46606 33.53 6.27979 32.7163 7.28368 32.7163Z" fill="#163969"/>
<path d="M30.9122 32.7163H34.5472C35.5511 32.7163 36.3648 33.53 36.3648 34.5337C36.3648 35.5376 35.5511 36.3513 34.5472 36.3513H30.9122C29.9083 36.3513 29.0946 35.5376 29.0946 34.5337C29.0946 33.53 29.9083 32.7163 30.9122 32.7163Z" fill="#163969"/>
<path d="M31.8212 36.3513H33.6387C34.1406 36.3513 34.5473 36.7583 34.5473 37.2601C34.5473 37.7622 34.1406 38.169 33.6387 38.169H31.8212C31.3191 38.169 30.9124 37.7622 30.9124 37.2601C30.9124 36.7583 31.3191 36.3513 31.8212 36.3513Z" fill="#002755"/>
<path d="M8.19262 32.7163H10.0102C10.5121 32.7163 10.919 33.123 10.919 33.6251C10.919 34.1269 10.5121 34.5336 10.0102 34.5336H8.19262C7.6908 34.5336 7.28381 34.1269 7.28381 33.6251C7.28381 33.123 7.6908 32.7163 8.19262 32.7163Z" fill="#7D8FAC"/>
<path d="M31.8212 32.7163H33.6387C34.1406 32.7163 34.5473 33.123 34.5473 33.6251C34.5473 34.1269 34.1406 34.5336 33.6387 34.5336H31.8212C31.3191 34.5336 30.9124 34.1269 30.9124 33.6251C30.9124 33.123 31.3191 32.7163 31.8212 32.7163Z" fill="#7D8FAC"/>
</g>
<defs>
<clipPath id="clip0">
<rect width="40" height="40" fill="white"/>
</clipPath>
</defs>
</svg>
